<?xml version="1.0" standalone="no"?>
<!DOCTYPE svg PUBLIC "-//W3C//DTD SVG 1.1//EN" "http://www.w3.org/Graphics/SVG/1.1/DTD/svg11.dtd" >
<svg>
<metadata>
Created by FontForge 20090914 at Sun Sep  1 17:09:08 2013
 By www-data
Copyright (c) 1988, 1990, 1991, 1994 Adobe Systems Incorporated.  All Rights Reserved.
</metadata>
<defs>
<font id="Caslon3Roman" horiz-adv-x="556" >
  <font-face 
    font-family="Caslon3Roman"
    font-weight="400"
    font-stretch="normal"
    units-per-em="1000"
    panose-1="2 2 5 0 0 0 0 0 0 0"
    ascent="800"
    descent="-200"
    x-height="444"
    cap-height="728"
    bbox="-56 -250 1004 980"
    underline-thickness="50"
    underline-position="-50"
    unicode-range="U+0020-U+2122"
  />
<missing-glyph horiz-adv-x="502" 
d="M-1 0h500v500h-500v-500zM9 10v480h480v-480h-480z" />
    <glyph glyph-name=".notdef" horiz-adv-x="502" 
d="M-1 0h500v500h-500v-500zM9 10v480h480v-480h-480z" />
    <glyph glyph-name="space" unicode=" " horiz-adv-x="278" 
 />
    <glyph glyph-name="exclam" unicode="!" horiz-adv-x="333" 
d="M185 199c6 104 23.9961 224 53.9961 360c4.66699 21.333 7 43.333 7 66c0 14.667 -1.16699 28.667 -3.5 42s-6.66602 25.833 -12.999 37.5s-14.666 20.834 -24.999 27.501s-23.166 10 -38.499 10s-28.166 -3.33301 -38.499 -10s-18.5 -15.834 -24.5 -27.501
s-10.333 -24.167 -13 -37.5s-4 -27.333 -4 -42c0 -22.667 2.33301 -44.667 7 -66c30 -136 48 -256 54 -360h38zM242.996 63c0 21.333 -7.5 39.5 -22.5 54.5s-33.167 22.5 -54.5 22.5s-39.5 -7.5 -54.5 -22.5s-22.5 -33.167 -22.5 -54.5s7.5 -39.5 22.5 -54.5
s33.167 -22.5 54.5 -22.5s39.5 7.5 54.5 22.5s22.5 33.167 22.5 54.5z" />
    <glyph glyph-name="quotedbl" unicode="&#x22;" horiz-adv-x="333" 
d="M126 661c0 2.66699 0.333008 5.66602 1 8.99902v13c0 16.667 -2.83301 30.667 -8.5 42s-16.5 17 -32.5 17s-26.833 -5.66699 -32.5 -17s-8.5 -25.333 -8.5 -42c0 -3.33301 0.333008 -7.66602 1 -12.999v-9l18 -204c1.33301 -8 3.33301 -15.167 6 -21.5s8 -9.5 16 -9.5
s13.5 3.16699 16.5 9.5s4.83301 13.5 5.5 21.5zM287 660.999c0 2.66699 0.333008 5.66602 1 8.99902v13c0 16.667 -2.83301 30.667 -8.5 42s-16.5 17 -32.5 17s-26.833 -5.66699 -32.5 -17s-8.5 -25.333 -8.5 -42c0 -3.33301 0.333008 -7.66602 1 -12.999v-9l18 -204
c1.33301 -8 3.33301 -15.167 6 -21.5s8 -9.5 16 -9.5s13.5 3.16699 16.5 9.5s4.83301 13.5 5.5 21.5z" />
    <glyph glyph-name="numbersign" unicode="#" 
d="M495 292h-90l20 144h99v69h-90l30 223h-73l-29 -223h-119l30 223h-73l-29 -223h-109v-69h100l-20 -144h-109v-69h100l-30 -223h72l30 223h119l-30 -223h72l30 223h99v69zM354 436l-19 -144h-119l19 144h119z" />
    <glyph glyph-name="dollar" unicode="$" 
d="M247 484c-34.667 18.667 -61.667 37.167 -81 55.5s-29 41.5 -29 69.5c0 30 10.667 55 32 75s47.333 30.333 78 31v-231zM295 287l4.00098 -2.00098c37.333 -21.333 65.5 -41.5 84.5 -60.5s28.5 -44.833 28.5 -77.5c0 -37.333 -10.333 -68.166 -31 -92.499
s-49.334 -37.5 -86.001 -39.5v272zM295.001 715.999c26.667 -3.33301 43.335 -10.8301 50.002 -22.4971s11 -32.5 13 -62.5c1.33301 -18.667 7.66602 -35.167 18.999 -49.5s26 -21.5 44 -21.5c19.333 0 34.666 4.66699 45.999 14s17 23.333 17 42
c0 20 -5.66699 37.667 -17 53s-26.333 28.166 -45 38.499s-39 18.333 -61 24s-44 9.16699 -66 10.5v66h-48v-66c-64.667 -7.33301 -115.5 -26.5 -152.5 -57.5s-55.5 -74.167 -55.5 -129.5c0 -27.333 6 -52.666 18 -75.999s27.5 -44.166 46.5 -62.499
s39.167 -34.5 60.5 -48.5l78 -49l5 -3v-303c-25.333 0 -43.666 7.33301 -54.999 22s-18.666 35 -21.999 61c-1.33301 10 -3.5 20.333 -6.5 31s-7.16699 20.667 -12.5 30s-12.333 17 -21 23s-19.334 9 -32.001 9c-16.667 0 -30.5 -6.16699 -41.5 -18.5
s-16.5 -28.166 -16.5 -47.499c0 -25.333 6.16699 -46.833 18.5 -64.5s28.666 -31.834 48.999 -42.501s42.5 -18.334 66.5 -23.001s48.333 -7 73 -7v-106h48v106c63.333 3.33301 114.5 23.666 153.5 60.999s58.5 87 58.5 149c0 36 -5.16699 67.167 -15.5 93.5
s-24.833 49.166 -43.5 68.499s-39.5 36.166 -62.5 50.499s-53.167 31.5 -90.5 51.5v256z" />
    <glyph glyph-name="percent" unicode="%" horiz-adv-x="889" 
d="M458 123c0 -42 12.167 -75.335 36.5 -100.002s57.833 -37 100.5 -37c30 0 58.167 7.5 84.5 22.5s49.333 35.167 69 60.5s35 52.833 46 82.5s16.5 58.834 16.5 87.501c0 38.667 -10.5 70.334 -31.5 95.001s-50.5 37 -88.5 37c-27.333 0 -54.833 -7.5 -82.5 -22.5
s-53 -35 -76 -60s-41.167 -52.167 -54.5 -81.5s-20 -57.333 -20 -84zM557 81.998c0 16.667 4.50098 39.498 13.501 68.498s21.167 58 36.5 87s32.666 53 51.999 72s39 28.5 59 28.5c22 0 38.5 -10 49.5 -30s16.5 -42 16.5 -66c0 -20.667 -4.16699 -44.167 -12.5 -70.5
s-19.833 -51.166 -34.5 -74.499s-32 -42.666 -52 -57.999s-41.333 -23 -64 -23c-19.333 0 -34.833 5 -46.5 15s-17.5 27 -17.5 51zM684.001 741.996h-55.999c-20.667 -28 -44.834 -50.333 -72.501 -67s-56.167 -25 -85.5 -25c-25.333 0 -48.333 3.66699 -69 11
c-4 4.66699 -9 11.334 -15 20.001c-4 6 -7 10.333 -9 13c-8 9.33301 -18.5 16.833 -31.5 22.5s-29.5 8.5 -49.5 8.5c-29.333 0 -58 -7.83301 -86 -23.5s-53 -36.667 -75 -63s-39.167 -55 -51.5 -86s-18.5 -60.833 -18.5 -89.5c0 -40.667 12.5 -72.334 37.5 -95.001
s57.167 -34 96.5 -34c30 0 58.5 7.83301 85.5 23.5s50.5 36.5 70.5 62.5s35.333 54 46 84s16 58.667 16 86c0 7.33301 -1.66699 18 -5 32l-1 3c16 -4 32.667 -6 50 -6c21.333 0 42.833 3.33301 64.5 10s39.167 16.667 52.5 30l2 -2l-376 -671h59zM164.002 422.996
c0 17.333 4.33301 41 13 71s20.5 60.333 35.5 91s31.5 56.167 49.5 76.5s36 30.5 54 30.5c13.333 -14.667 36 -32.667 68 -54c4 -18 6 -33 6 -45c0 -25.333 -4.5 -51.5 -13.5 -78.5s-21.667 -52 -38 -75s-35.333 -41.333 -57 -55s-44.5 -20.5 -68.5 -20.5
c-14.667 0 -26.5 6 -35.5 18s-13.5 25.667 -13.5 41z" />
    <glyph glyph-name="ampersand" unicode="&#x26;" horiz-adv-x="778" 
d="M181 225c0 32 8.83301 60.333 26.5 85s41.167 41.667 70.5 51l58 -99l57.5 -99c14.333 -25.333 26.5 -48.666 36.5 -69.999c-15.333 -18.667 -32.666 -33.334 -51.999 -44.001s-42 -16 -68 -16c-22.667 3.33301 -42.334 11 -59.001 23s-30.167 26.833 -40.5 44.5
s-17.833 37.167 -22.5 58.5s-7 43.333 -7 66zM390 471c-10 10 -20 21.8359 -30 35.5029s-19 28.167 -27 43.5s-14.5 30.666 -19.5 45.999s-7.5 29.666 -7.5 42.999c0 20 5.33301 37.667 16 53s25.667 23 45 23c30 0 52.667 -10.833 68 -32.5s23 -48.5 23 -80.5
c0 -54.667 -22.667 -98.334 -68 -131.001zM517 455.003v-26.998c4 -0.666992 9.33301 -1.66699 16 -3c18 -4 30.5 -8.66699 37.5 -14s10.5 -17 10.5 -35c0 -8.66699 -3.33301 -20.334 -10 -35.001s-16 -33.667 -28 -57c-10 -19.333 -16.667 -33 -20 -41
c-10 23.333 -21.167 45.666 -33.5 66.999l-48.5 80l-33 52c33.333 17.333 59.333 37.5 78 60.5s28 51.167 28 84.5c0 48.667 -14.333 86.667 -43 114s-67.334 41 -116.001 41c-47.333 0 -85.166 -17 -113.499 -51s-42.5 -75 -42.5 -123c0 -35.333 4.5 -64.833 13.5 -88.5
s24.833 -52.834 47.5 -87.501c-59.333 -18 -108 -47 -146 -87s-57 -89 -57 -147c0 -57.333 18.167 -100.333 54.5 -129s83.833 -43 142.5 -43c36.667 0 70.5 6.66699 101.5 20s59.833 33 86.5 59c12.667 -27.333 28.167 -47.333 46.5 -60s42.5 -19 72.5 -19
c42 0 76.833 15.5 104.5 46.5s46.167 68.5 55.5 112.5l-19 3c-2 -4 -4 -9 -6 -15c-9.33301 -22 -18.5 -39 -27.5 -51s-21.167 -18 -36.5 -18c-17.333 0 -31.166 8.33301 -41.499 25s-21.833 42.334 -34.5 77.001c-8 21.333 -14 36.333 -18 45l78 152
c10.667 20.667 22.667 36 36 46s31.666 16.333 54.999 19v27h-190z" />
    <glyph glyph-name="quotesingle" unicode="'" horiz-adv-x="222" 
d="M151 661c0 2.66699 0.333008 5.66602 1 8.99902v13c0 16.667 -2.83301 30.667 -8.5 42s-16.5 17 -32.5 17s-26.833 -5.66699 -32.5 -17s-8.5 -25.333 -8.5 -42c0 -3.33301 0.333008 -7.66602 1 -12.999v-9l18 -204c1.33301 -8 3.33301 -15.167 6 -21.5s8 -9.5 16 -9.5
s13.5 3.16699 16.5 9.5s4.83301 13.5 5.5 21.5z" />
    <glyph glyph-name="parenleft" unicode="(" horiz-adv-x="389" 
d="M324 742c-41.333 -13.333 -79 -35.668 -113 -67.001s-62.833 -68.166 -86.5 -110.499s-41.834 -86.5 -54.501 -132.5s-19 -90 -19 -132c0 -40 6.83301 -81.5 20.5 -124.5s32.834 -84 57.501 -123s53.667 -73 87 -102s69.333 -49.833 108 -62.5v23
c-30 14.667 -55.667 36.5 -77 65.5s-38.5 61.5 -51.5 97.5s-22.5 72.5 -28.5 109.5s-9 72.5 -9 106.5c0 49.333 1.83301 93 5.5 131s11 75 22 111s27.833 69.833 50.5 101.5s52 60.167 88 85.5v23z" />
    <glyph glyph-name="parenright" unicode=")" horiz-adv-x="389" 
d="M65 -112c38 12 73.834 32.502 107.501 61.502s63 63.167 88 102.5s44.167 80.5 57.5 123.5s20 84.5 20 124.5c0 42 -6.33301 86 -19 132s-30.834 90.167 -54.501 132.5s-52.5 79.166 -86.5 110.499s-71.667 53.666 -113 66.999v-23c36 -25.333 65.333 -53.833 88 -85.5
s39.5 -65.5 50.5 -101.5s18.333 -73 22 -111s5.5 -81.667 5.5 -131c0 -34 -3 -69.5 -9 -106.5s-15.5 -73.5 -28.5 -109.5s-30.167 -68.5 -51.5 -97.5s-47 -50.833 -77 -65.5v-23z" />
    <glyph glyph-name="asterisk" unicode="*" horiz-adv-x="500" 
d="M257 302c14 0 25.832 5.5 35.499 16.5s14.5 22.5 14.5 34.5c0 13.333 -6 32.666 -18 57.999c-8 16.667 -13.667 30 -17 40c-2.66699 8.66699 -4 23 -4 43c0 1.33301 2.33301 2 7 2c14 -6 24.833 -12.833 32.5 -20.5s18.167 -20.834 31.5 -39.501l8 -12
c17.333 -27.333 37.666 -41 60.999 -41c14.667 0 26.5 4.66699 35.5 14s13.5 21.666 13.5 36.999c0 17.333 -6.83301 30.5 -20.5 39.5s-31.5 13.5 -53.5 13.5c-24.667 0 -44.334 1.83301 -59.001 5.5s-28.334 10.167 -41.001 19.5c1.33301 2.66699 2 5.66699 2 9v4
c-0.666992 0.666992 -1 1.33398 -1 2.00098c12.667 9.33301 26.334 15.833 41.001 19.5s34.334 5.5 59.001 5.5c22 0 39.833 4.5 53.5 13.5s20.5 22.167 20.5 39.5c0 15.333 -4.5 27.666 -13.5 36.999s-20.833 14 -35.5 14c-23.333 0 -43.666 -13.667 -60.999 -41l-8 -12
c-13.333 -18.667 -23.666 -31.667 -30.999 -39s-18.333 -14.333 -33 -21c-2.66699 2.66699 -6 5 -10 7c0 20 1.33301 34.333 4 43c3.33301 10 9 23.333 17 40c12 25.333 18 44.666 18 57.999c0 12 -4.83301 23.5 -14.5 34.5s-21.5 16.5 -35.5 16.5s-25.833 -5.5 -35.5 -16.5
s-14.5 -22.5 -14.5 -34.5c0 -13.333 6 -32.666 18 -57.999c8 -16.667 13.667 -30 17 -40c2.66699 -8.66699 4 -23 4 -43c-4 -2.66699 -7 -5.33398 -9 -8.00098c-14 6 -24.833 12.833 -32.5 20.5s-18.167 20.834 -31.5 39.501l-8 12c-17.333 27.333 -37.666 41 -60.999 41
c-14.667 0 -26.5 -4.66699 -35.5 -14s-13.5 -21.666 -13.5 -36.999c0 -17.333 6.83301 -30.5 20.5 -39.5s31.5 -13.5 53.5 -13.5c24.667 0 44.5 -1.83301 59.5 -5.5s28.5 -10.167 40.5 -19.5v-2c-0.666992 -1.33301 -1 -2.33301 -1 -3s0.333008 -1.66699 1 -3v-1
c-12 -9.33301 -25.5 -15.833 -40.5 -19.5s-34.833 -5.5 -59.5 -5.5c-22 0 -39.833 -4.5 -53.5 -13.5s-20.5 -22.167 -20.5 -39.5c0 -15.333 4.5 -27.666 13.5 -36.999s20.833 -14 35.5 -14c23.333 0 43.666 13.667 60.999 41l8 12c13.333 18.667 23.833 31.667 31.5 39
s18.5 14.333 32.5 21c4 -4 7.66699 -6.33301 11 -7c0 -20 -1.33301 -34.333 -4 -43c-3.33301 -10 -9 -23.333 -17 -40c-12 -25.333 -18 -44.666 -18 -57.999c0 -12 4.83301 -23.5 14.5 -34.5s21.5 -16.5 35.5 -16.5z" />
    <glyph glyph-name="plus" unicode="+" horiz-adv-x="600" 
d="M264 258h-185v-72h185v-186h72v186h185v72h-185v186h-72v-186z" />
    <glyph glyph-name="comma" unicode="," horiz-adv-x="278" 
d="M92 -161c38 26 68.1699 56.501 90.5029 91.501s33.5 73.167 33.5 114.5c0 28 -7.5 50.667 -22.5 68s-37.5 26 -67.5 26c-18.667 -2 -33.834 -9.33301 -45.501 -22s-17.5 -28.667 -17.5 -48c0 -16 3.5 -29.333 10.5 -40s16.833 -20.667 29.5 -30l15 -9
c9.33301 -5.33301 16.166 -10 20.499 -14s6.5 -8.66699 6.5 -14c0 -7.33301 -3 -16.333 -9 -27s-13.167 -21.334 -21.5 -32.001s-16.333 -20.167 -24 -28.5s-12.834 -13.5 -15.501 -15.5z" />
    <glyph glyph-name="hyphen" unicode="-" horiz-adv-x="333" 
d="M289 170v104h-245v-104h245z" />
    <glyph glyph-name="period" unicode="." horiz-adv-x="278" 
d="M216 63c0 21.333 -7.5 39.5 -22.5 54.5s-33.167 22.5 -54.5 22.5s-39.5 -7.5 -54.5 -22.5s-22.5 -33.167 -22.5 -54.5s7.5 -39.5 22.5 -54.5s33.167 -22.5 54.5 -22.5s39.5 7.5 54.5 22.5s22.5 33.167 22.5 54.5z" />
    <glyph glyph-name="slash" unicode="/" horiz-adv-x="278" 
d="M-16 -14h75l235 756h-77z" />
    <glyph glyph-name="zero" unicode="0" 
d="M278 13c-40.667 0 -67.834 26.5 -81.501 79.5s-20.5 143.5 -20.5 271.5s6.83301 218.5 20.5 271.5s40.834 79.5 81.501 79.5s67.834 -26.5 81.501 -79.5s20.5 -143.5 20.5 -271.5s-6.83301 -218.5 -20.5 -271.5s-40.834 -79.5 -81.501 -79.5zM278 -14
c44 0 81.5 12 112.5 36s55.5 55.333 73.5 94s30.833 79.5 38.5 122.5s11.5 84.833 11.5 125.5s-3.83301 82.5 -11.5 125.5s-20.5 83.833 -38.5 122.5s-42.5 70 -73.5 94s-68.5 36 -112.5 36s-81.5 -12 -112.5 -36s-55.5 -55.333 -73.5 -94s-30.833 -79.5 -38.5 -122.5
s-11.5 -84.833 -11.5 -125.5s3.83301 -82.5 11.5 -125.5s20.5 -83.833 38.5 -122.5s42.5 -70 73.5 -94s68.5 -36 112.5 -36z" />
    <glyph glyph-name="one" unicode="1" 
d="M222 94c0 -22.667 -8.49805 -39.3359 -25.498 -50.0029s-49.167 -16.334 -96.5 -17.001v-27h379v27c-50.667 0.666992 -84.834 6.33398 -102.501 17.001s-26.5 27.334 -26.5 50.001v648h-20c-19.333 -15.333 -46.333 -30.166 -81 -44.499
s-78.334 -25.166 -131.001 -32.499v-27c44.667 0 73.167 -2.5 85.5 -7.5s18.5 -16.5 18.5 -34.5v-502z" />
    <glyph glyph-name="two" unicode="2" 
d="M456 0l51.998 165.999l-23 10c-10.667 -25.333 -22.667 -42.333 -36 -51s-36.333 -13 -69 -13h-279c6.66699 27.333 22.667 51.666 48 72.999s56.333 42.666 93 63.999l31 18c36 20.667 65.833 38.834 89.5 54.501s46 33.834 67 54.501s37.833 44.334 50.5 71.001
s19 56.667 19 90c0 60.667 -19.667 110 -59 148s-89.666 57 -150.999 57c-34.667 0 -66.167 -6 -94.5 -18s-53.333 -28.5 -75 -49.5s-40.5 -45.5 -56.5 -73.5s-29.333 -58.667 -40 -92l20 -7c25.333 42 55.833 77 91.5 105s71.5 42 107.5 42
c37.333 0 67.833 -12.333 91.5 -37s35.5 -54.334 35.5 -89.001c0 -19.333 -4.16699 -38.666 -12.5 -57.999s-19.166 -37.5 -32.499 -54.5s-27 -32.5 -41 -46.5s-31.667 -30.333 -53 -49l-9 -9c-2.66699 -2 -6.66699 -5.66699 -12 -11l-68.5 -67
c-18.333 -18.667 -35.5 -39.5 -51.5 -62.5s-28.667 -48.333 -38 -76s-14 -57.5 -14 -89.5h419z" />
    <glyph glyph-name="three" unicode="3" 
d="M156 392c28 -8 55.167 -18.8281 81.5 -32.4951s50.333 -30 72 -49s38.834 -40.833 51.501 -65.5s19 -51 19 -79c0 -16.667 -2.33301 -33.834 -7 -51.501s-11.834 -34.334 -21.501 -50.001s-21.667 -28.167 -36 -37.5s-30.5 -14 -48.5 -14c-28.667 0 -49.834 7 -63.501 21
s-25.5 34.333 -35.5 61l-3 7c-9.33301 24.667 -19.333 43.167 -30 55.5s-27 18.5 -49 18.5c-17.333 0 -32 -6.16699 -44 -18.5s-18 -26.5 -18 -42.5c0 -27.333 8.33301 -49.666 25 -66.999s37.834 -30.5 63.501 -39.5s51.5 -15 77.5 -18s51 -4.5 75 -4.5
c70.667 0 126.167 19.5 166.5 58.5s60.5 95.833 60.5 170.5c0 24.667 -5 49 -15 73s-24 45.833 -42 65.5s-38.333 36.5 -61 50.5s-46.334 24 -71.001 30v2c39.333 14 72.833 33.667 100.5 59s41.5 55.666 41.5 90.999c0 47.333 -16.333 85.166 -49 113.499
s-73 42.5 -121 42.5c-53.333 0 -96.666 -14.667 -129.999 -44s-57.333 -70.666 -72 -123.999l21 -7c12 23.333 28.833 42.833 50.5 58.5s44.834 23.5 69.501 23.5c34 0 62.333 -9.83301 85 -29.5s34 -45.834 34 -78.501c0 -20.667 -5.5 -38.834 -16.5 -54.501
s-25.5 -28.834 -43.5 -39.501s-37.333 -18.5 -58 -23.5s-40.334 -7.5 -59.001 -7.5v-24z" />
    <glyph glyph-name="four" unicode="4" 
d="M78 314l203 257h2v-257h-205zM411 248h98v66h-98v428h-33l-341 -422v-72h246v-248h128v248z" />
    <glyph glyph-name="five" unicode="5" 
d="M69 360h12.001c5.33301 0.666992 9.33301 1 12 1c34.667 0 70.5 -3.66699 107.5 -11s71.5 -19 103.5 -35s58.167 -37 78.5 -63s30.5 -56.667 30.5 -92c0 -40.667 -14.333 -75.334 -43 -104.001s-63.667 -43 -105 -43c-32 0 -54.333 7.33301 -67 22s-19 34 -19 58
c0 23.333 -6.83301 44.5 -20.5 63.5s-33.5 28.5 -59.5 28.5c-20 0 -36 -6.5 -48 -19.5s-18 -29.5 -18 -49.5c0 -26 7.33301 -47.667 22 -65s33.667 -30.666 57 -39.999s47.666 -15.833 72.999 -19.5s50.333 -5.5 75 -5.5c75.333 0 134.5 21.5 177.5 64.5
s64.5 98.833 64.5 167.5c0 48 -10.5 88.833 -31.5 122.5s-49.667 61 -86 82s-76.5 37.167 -120.5 48.5s-92.333 20 -145 26l12 119h300l60 122l-8 4c-14.667 -9.33301 -32.667 -14 -54 -14h-320z" />
    <glyph glyph-name="six" unicode="6" 
d="M176 391c18.667 9.33301 34.666 16.334 47.999 21.001s27 7 41 7c26 0 47.167 -7.5 63.5 -22.5s28.833 -34.167 37.5 -57.5s14.334 -47.5 17.001 -72.5s4 -49.833 4 -74.5c0 -20.667 -1.33301 -40.834 -4 -60.501s-7.5 -38.5 -14.5 -56.5s-17.5 -32.833 -31.5 -44.5
s-32 -17.5 -54 -17.5c-27.333 0 -49.666 7.83301 -66.999 23.5s-30.333 35.667 -39 60s-14.334 49.333 -17.001 75s-4 52.5 -4 80.5c0 42.667 6.66699 89 20 139zM468.999 742.001c-63.333 -18 -120.834 -40.334 -172.501 -67.001s-96.667 -59.167 -135 -97.5
s-68 -83.333 -89 -135s-31.5 -110.167 -31.5 -175.5c0 -38 4.66699 -73.667 14 -107s23.666 -63.166 42.999 -89.499s43.666 -47 72.999 -62s63.666 -22.5 102.999 -22.5c72.667 0 130.834 21.833 174.501 65.5s65.5 101.834 65.5 174.501c0 32.667 -5.16699 63 -15.5 91
s-25.166 52.167 -44.499 72.5s-42.666 36.166 -69.999 47.499s-57.666 17 -90.999 17c-19.333 0 -40 -3.16699 -62 -9.5s-39.667 -14.833 -53 -25.5l-2 2c24 68 62.5 129.333 115.5 184s112.833 94.667 179.5 120z" />
    <glyph glyph-name="seven" unicode="7" 
d="M69 573l19.001 -7.00098c11.333 20 26.333 33.333 45 40s43 10 73 10h238v-15c-40 -53.333 -75.167 -102.5 -105.5 -147.5s-58.833 -91.833 -85.5 -140.5s-49.834 -99.167 -69.501 -151.5s-34.5 -106.166 -44.5 -161.499h138c16 123.333 43.833 242.833 83.5 358.5
s91.5 221.5 155.5 317.5v52h-368z" />
    <glyph glyph-name="eight" unicode="8" 
d="M192 346c10.667 -7.33301 30.6719 -19.332 60.0049 -35.999c25.333 -14.667 46.166 -27.167 62.499 -37.5s32.166 -22.333 47.499 -36s27.666 -28.834 36.999 -45.501s14 -34.667 14 -54c0 -40.667 -13.333 -71.5 -40 -92.5s-61.334 -31.5 -104.001 -31.5
c-101.333 0 -152 51.333 -152 154c0 30 7.16699 61.833 21.5 95.5s32.166 61.5 53.499 83.5zM340.005 422.001l-3 1l-65 34.5c-18.667 10.333 -37.167 22.833 -55.5 37.5s-33.5 31 -45.5 49s-18 37.333 -18 58c0 37.333 11.833 65.5 35.5 84.5s54.5 28.5 92.5 28.5
c43.333 0 77.5 -12.833 102.5 -38.5s37.5 -60.167 37.5 -103.5c0 -32.667 -6.5 -62 -19.5 -88s-33.5 -47 -61.5 -63zM516.005 193.001c0 44.667 -13.499 85.832 -40.499 123.499s-61.5 66.834 -103.5 87.501c37.333 20 67.5 43.333 90.5 70s34.5 58 34.5 94
c0 24.667 -6 47.834 -18 69.501s-28 40.334 -48 56.001s-42.167 27.667 -66.5 36s-48.833 12.5 -73.5 12.5c-30.667 0 -59.834 -3.66699 -87.501 -11s-52.5 -18.833 -74.5 -34.5s-39.333 -35.834 -52 -60.501s-19 -53.667 -19 -87c0 -16.667 3 -33.834 9 -51.501
s14 -34.834 24 -51.501s21.333 -31.834 34 -45.501s26 -24.834 40 -33.501v-2c-37.333 -24 -67.333 -52.167 -90 -84.5s-34 -68.833 -34 -109.5c0 -31.333 6.16699 -58.666 18.5 -81.999s29 -42.666 50 -57.999s45.167 -26.666 72.5 -33.999s56 -11 86 -11
c34 0 65.833 4.16699 95.5 12.5s56 21 79 38s41 38.667 54 65s19.5 56.833 19.5 91.5z" />
    <glyph glyph-name="nine" unicode="9" 
d="M381 491c0 -40.667 -1.00293 -72.667 -3.00293 -96s-6.16699 -41.666 -12.5 -54.999s-15.333 -22.833 -27 -28.5s-27.5 -8.5 -47.5 -8.5c-25.333 0 -46.833 6.16699 -64.5 18.5s-31.667 28.5 -42 48.5s-17.666 41.667 -21.999 65s-6.5 46.666 -6.5 69.999
c0 22.667 1.16699 45.5 3.5 68.5s7.33301 45.333 15 67s19 39.5 34 53.5s34.5 21 58.5 21c24.667 0 44.834 -7.5 60.501 -22.5s27.334 -34.167 35.001 -57.5s12.667 -47 15 -71s3.5 -48.333 3.5 -73zM67.9971 -14c65.333 16 124.334 36.167 177.001 60.5s98.667 55 138 92
s70 81.667 92 134s33 112.833 33 181.5c0 38.667 -4.33301 75 -13 109s-22.334 64.5 -41.001 91.5s-42.667 48.333 -72 64s-63.666 23.5 -102.999 23.5c-72 0 -129.667 -23 -173 -69s-65 -105.667 -65 -179c0 -69.333 19.167 -124.333 57.5 -165s91.833 -61 160.5 -61
c27.333 0 59.666 6 96.999 18c-7.33301 -34.667 -20.333 -67 -39 -97s-41.5 -57.167 -68.5 -81.5s-56.333 -45 -88 -62s-64.5 -30.5 -98.5 -40.5z" />
    <glyph glyph-name="colon" unicode=":" horiz-adv-x="278" 
d="M216 63c0 21.333 -7.5 39.5 -22.5 54.5s-33.167 22.5 -54.5 22.5s-39.5 -7.5 -54.5 -22.5s-22.5 -33.167 -22.5 -54.5s7.5 -39.5 22.5 -54.5s33.167 -22.5 54.5 -22.5s39.5 7.5 54.5 22.5s22.5 33.167 22.5 54.5zM216 381c0 21.333 -7.5 39.5 -22.5 54.5
s-33.167 22.5 -54.5 22.5s-39.5 -7.5 -54.5 -22.5s-22.5 -33.167 -22.5 -54.5s7.5 -39.5 22.5 -54.5s33.167 -22.5 54.5 -22.5s39.5 7.5 54.5 22.5s22.5 33.167 22.5 54.5z" />
    <glyph glyph-name="semicolon" unicode=";" horiz-adv-x="278" 
d="M92 -161c38 26 68.1699 56.501 90.5029 91.501s33.5 73.167 33.5 114.5c0 28 -7.5 50.667 -22.5 68s-37.5 26 -67.5 26c-18.667 -2 -33.834 -9.33301 -45.501 -22s-17.5 -28.667 -17.5 -48c0 -16 3.5 -29.333 10.5 -40s16.833 -20.667 29.5 -30l15 -9
c9.33301 -5.33301 16.166 -10 20.499 -14s6.5 -8.66699 6.5 -14c0 -7.33301 -3 -16.333 -9 -27s-13.167 -21.334 -21.5 -32.001s-16.333 -20.167 -24 -28.5s-12.834 -13.5 -15.501 -15.5zM216.003 381.001c0 21.333 -7.5 39.5 -22.5 54.5s-33.167 22.5 -54.5 22.5
s-39.5 -7.5 -54.5 -22.5s-22.5 -33.167 -22.5 -54.5s7.5 -39.5 22.5 -54.5s33.167 -22.5 54.5 -22.5s39.5 7.5 54.5 22.5s22.5 33.167 22.5 54.5z" />
    <glyph glyph-name="less" unicode="&#x3c;" horiz-adv-x="600" 
d="M554 43l-404 179l404 179v82l-508 -225v-72l508 -225v82z" />
    <glyph glyph-name="equal" unicode="=" horiz-adv-x="600" 
d="M521 347h-442v-72h442v72zM521 169h-442v-72h442v72z" />
    <glyph glyph-name="greater" unicode="&#x3e;" horiz-adv-x="600" 
d="M46 43v-82l508 225v72l-508 225v-82l404 -179z" />
    <glyph glyph-name="question" unicode="?" 
d="M221 199l15 114.002c28 -4.66699 51.667 -7 71 -7c69.333 0 122.666 17.667 159.999 53s56 86.666 56 153.999c0 72.667 -23.333 129 -70 169s-106.667 60 -180 60c-20.667 0 -42.667 -1.66699 -66 -5s-46 -9.33301 -68 -18s-40.333 -20.834 -55 -36.501
s-22 -34.834 -22 -57.501s6.5 -40.667 19.5 -54s30.833 -20 53.5 -20c20.667 0 37 5 49 15s25.333 25.667 40 47c6.66699 10 11.667 17 15 21c11.333 14.667 25.666 27.334 42.999 38.001s34 16 50 16c44 0 80.5 -12.667 109.5 -38s43.5 -60 43.5 -104
s-14.667 -77.5 -44 -100.5s-66.666 -34.5 -111.999 -34.5c-28.667 0 -56.667 6 -84 18s-52.666 28 -75.999 48l-14 -7l33 -271h33zM279 63.002c0 21.333 -7.5 39.5 -22.5 54.5s-33.167 22.5 -54.5 22.5s-39.5 -7.5 -54.5 -22.5s-22.5 -33.167 -22.5 -54.5
s7.5 -39.5 22.5 -54.5s33.167 -22.5 54.5 -22.5s39.5 7.5 54.5 22.5s22.5 33.167 22.5 54.5z" />
    <glyph glyph-name="at" unicode="@" horiz-adv-x="800" 
d="M516 436c-6.66699 -70 -22.667 -124.665 -48 -163.998s-51.333 -59 -78 -59c-18 0 -32.667 7.66699 -44 23s-17 37.666 -17 66.999s4.66699 56.666 14 81.999s21.5 47 36.5 65s30.667 31.833 47 41.5s30.833 14.5 43.5 14.5c30.667 0 46 -23.333 46 -70zM535 505.002
l-0.00292969 0.996094c-10 17.333 -20 30.666 -30 39.999s-25.333 14 -46 14c-34.667 0 -65.667 -9.33301 -93 -28s-50 -42.167 -68 -70.5s-31.667 -57.666 -41 -87.999s-14 -56.833 -14 -79.5c0 -27.333 3.66699 -50.166 11 -68.499s16.666 -32.166 27.999 -41.499
s22.666 -15.833 33.999 -19.5s22.333 -5.5 33 -5.5c14.667 0 29 2.83301 43 8.5s26.667 13 38 22s20.833 17.667 28.5 26s13.167 15.5 16.5 21.5h2c0 -5.33301 2 -12.333 6 -21s9.83301 -17.5 17.5 -26.5s17.834 -16.5 30.501 -22.5s27.334 -9 44.001 -9
c31.333 0 59.833 8 85.5 24s47.334 37.167 65.001 63.5s31 54.833 40 85.5s13.5 60 13.5 88c0 45.333 -9.16699 87.833 -27.5 127.5s-44 74.167 -77 103.5s-71.333 52 -115 68s-90.5 24 -140.5 24c-54 0 -105.167 -9.5 -153.5 -28.5s-91.166 -46 -128.499 -81
s-66.333 -77 -87 -126s-31 -102.167 -31 -159.5c0 -38.667 8.33301 -79 25 -121s42 -81.167 76 -117.5s77.167 -65.833 129.5 -88.5s112.5 -34 180.5 -34c39.333 0 77.333 5.66699 114 17s75 27.333 115 48l-13 42c-37.333 -18 -71.666 -31.333 -102.999 -40
s-69.333 -13 -114 -13c-42.667 0 -82.834 7.83301 -120.501 23.5s-70.5 37.5 -98.5 65.5s-49.667 59.833 -65 95.5s-23 72.834 -23 111.501c0 58.667 8 110.667 24 156s38 82.833 66 112.5s59.833 51.834 95.5 66.501s72.834 22 111.501 22c46 0 88 -8.16699 126 -24.5
s70.167 -38 96.5 -65s46.333 -56.833 60 -89.5s20.5 -64.667 20.5 -96c0 -23.333 -3.16699 -47.833 -9.5 -73.5s-15.333 -49.5 -27 -71.5s-25.5 -39.667 -41.5 -53s-33.333 -20 -52 -20c-14 0 -24 4.83301 -30 14.5s-9 21.167 -9 34.5c0 8 1 15.333 3 22l68 274h-77z" />
    <glyph glyph-name="A" unicode="A" horiz-adv-x="889" 
d="M253 0l0.00195312 27.0049c-58 0 -87 14.333 -87 43c0 6 2.16699 15.833 6.5 29.5s9.83301 28.167 16.5 43.5l31 74h322l37 -75l5 -10c7.33301 -14 13.166 -26.167 17.499 -36.5s6.5 -19.5 6.5 -27.5c0 -12.667 -6.66699 -22.667 -20 -30s-36.333 -11 -69 -11v-27h352v27
c-32.667 3.33301 -56.167 9.16602 -70.5 17.499s-28.166 26.833 -41.499 55.5l-301 621c-4.66699 9.33301 -7.83398 15.166 -9.50098 17.499s-3.83398 3.5 -6.50098 3.5c-3.33301 0 -8 -3.66699 -14 -11c-12 -15.333 -25.333 -30 -40 -44s-32.667 -30 -54 -48
c4.66699 -1.33301 8.5 -4.83301 11.5 -10.5s6.16699 -12.834 9.5 -21.501v-1l-188 -419c-14 -30.667 -25.5 -54.834 -34.5 -72.501s-18.667 -32.167 -29 -43.5s-22 -20.333 -35 -27s-29.5 -12.334 -49.5 -17.001v-27h234zM373.002 563.005l149 -311h-289z" />
    <glyph glyph-name="B" unicode="B" horiz-adv-x="778" 
d="M279 376h67.002c32.667 0 61.667 -3 87 -9s47.5 -15.833 66.5 -29.5s33.5 -32 43.5 -55s15 -51.167 15 -84.5c0 -58 -13.833 -101 -41.5 -129s-70.834 -42 -129.501 -42c-18 0 -32.833 0.5 -44.5 1.5s-21.834 3.16699 -30.501 6.5c-22 8.66699 -33 26 -33 52v289z
M279.002 660c0 19.333 2.83301 31 8.5 35s20.5 6 44.5 6c68 0 116.833 -10 146.5 -30s44.5 -56 44.5 -108c0 -49.333 -12.833 -88 -38.5 -116s-63.5 -42.667 -113.5 -44h-92v257zM134.002 122c0 -22.667 -0.999023 -39.9971 -2.99902 -51.9971s-6 -21 -12 -27
s-14.667 -10 -26 -12s-28.333 -3.33301 -51 -4v-27h361c42 0 80.667 2.5 116 7.5s67.666 14.167 96.999 27.5s52.833 33 70.5 59s26.5 59 26.5 99c0 29.333 -6.16699 55.166 -18.5 77.499s-29 41.166 -50 56.499s-44.167 27.833 -69.5 37.5s-52 17.167 -80 22.5v2
c50 8.66699 91.833 27.167 125.5 55.5s50.5 66.166 50.5 113.499c0 34.667 -9.66699 63.5 -29 86.5s-44.5 40.5 -75.5 52.5s-64 20.167 -99 24.5s-70.5 6.5 -106.5 6.5h-319v-27c22 0 38.833 -1 50.5 -3s20.5 -6.16699 26.5 -12.5s10 -15.5 12 -27.5s3 -29.333 3 -52v-484z
" />
    <glyph glyph-name="C" unicode="C" horiz-adv-x="833" 
d="M778 732l-24.9961 0.000976562l-2 -5c-5.33301 -10.667 -11 -18.667 -17 -24s-15.667 -8 -29 -8c-19.333 0 -36 1.5 -50 4.5s-30.333 7.83301 -49 14.5c-5.33301 1.33301 -10.666 3 -15.999 5c-22.667 7.33301 -47.334 13 -74.001 17s-61.334 6 -104.001 6
c-50 0 -98 -9.66699 -144 -29s-87 -46.5 -123 -81.5s-64.167 -75.5 -84.5 -121.5s-30.5 -94.667 -30.5 -146s10.167 -100 30.5 -146s48.5 -86.5 84.5 -121.5s77 -62.167 123 -81.5s94 -29 144 -29c39.333 0 75 2.33301 107 7s59.667 10.334 83 17.001l50 16
c26.667 8.66699 42.334 13 47.001 13c10.667 0 20.334 -4.5 29.001 -13.5s18.667 -22.167 30 -39.5h16v262h-23c-7.33301 -20 -19.666 -42.833 -36.999 -68.5s-40 -51.334 -68 -77.001s-61.833 -47 -101.5 -64s-83.834 -25.5 -132.501 -25.5
c-41.333 0 -76.833 10.333 -106.5 31s-53.334 48 -71.001 82s-30.334 71.5 -38.001 112.5s-11.5 82.833 -11.5 125.5c0 51.333 4.33301 98 13 140s23 78.667 43 110s47.5 56 82.5 74s77.833 27 128.5 27c32.667 0 64.167 -6.33301 94.5 -19s58.166 -29.834 83.499 -51.501
s47.666 -46.167 66.999 -73.5s35.666 -56 48.999 -86h32v247z" />
    <glyph glyph-name="D" unicode="D" horiz-adv-x="889" 
d="M278 664c0 8.66699 0.998047 15.168 2.99805 19.501s6.66699 7.83301 14 10.5s18.833 4.5 34.5 5.5s38.5 1.5 68.5 1.5c44.667 0 85.167 -8.5 121.5 -25.5s67.333 -40.667 93 -71s45.334 -66.166 59.001 -107.499s20.5 -85.666 20.5 -132.999
c0 -48.667 -6 -93.334 -18 -134.001s-30.167 -76.334 -54.5 -107.001s-55 -54.334 -92 -71.001s-80.167 -25 -129.5 -25c-26.667 0 -47.5 1 -62.5 3s-26.667 6 -35 12s-14.166 15.167 -17.499 27.5s-5 29.833 -5 52.5v542zM43.998 728.001l0.000976562 -27
c21.333 0 37.666 -1 48.999 -3s19.833 -6.16699 25.5 -12.5s9.5 -15.333 11.5 -27s3 -29.167 3 -52.5v-484c0 -23.333 -1 -40.833 -3 -52.5s-5.83301 -20.5 -11.5 -26.5s-14 -10 -25 -12s-27.5 -3.33301 -49.5 -4v-27h421c54 0 104.333 8.5 151 25.5
s87.334 41.333 122.001 73s61.5 70 80.5 115s28.5 95.167 28.5 150.5c0 54 -10.833 103.5 -32.5 148.5s-51.334 83.667 -89.001 116s-80.667 57 -129 74s-98.5 25.5 -150.5 25.5h-402z" />
    <glyph glyph-name="E" unicode="E" horiz-adv-x="778" 
d="M133 122c0 -22.667 -0.830078 -39.998 -2.49707 -51.998s-5 -21 -10 -27s-12 -10 -21 -12s-22.5 -3.33301 -40.5 -4v-27h621l56 199l-22 12l-7 -10c-28 -38.667 -49.667 -67.334 -65 -86.001s-32.666 -34.667 -51.999 -48s-42.333 -23.333 -69 -30s-60 -10 -100 -10h-105
c-16.667 0 -27.167 3.16699 -31.5 9.5s-6.5 19.5 -6.5 39.5v286h58c73.333 0 126.166 -13 158.499 -39s51.166 -68 56.499 -126h24v339h-24c-2.66699 -27.333 -10.334 -50.5 -23.001 -69.5s-29 -34.167 -49 -45.5s-42.167 -19.5 -66.5 -24.5s-49.833 -7.5 -76.5 -7.5h-58
v312h164c50.667 0 94 -12.833 130 -38.5s79 -69.834 129 -132.501l18 7l-76 191h-584v-27c17.333 0 30.666 -1 39.999 -3s16.5 -6.16699 21.5 -12.5s8.33301 -15.5 10 -27.5s2.5 -29.333 2.5 -52v-484z" />
    <glyph glyph-name="F" unicode="F" horiz-adv-x="778" 
d="M665 728l-626.998 -0.00195312v-27c24.667 0 43.5 -1 56.5 -3s22.833 -6.16699 29.5 -12.5s11 -15.333 13 -27s3 -29.167 3 -52.5v-484c0 -23.333 -1 -40.833 -3 -52.5s-6.33301 -20.5 -13 -26.5s-16.334 -10 -29.001 -12s-31.667 -3.33301 -57 -4v-27h361v27
c-28 0 -49.333 1.16699 -64 3.5s-25.5 6.5 -32.5 12.5s-11.667 14.833 -14 26.5s-3.5 29.167 -3.5 52.5v235h43c31.333 0 59.666 -1.5 84.999 -4.5s49.166 -9.16699 71.499 -18.5s41 -23.666 56 -42.999s24.833 -44.666 29.5 -75.999h24v320h-24
c-3.33301 -33.333 -12.166 -60.333 -26.499 -81s-32.5 -36 -54.5 -46s-45.667 -16.5 -71 -19.5s-55.333 -4.5 -90 -4.5h-43v276c0 19.333 3.83301 31 11.5 35s30.167 6 67.5 6c84 0 154.5 -11.5 211.5 -34.5s104.833 -66.5 143.5 -130.5l17 6z" />
    <glyph glyph-name="G" unicode="G" horiz-adv-x="833" 
d="M520 336l0.00390625 -27.001c25.333 0 44.333 -1 57 -3s22.167 -6 28.5 -12s10.666 -14.833 12.999 -26.5s3.5 -29.5 3.5 -53.5c0 -42.667 -3.16699 -76.667 -9.5 -102s-17.166 -45.333 -32.499 -60s-36.166 -24.834 -62.499 -30.501s-61.5 -8.5 -105.5 -8.5
c-41.333 0 -76.833 10.333 -106.5 31s-53.334 48 -71.001 82s-30.334 71.5 -38.001 112.5s-11.5 82.833 -11.5 125.5c0 51.333 4.33301 98 13 140s23 78.667 43 110s47.5 56 82.5 74s77.833 27 128.5 27c55.333 0 105.166 -20 149.499 -60s86.166 -97 125.499 -171h24v239
h-27v0c-6.66699 -17.333 -11.834 -29.166 -15.501 -35.499s-8.5 -9.5 -14.5 -9.5c-10.667 0 -22.167 2 -34.5 6s-29.166 10.333 -50.499 19l-16 6c-24.667 10 -51.5 18 -80.5 24s-62.5 9 -100.5 9c-50 0 -98 -9.66699 -144 -29s-87 -46.5 -123 -81.5
s-64.167 -75.5 -84.5 -121.5s-30.5 -94.667 -30.5 -146s10.167 -100 30.5 -146s48.5 -86.5 84.5 -121.5s77 -62.167 123 -81.5s94 -29 144 -29c34 0 66.167 0.833008 96.5 2.5s61.166 5.33398 92.499 11.001s61.166 14.5 89.499 26.5s51.833 27.667 70.5 47v188
c0 18 3.83301 30.5 11.5 37.5s21.834 10.5 42.501 10.5v27h-295z" />
    <glyph glyph-name="H" unicode="H" horiz-adv-x="944" 
d="M667 368v-246c0 -23.333 -1 -40.833 -3 -52.5s-6.33301 -20.5 -13 -26.5s-16.334 -10 -29.001 -12s-31.667 -3.33301 -57 -4v-27h339v27c-22 0 -38.833 1.16699 -50.5 3.5s-20.5 6.5 -26.5 12.5s-10 15 -12 27s-3 29.333 -3 52v484c0 22.667 1 40 3 52s6 21.167 12 27.5
s14.667 10.5 26 12.5s28.333 3 51 3v27h-339v-27c24.667 0 43.5 -1 56.5 -3s22.833 -6.16699 29.5 -12.5s11 -15.333 13 -27s3 -29.167 3 -52.5v-203h-389v203c0 23.333 1 40.833 3 52.5s6.33301 20.667 13 27s16.334 10.5 29.001 12.5s31.667 3 57 3v27h-339v-27
c22 0 38.833 -1 50.5 -3s20.5 -6.16699 26.5 -12.5s10 -15.5 12 -27.5s3 -29.333 3 -52v-484c0 -22.667 -1 -40 -3 -52s-6 -21 -12 -27s-14.667 -10 -26 -12s-28.333 -3.33301 -51 -4v-27h339v27c-24.667 0 -43.5 1.16699 -56.5 3.5s-22.833 6.5 -29.5 12.5
s-11 14.833 -13 26.5s-3 29.167 -3 52.5v246h389z" />
    <glyph glyph-name="I" unicode="I" horiz-adv-x="444" 
d="M150 122c0 -23.333 -1 -40.833 -3 -52.5s-6.33301 -20.5 -13 -26.5s-16.334 -10 -29.001 -12s-31.667 -3.33301 -57 -4v-27h349v27c-24.667 0 -43.5 1.16699 -56.5 3.5s-22.833 6.5 -29.5 12.5s-11 14.833 -13 26.5s-3 29.167 -3 52.5v484c0 23.333 1 40.833 3 52.5
s6.33301 20.667 13 27s16.334 10.5 29.001 12.5s31.667 3 57 3v27h-349v-27c24.667 0 43.5 -1 56.5 -3s22.833 -6.16699 29.5 -12.5s11 -15.333 13 -27s3 -29.167 3 -52.5v-484z" />
    <glyph glyph-name="J" unicode="J" horiz-adv-x="500" 
d="M226 60c0 -13.333 -4.66992 -24.499 -14.0029 -33.499s-24.333 -13.5 -45 -13.5c-13.333 0 -22.666 3.33301 -27.999 10s-9 19.667 -11 39c-1.33301 13.333 -3 25.5 -5 36.5s-5.66699 21.833 -11 32.5s-12.666 19.5 -21.999 26.5s-21 10.5 -35 10.5
c-21.333 0 -38.666 -5.33301 -51.999 -16s-20 -27.334 -20 -50.001c0 -20.667 4.33301 -38.334 13 -53.001s20.167 -26.667 34.5 -36s30.5 -16.166 48.5 -20.499s36.667 -6.5 56 -6.5c72.667 0 130.167 21.167 172.5 63.5s63.5 98.5 63.5 168.5v388
c0 23.333 1 40.833 3 52.5s5.66699 20.667 11 27s13 10.5 23 12.5s24.667 3 44 3v27h-328v-27c24.667 0 43.5 -1 56.5 -3s22.833 -6.16699 29.5 -12.5s11 -15.333 13 -27s3 -29.167 3 -52.5v-546z" />
    <glyph glyph-name="K" unicode="K" horiz-adv-x="778" 
d="M133 122c0 -23.333 -1.00293 -40.834 -3.00293 -52.501s-6.33301 -20.5 -13 -26.5s-16.334 -10 -29.001 -12s-31.667 -3.33301 -57 -4v-27h349v27c-24.667 0 -43.5 1.16699 -56.5 3.5s-22.833 6.5 -29.5 12.5s-11 14.833 -13 26.5s-3 29.167 -3 52.5v172l40 43l236 -337
h234v27c-37.333 0 -64.166 5.66699 -80.499 17s-36.166 33.333 -59.499 66c-0.666992 0.666992 -2.66699 3.33398 -6 8.00098l-237 331l111 144c22.667 29.333 39.334 50 50.001 62s21.167 21.333 31.5 28s22 11.167 35 13.5s32.5 3.83301 58.5 4.5v27h-225v-27
c22 0 37.667 -1.83301 47 -5.5s14 -11.5 14 -23.5c0 -4.66699 -1.5 -10.667 -4.5 -18s-6.83301 -15 -11.5 -23s-9.5 -15.333 -14.5 -22s-9.16699 -12 -12.5 -16l-204 -255h-2v268c0 23.333 1 40.833 3 52.5s6.33301 20.667 13 27s16.334 10.5 29.001 12.5s31.667 3 57 3v27
h-349v-27c24.667 0 43.5 -1 56.5 -3s22.833 -6.16699 29.5 -12.5s11 -15.333 13 -27s3 -29.167 3 -52.5v-484z" />
    <glyph glyph-name="L" unicode="L" horiz-adv-x="778" 
d="M135 122c0 -23.333 -1 -40.832 -3 -52.499s-6.33301 -20.5 -13 -26.5s-16.334 -10 -29.001 -12s-31.667 -3.33301 -57 -4v-27h664l59 213l-25 3c-22.667 -40.667 -44.5 -73.167 -65.5 -97.5s-43.5 -43 -67.5 -56s-51.5 -22.167 -82.5 -27.5s-70.167 -8 -117.5 -8
c-28 0 -49.167 1.16699 -63.5 3.5s-25.5 6.66602 -33.5 12.999s-13.5 15.5 -16.5 27.5s-4.5 29 -4.5 51v484c0 23.333 1 40.833 3 52.5s6.33301 20.667 13 27s16.334 10.5 29.001 12.5s31.667 3 57 3v27h-349v-27c24.667 0 43.5 -1 56.5 -3s22.833 -6.16699 29.5 -12.5
s11 -15.333 13 -27s3 -29.167 3 -52.5v-484z" />
    <glyph glyph-name="M" unicode="M" horiz-adv-x="1000" 
d="M717 650l3.99902 -0.00195312v-528c0 -23.333 -1 -40.833 -3 -52.5s-6.33301 -20.5 -13 -26.5s-16.334 -10 -29.001 -12s-31.667 -3.33301 -57 -4v-27h349v27c-24.667 0 -43.5 1.16699 -56.5 3.5s-22.833 6.5 -29.5 12.5s-11 14.833 -13 26.5s-3 29.167 -3 52.5v484
c0 23.333 1 40.833 3 52.5s6.33301 20.667 13 27s16.334 10.5 29.001 12.5s31.667 3 57 3v27h-257l-210 -520l-212 520h-250v-27c4.66699 -0.666992 7.66699 -1 9 -1c9.33301 0 18.5 -0.666992 27.5 -2s17.833 -3.16602 26.5 -5.49902s15.834 -5.66602 21.501 -9.99902
s8.5 -9.83301 8.5 -16.5v-545c0 -58.667 -32.667 -90 -98 -94v-27h252v27c-36 0 -64.333 7.16699 -85 21.5s-31 38.5 -31 72.5v518h2l262 -640h17z" />
    <glyph glyph-name="N" unicode="N" horiz-adv-x="944" 
d="M170 660l2.99902 -0.00195312l602 -674h40v621c0 39.333 6.5 64.833 19.5 76.5s37.833 17.5 74.5 17.5v27h-245v-27c42.667 0 72.167 -6.33301 88.5 -19s24.5 -37.667 24.5 -75v-411l-469 532h-269v-27c4.66699 -0.666992 7.66699 -1 9 -1
c9.33301 0 18.5 -0.666992 27.5 -2s17.833 -3.16602 26.5 -5.49902s15.834 -5.66602 21.501 -9.99902s8.5 -9.83301 8.5 -16.5v-545c0 -58.667 -32.667 -90 -98 -94v-27h252v27c-36 0 -64.333 7.16699 -85 21.5s-31 38.5 -31 72.5v539z" />
    <glyph glyph-name="O" unicode="O" horiz-adv-x="833" 
d="M643 364c0 -43.333 -3.83301 -85.333 -11.5 -126s-20.334 -78 -38.001 -112s-41.167 -61.333 -70.5 -82s-64.666 -31 -105.999 -31s-76.833 10.333 -106.5 31s-53.334 48 -71.001 82s-30.334 71.5 -38.001 112.5s-11.5 82.833 -11.5 125.5s3.83301 84.5 11.5 125.5
s20.334 78.5 38.001 112.5s41.334 61.333 71.001 82s65.167 31 106.5 31s76.833 -10.333 106.5 -31s53.167 -48 70.5 -82s29.833 -71.333 37.5 -112s11.5 -82.667 11.5 -126zM798 364c0 51.333 -10.167 100 -30.5 146s-48.5 86.5 -84.5 121.5s-77 62.167 -123 81.5
s-93.667 29 -143 29c-50 0 -98 -9.66699 -144 -29s-87 -46.5 -123 -81.5s-64.167 -75.5 -84.5 -121.5s-30.5 -94.667 -30.5 -146s10.167 -100 30.5 -146s48.5 -86.5 84.5 -121.5s77 -62.167 123 -81.5s94 -29 144 -29c49.333 0 97 9.66699 143 29s87 46.5 123 81.5
s64.167 75.5 84.5 121.5s30.5 94.667 30.5 146z" />
    <glyph glyph-name="P" unicode="P" horiz-adv-x="722" 
d="M130 122c0 -23.333 -1 -40.833 -3 -52.5s-6.33301 -20.5 -13 -26.5s-16.334 -10 -29.001 -12s-31.667 -3.33301 -57 -4v-27h361v27c-28 0 -49.333 1.16699 -64 3.5s-25.5 6.5 -32.5 12.5s-11.667 14.833 -14 26.5s-3.5 29.167 -3.5 52.5v231h169c46 0 85 4.33301 117 13
s57.5 20.667 76.5 36s32.5 32.5 40.5 51.5s12 39.833 12 62.5c0 70 -28.667 122.833 -86 158.5s-140.666 53.5 -249.999 53.5h-326v-27c24.667 0 43.5 -1 56.5 -3s22.833 -6.16699 29.5 -12.5s11 -15.333 13 -27s3 -29.167 3 -52.5v-484zM275 627
c0 18.667 0.833008 32.667 2.5 42s5.16699 16.333 10.5 21s12.833 7.66699 22.5 9s24.834 2 45.501 2c57.333 0 103.166 -12.333 137.499 -37s51.5 -64 51.5 -118c0 -50.667 -15 -91 -45 -121s-73 -45 -129 -45h-96v247z" />
    <glyph glyph-name="Q" unicode="Q" horiz-adv-x="833" 
d="M643 364c0 -43.333 -3.83301 -85.333 -11.5 -126s-20.334 -78 -38.001 -112s-41.167 -61.333 -70.5 -82s-64.666 -31 -105.999 -31s-76.833 10.333 -106.5 31s-53.334 48 -71.001 82s-30.334 71.5 -38.001 112.5s-11.5 82.833 -11.5 125.5s3.83301 84.5 11.5 125.5
s20.334 78.5 38.001 112.5s41.334 61.333 71.001 82s65.167 31 106.5 31s76.833 -10.333 106.5 -31s53.167 -48 70.5 -82s29.833 -71.333 37.5 -112s11.5 -82.667 11.5 -126zM754 -82c-31.333 -9.33301 -67.999 -14.001 -109.999 -14.001c-41.333 0 -72 7.16699 -92 21.5
s-33.333 38.833 -40 73.5c40 10.667 77.333 27.5 112 50.5s65.167 50.667 91.5 83s46.666 68.333 60.999 108s21.5 80.834 21.5 123.501c0 51.333 -10.167 100 -30.5 146s-48.5 86.5 -84.5 121.5s-77 62.167 -123 81.5s-93.667 29 -143 29c-50 0 -98 -9.66699 -144 -29
s-87 -46.5 -123 -81.5s-64.167 -75.5 -84.5 -121.5s-30.5 -94.667 -30.5 -146c0 -41.333 6.83301 -81.166 20.5 -119.499s32.667 -73.5 57 -105.5s53 -59.5 86 -82.5s68.167 -40.5 105.5 -52.5c21.333 -56 53 -94.833 95 -116.5s95.333 -32.5 160 -32.5
c29.333 0 61.5 3.66699 96.5 11s69.833 17.666 104.5 30.999z" />
    <glyph glyph-name="R" unicode="R" horiz-adv-x="833" 
d="M273 701h70.998c62.667 0 110.334 -13.167 143.001 -39.5s49 -66.5 49 -120.5s-16.167 -93.833 -48.5 -119.5s-80.166 -39.167 -143.499 -40.5h-71v320zM127.998 122c0 -22.667 -0.998047 -40 -2.99805 -52s-5.83301 -21 -11.5 -27s-13.834 -10 -24.501 -12
s-27 -3.33301 -49 -4v-27h334v27c-24 0 -42.5 1.16699 -55.5 3.5s-22.833 6.5 -29.5 12.5s-11 14.833 -13 26.5s-3 29.167 -3 52.5v232h85c16.667 0 30.667 -6.16699 42 -18.5s23.333 -30.833 36 -55.5l143 -280h237v27c-31.333 0 -53.5 3.16699 -66.5 9.5
s-23.167 15.5 -30.5 27.5l-169 276c-6.66699 10.667 -18.334 19.667 -35.001 27v3c21.333 2 42 6.5 62 13.5s38 16.5 54 28.5s28.833 26.833 38.5 44.5s14.5 37.5 14.5 59.5c0 66.667 -27.833 118.667 -83.5 156s-141.167 56 -256.5 56h-304v-27c21.333 0 37.5 -1 48.5 -3
s19.333 -6.16699 25 -12.5s9.5 -15.5 11.5 -27.5s3 -29.333 3 -52v-484z" />
    <glyph glyph-name="S" unicode="S" horiz-adv-x="667" 
d="M559 736l-21.9961 -0.00585938c-5.33301 -8.66699 -12.833 -16.167 -22.5 -22.5s-19.5 -9.5 -29.5 -9.5c-4 0 -14 2.66699 -30 8l-35 11c-40.667 12.667 -81.334 19 -122.001 19c-30.667 0 -59.834 -4.5 -87.501 -13.5s-52.5 -22.333 -74.5 -40
s-39.167 -39.334 -51.5 -65.001s-18.5 -54.5 -18.5 -86.5c0 -31.333 5.83301 -59.166 17.5 -83.499s27.5 -45.166 47.5 -62.499s42 -32.166 66 -44.499s52.333 -25.166 85 -38.499l26 -10c32 -13.333 57.833 -24.666 77.5 -33.999s38.167 -20.166 55.5 -32.499
s31 -26.833 41 -43.5s15 -36 15 -58c0 -36 -16.5 -64.5 -49.5 -85.5s-72.167 -31.5 -117.5 -31.5c-32 0 -60.333 6 -85 18s-46.334 28.5 -65.001 49.5s-35 44.5 -49 70.5s-28 57 -42 93h-22v-256h30c8 8.66699 15.5 15.667 22.5 21s13.167 8 18.5 8s21 -3 47 -9
c6.66699 -2 16 -4.33301 28 -7c24 -4.66699 45.167 -8.33398 63.5 -11.001s36.166 -4 53.499 -4c41.333 0 78.666 3.83301 111.999 11.5s62.333 20.334 87 38.001s43.667 41.334 57 71.001s20 65.5 20 107.5c0 31.333 -5.83301 59 -17.5 83s-27.667 44.833 -48 62.5
s-42.833 33 -67.5 46s-53 25.833 -85 38.5c-6 2.66699 -18 7.33398 -36 14.001c-31.333 12.667 -56.666 23.334 -75.999 32.001s-37.166 18.667 -53.499 30s-29.333 24.166 -39 38.499s-14.5 30.5 -14.5 48.5c0 34 13.333 60.5 40 79.5s57 28.5 91 28.5
c29.333 0 56.666 -6.83301 81.999 -20.5s47.833 -31.834 67.5 -54.501s36.667 -47.5 51 -74.5s25.5 -54.167 33.5 -81.5h25v252z" />
    <glyph glyph-name="T" unicode="T" horiz-adv-x="778" 
d="M462 655c0 17.333 2.33203 29.333 6.99902 36s14.667 10 30 10c54.667 0 102.667 -16 144 -48s77 -74.667 107 -128l23 6l-44 213h-38c-4 -6.66699 -10.833 -11 -20.5 -13s-21.167 -3 -34.5 -3h-493c-12.667 0 -24 1 -34 3s-17 6.33301 -21 13h-38l-44 -213l23 -6
c30 53.333 65.667 96 107 128s89.333 48 144 48c15.333 0 25.333 -3.33301 30 -10s7 -18.667 7 -36v-533c0 -23.333 -1.16699 -40.833 -3.5 -52.5s-7.16602 -20.5 -14.499 -26.5s-18 -10 -32 -12s-35.333 -3.33301 -64 -4v-27h373v27c-28 0 -49.333 1.16699 -64 3.5
s-25.5 6.5 -32.5 12.5s-11.667 14.833 -14 26.5s-3.5 29.167 -3.5 52.5v533z" />
    <glyph glyph-name="U" unicode="U" horiz-adv-x="944" 
d="M274 606c0 23.333 1.00098 40.832 3.00098 52.499s6.33301 20.667 13 27s16.334 10.5 29.001 12.5s31.667 3 57 3v27h-332v-27c31.333 0 53.333 -7.16699 66 -21.5s19 -38.833 19 -73.5v-351c0 -50 8.5 -92.333 25.5 -127s40.667 -62.5 71 -83.5s65.666 -36 105.999 -45
s85.5 -13.5 135.5 -13.5c44.667 0 87 3.5 127 10.5s76.833 19.5 110.5 37.5s60.5 43 80.5 75s30 71.667 30 119v379c0 39.333 6.5 64.833 19.5 76.5s37.833 17.5 74.5 17.5v27h-245v-27c42.667 0 72.167 -6.33301 88.5 -19s24.5 -37.667 24.5 -75v-383
c0 -37.333 -7.83301 -69.666 -23.5 -96.999s-37 -49.333 -64 -66s-57 -28.834 -90 -36.501s-66.833 -11.5 -101.5 -11.5c-32 0 -61.167 3.83301 -87.5 11.5s-49.833 20.5 -70.5 38.5s-36.834 42.833 -48.501 74.5s-17.5 70.834 -17.5 117.501v351z" />
    <glyph glyph-name="V" unicode="V" horiz-adv-x="889" 
d="M752 610c13.333 29.333 28.499 50.833 45.499 64.5s40.833 22.5 71.5 26.5v27h-218v-27c21.333 -1.33301 38.5 -5.16602 51.5 -11.499s19.5 -18.5 19.5 -36.5c0 -4.66699 -2.66699 -14.334 -8 -29.001s-12.666 -32 -21.999 -52l-182 -397l-226 474
c-6 13.333 -9 22.333 -9 27c0 9.33301 7.16699 15.833 21.5 19.5s38.5 5.5 72.5 5.5v27h-350v-27c33.333 0 57.5 -6.33301 72.5 -19s31.833 -39 50.5 -79l299 -617h19z" />
    <glyph glyph-name="W" unicode="W" horiz-adv-x="1000" 
d="M8 728l0.00195312 -27.002c17.333 0 29.5 -4.33301 36.5 -13s13.833 -22.334 20.5 -41.001l4 -12l254 -649h26l157 432l166 -432h27l221 644c7.33301 21.333 16.166 37.5 26.499 48.5s25.5 18.5 45.5 22.5v27h-184v-27c23.333 0 41.833 -3.16699 55.5 -9.5
s20.5 -15.5 20.5 -27.5c0 -14 -2 -27 -6 -39l-142 -422h-2l-156 422l-2 6l-8 23c-1.33301 4 -2 8 -2 12c0 10 5.16699 18.167 15.5 24.5s32.166 9.83301 65.499 10.5v27h-308v-27c16 -2 27.667 -4 35 -6s13.666 -4.83301 18.999 -8.5s9.83301 -8.66699 13.5 -15
s7.83398 -15.833 12.501 -28.5l68 -173l-98 -269h-2l-155 412c-6 14.667 -11 27.834 -15 39.501s-6 19.834 -6 24.501c0 6.66699 6 12.334 18 17.001s31 7 57 7v27h-278z" />
    <glyph glyph-name="X" unicode="X" horiz-adv-x="889" 
d="M255 0l0.00195312 27.002c-17.333 0.666992 -32.5 3 -45.5 7s-19.5 11.333 -19.5 22c0 7.33301 3.33301 14.666 10 21.999l203 231l165 -227c8.66699 -12 13 -22.667 13 -32c0 -5.33301 -5.5 -10.5 -16.5 -15.5s-33.5 -7.5 -67.5 -7.5v-27h387v27
c-34.667 0 -62.834 4.16699 -84.501 12.5s-40.834 24.166 -57.501 47.499l-239 331l192 213c22 24.667 44.833 42.334 68.5 53.001s52.5 16.334 86.5 17.001v27h-229v-27c20.667 -0.666992 34.667 -3.33398 42 -8.00098s11.333 -11 12 -19
c0 -10.667 -7.66699 -24.667 -23 -42l-166 -190l-145 198c-0.666992 1.33301 -2 3.33301 -4 6c-10 14 -15 23.667 -15 29c0 10.667 6.33301 17.5 19 20.5s32 4.83301 58 5.5v27h-384v-27c24.667 0 44.5 -1 59.5 -3s27.167 -5.33301 36.5 -10s17.666 -10.834 24.999 -18.501
s17 -19.5 29 -35.5l220 -301l-197 -217c-27.333 -30 -54.666 -51.833 -81.999 -65.5s-61 -21.5 -101 -23.5v-27h250z" />
    <glyph glyph-name="Y" unicode="Y" horiz-adv-x="889" 
d="M331 646c0 0.666992 -0.336914 1.33398 -1.00391 2.00098c-4 6 -7.16699 11 -9.5 15s-3.5 7.33301 -3.5 10c0.666992 9.33301 7.33398 16.166 20.001 20.499s34.334 6.83301 65.001 7.5v27h-377v-27c21.333 0 38 -0.666992 50 -2s21.5 -3.5 28.5 -6.5s13 -7 18 -12
s11.167 -12.5 18.5 -22.5l239 -331v-205c0 -23.333 -1.16699 -40.833 -3.5 -52.5s-7.16602 -20.5 -14.499 -26.5s-18 -10 -32 -12s-35.333 -3.33301 -64 -4v-27h373v27c-28 0 -49.333 1.16699 -64 3.5s-25.5 6.5 -32.5 12.5s-11.667 14.833 -14 26.5s-3.5 29.167 -3.5 52.5
v242l176 234l3 5c28 36.667 52 62.167 72 76.5s50 21.5 90 21.5v27h-233v-27c26.667 0 45.667 -3 57 -9s17 -14 17 -24c0 -5.33301 -1.66699 -11 -5 -17s-7.66602 -12.333 -12.999 -19l-176 -233z" />
    <glyph glyph-name="Z" unicode="Z" horiz-adv-x="722" 
d="M672 701v26.999h-580l-58 -199l22 -1c16 22 32.167 42.333 48.5 61s34.833 36.5 55.5 53.5s43.5 31 68.5 42s51.167 16.5 78.5 16.5h177l-442 -674v-27h594l61 222h-16c-6.66699 -7.33301 -17 -20.666 -31 -39.999c-16 -22.667 -31.167 -42.167 -45.5 -58.5
s-31.833 -31.833 -52.5 -46.5s-45.667 -26.667 -75 -36s-63 -14 -101 -14h-155z" />
    <glyph glyph-name="bracketleft" unicode="[" horiz-adv-x="333" 
d="M39 -98h229v37h-129v752h126v37h-226v-826z" />
    <glyph glyph-name="backslash" unicode="\" horiz-adv-x="278" 
d="M294 -14l-235 756h-75l233 -756h77z" />
    <glyph glyph-name="bracketright" unicode="]" horiz-adv-x="333" 
d="M294 728h-226v-37h126v-752h-129v-37h229v826z" />
    <glyph glyph-name="asciicircum" unicode="^" horiz-adv-x="600" 
d="M166 363l134 277l133 -277h83l-180 365h-72l-180 -365h82z" />
    <glyph glyph-name="underscore" unicode="_" horiz-adv-x="500" 
d="M500 -125v50h-500v-50h500z" />
    <glyph glyph-name="grave" unicode="`" horiz-adv-x="278" 
d="M216 505l-140.998 152c-8.66699 8.66699 -16.834 15.334 -24.501 20.001s-16.834 7 -27.501 7c-11.333 0 -21.333 -3.83301 -30 -11.5s-13 -16.834 -13 -27.501c0 -16 7 -29 21 -39l165 -101h50z" />
    <glyph glyph-name="a" unicode="a" 
d="M354 88c-16 -14 -31.832 -25.5 -47.499 -34.5s-31.167 -13.5 -46.5 -13.5c-24.667 0 -44.834 6.66699 -60.501 20s-23.5 32 -23.5 56c0 28 13.167 53.667 39.5 77s72.5 44.333 138.5 63v-168zM537.001 75c-4 -11.333 -10.6709 -20.001 -20.0039 -26.001
s-19.333 -9 -30 -9c-7.33301 0 -12.666 2.33301 -15.999 7s-5 13.334 -5 26.001v286c0 31.333 -13.333 55.666 -40 72.999s-63.667 26 -111 26c-36 0 -70 -4.83301 -102 -14.5s-59.667 -22.334 -83 -38.001s-41.666 -32.334 -54.999 -50.001s-20 -33.5 -20 -47.5
c0 -39.333 17 -59 51 -59c41.333 0 62 19.333 62 58c0 4 -0.666992 10 -2 18c-0.666992 2.66699 -1 6.33398 -1 11.001c0 28 8.33301 49.833 25 65.5s39 23.5 67 23.5c26 0 48.667 -7.66699 68 -23s29 -36.666 29 -63.999v-57c-44.667 -14 -84.167 -28 -118.5 -42
s-64.166 -29.167 -89.499 -45.5s-45 -34.166 -59 -53.499s-21 -40.333 -21 -63c0 -30 12.5 -52.667 37.5 -68s53.5 -23 85.5 -23c30.667 0 59.334 6 86.001 18s52.667 29.333 78 52c6 -25.333 17.333 -43.333 34 -54s39 -16 67 -16c25.333 0 47 7.5 65 22.5
s30.333 34.5 37 58.5z" />
    <glyph glyph-name="b" unicode="b" 
d="M189 360c11.333 8.66699 22.3311 15.333 32.998 20s21.334 7 32.001 7c50 0 89.167 -20.167 117.5 -60.5s42.5 -92.166 42.5 -155.499c0 -22.667 -1.66699 -43.334 -5 -62.001s-9.16602 -35.5 -17.499 -50.5s-19.5 -26.833 -33.5 -35.5s-31 -13 -51 -13
c-37.333 0 -66.333 12.5 -87 37.5s-31 56.167 -31 93.5v219zM188.998 736.999l-22.001 -5.99707c-63.333 -18.667 -111.333 -30 -144 -34v-24v0c18.667 -4 32.334 -8.83301 41.001 -14.5s13 -16.167 13 -31.5v-641h24c8.66699 15.333 15.5 26 20.5 32s10.167 9 15.5 9
c11.333 0 24.333 -3.66699 39 -11c18 -8.66699 37.167 -15.834 57.5 -21.501s45.166 -8.5 74.499 -8.5c33.333 0 63.5 5.83301 90.5 17.5s50 28 69 49s33.5 45.5 43.5 73.5s15 58 15 90c0 27.333 -3.5 55.166 -10.5 83.499s-17.667 54.5 -32 78.5s-32.833 43.333 -55.5 58
s-49 22 -79 22c-33.333 0 -60.666 -4.83301 -81.999 -14.5s-47.333 -26.834 -78 -51.501v345z" />
    <glyph glyph-name="c" unicode="c" horiz-adv-x="500" 
d="M434 183c-6 -34 -20.6689 -62.832 -44.002 -86.499s-51.666 -35.5 -84.999 -35.5c-29.333 0 -54.666 6.16699 -75.999 18.5s-38.5 29 -51.5 50s-22.333 44.333 -28 70s-8.5 52.167 -8.5 79.5c0 17.333 2 35 6 53s10 34.667 18 50s18 27.666 30 36.999s25.667 14 41 14
c16 0 29 -4.83301 39 -14.5s18.667 -23.5 26 -41.5l22 -53c8 -20.667 17.5 -35.167 28.5 -43.5s24.5 -12.5 40.5 -12.5c19.333 0 34.166 6.33301 44.499 19s15.5 27 15.5 43c0 14.667 -5.33301 29.667 -16 45s-25.167 29.333 -43.5 42s-38.833 22.667 -61.5 30
s-45.667 11 -69 11c-34.667 0 -66.5 -6.5 -95.5 -19.5s-53.667 -31 -74 -54s-36 -49.833 -47 -80.5s-16.5 -63 -16.5 -97c0 -66 19.333 -119.333 58 -160s90.667 -61 156 -61c63.333 0 114.833 17.5 154.5 52.5s59.834 83.167 60.501 144.5h-24z" />
    <glyph glyph-name="d" unicode="d" 
d="M363 83c-19.333 -17.333 -45.333 -26 -78 -26c-24.667 0 -46.167 6.16699 -64.5 18.5s-33.166 28.333 -44.499 48s-19.833 41.167 -25.5 64.5s-8.5 46.333 -8.5 69c0 20 1.66699 40.167 5 60.5s9.16602 39.333 17.499 57s19.833 32 34.5 43s32.667 16.5 54 16.5
c28.667 0 52 -10 70 -30s31.333 -46.333 40 -79v-242zM367 -14l162 19.998v24c-20 0 -34 3.16699 -42 9.5s-12 19.833 -12 40.5v657c-4 -1.33301 -9.66699 -3 -17 -5c-34.667 -10 -63.334 -17.667 -86.001 -23s-48 -9.33301 -76 -12v-24
c24.667 -3.33301 42 -7.83301 52 -13.5s15 -16.5 15 -32.5v-215c-18.667 13.333 -39.167 24.333 -61.5 33s-44.166 13 -65.499 13c-32 0 -60.833 -6.16699 -86.5 -18.5s-47.5 -29.666 -65.5 -51.999s-31.5 -47.833 -40.5 -76.5s-13.5 -58.667 -13.5 -90
c0 -30 3.5 -59 10.5 -87s17.5 -53.167 31.5 -75.5s31.833 -40 53.5 -53s46.5 -19.5 74.5 -19.5c36 0 66.5 4.83301 91.5 14.5s50.167 26.834 75.5 51.501v-66z" />
    <glyph glyph-name="e" unicode="e" horiz-adv-x="500" 
d="M456 160c-21.333 -28 -44.167 -49 -68.5 -63s-53.166 -21 -86.499 -21c-48.667 0 -87.334 18.167 -116.001 54.5s-43 81.166 -43 134.499h326c0 27.333 -5.33301 52.833 -16 76.5s-25.5 44.334 -44.5 62.001s-40.833 31.167 -65.5 40.5s-50.334 14 -77.001 14
c-34 0 -65.333 -6.16699 -94 -18.5s-53.667 -29.666 -75 -51.999s-37.666 -48.333 -48.999 -78s-17 -61.5 -17 -95.5c0 -70 19.167 -125.5 57.5 -166.5s92.833 -61.5 163.5 -61.5c53.333 0 98 13.667 134 41s64.333 66.666 85 117.999zM143.999 300
c1.33301 16.667 4 32.833 8 48.5s10.333 30 19 43s20 23.333 34 31s31 11.5 51 11.5c27.333 0 50.833 -10.667 70.5 -32s29.5 -47.333 29.5 -78c0 -10 -1.66699 -16.5 -5 -19.5s-10 -4.5 -20 -4.5h-187z" />
    <glyph glyph-name="f" unicode="f" horiz-adv-x="333" 
d="M204 598c0 9.33301 1.16406 19.8311 3.49707 31.498s5.83301 22.834 10.5 33.501s10.834 19.5 18.501 26.5s16.834 10.5 27.501 10.5c9.33301 0 16.833 -3 22.5 -9s11.834 -15.333 18.501 -28l3 -5c8 -13.333 16 -23.5 24 -30.5s18.667 -10.5 32 -10.5
c14.667 0 27 3.83301 37 11.5s15 18.167 15 31.5c0 24 -10.667 42.833 -32 56.5s-46.333 20.5 -75 20.5c-40.667 0 -75.167 -8.16699 -103.5 -24.5s-50.833 -38.666 -67.5 -66.999s-28.5 -59.5 -35.5 -93.5s-10.5 -70 -10.5 -108h-80v-35h80v-348
c0 -16 -4.33301 -26.167 -13 -30.5s-30.667 -6.5 -66 -6.5v-24h285v24c-42.667 0 -69 2.16699 -79 6.5s-15 14.5 -15 30.5v348h99v35h-99v154z" />
    <glyph glyph-name="g" unicode="g" horiz-adv-x="500" 
d="M328 -45c16.667 -1.33301 29.833 -6.66699 39.5 -16s14.5 -22 14.5 -38c0 -50 -49.333 -75 -148 -75c-44 0 -78.167 6.5 -102.5 19.5s-36.5 30.833 -36.5 53.5c2.66699 30 20 53.667 52 71zM323.999 305.999c0 -39.333 -6.5 -69.666 -19.5 -90.999s-31.5 -32 -55.5 -32
c-24.667 0 -43.5 10.667 -56.5 32s-19.5 51.666 -19.5 90.999s6.5 69.666 19.5 90.999s31.833 32 56.5 32c24 0 42.5 -10.667 55.5 -32s19.5 -51.666 19.5 -90.999zM478.999 -57.001c0 43.333 -17.998 74.168 -53.998 92.501s-88.333 29.5 -157 33.5l-72 4
c-22 2 -38.333 5.16699 -49 9.5s-16 10.833 -16 19.5c0 13.333 10.333 23.5 31 30.5s52 13.5 94 19.5c56.667 8 101.167 24.167 133.5 48.5s48.5 59.833 48.5 106.5c0 33.333 -11.667 62.666 -35 87.999c-22.667 26 -50 42 -82 48
c1.33301 12.667 4.66602 23.167 9.99902 31.5s13.666 12.5 24.999 12.5c8 0 16.667 -0.666992 26 -2c8 -2 16.667 -3 26 -3c31.333 0 48 14.333 50 43c0 32.667 -18.333 49 -55 49c-14 0 -27.5 -4 -40.5 -12s-24.167 -18.167 -33.5 -30.5s-16.666 -26 -21.999 -41
s-8 -29.167 -8 -42.5c-18 6.66699 -34.667 10 -50 10c-25.333 0 -49.333 -3.16699 -72 -9.5s-42.834 -16.166 -60.501 -29.499s-31.667 -30.5 -42 -51.5s-15.5 -45.5 -15.5 -73.5c0 -24 9 -47.167 27 -69.5s45.333 -41.5 82 -57.5c-48.667 -18 -85.167 -36.5 -109.5 -55.5
s-37.166 -39.833 -38.499 -62.5c0 -20.667 7.5 -35.5 22.5 -44.5s36.167 -16.833 63.5 -23.5h2v-1c-20.667 -8 -40.5 -19.833 -59.5 -35.5s-28.5 -32.167 -28.5 -49.5c0 -20 7.16699 -36.333 21.5 -49s32.166 -22.167 53.499 -28.5s43 -10.5 65 -12.5s43 -3 63 -3
c28.667 0 57.167 1.66699 85.5 5s55.333 9.83301 81 19.5s47 24.167 64 43.5s25.5 43.666 25.5 72.999z" />
    <glyph glyph-name="h" unicode="h" horiz-adv-x="611" 
d="M196 737c-5.33301 -1.33301 -19.334 -5.66797 -42.001 -13.001c-58.667 -18.667 -103.334 -29.667 -134.001 -33v-24c2.66699 -0.666992 7 -1.66699 13 -3c15.333 -2.66699 27.666 -7.16699 36.999 -13.5s14 -18.5 14 -36.5v-553c0 -16 -3.5 -26.167 -10.5 -30.5
s-24.833 -6.5 -53.5 -6.5v-24h235v24c-26 0 -42.333 2.16699 -49 6.5s-10 14.5 -10 30.5v286c22.667 20.667 43.834 35.334 63.501 44.001s40.5 13 62.5 13c26.667 0 48.834 -9 66.501 -27s26.5 -40 26.5 -66v-250c0 -16 -3.5 -26.167 -10.5 -30.5s-24.833 -6.5 -53.5 -6.5
v-24h230v24c-23.333 0 -38.166 2.16699 -44.499 6.5s-9.5 14.5 -9.5 30.5v235c0 52 -13.833 92 -41.5 120s-67.5 42 -119.5 42c-30 0 -59.333 -7.66699 -88 -23s-56 -35 -82 -59v361z" />
    <glyph glyph-name="i" unicode="i" horiz-adv-x="278" 
d="M24 383c24 -1.33301 40.501 -4.33301 49.501 -9s13.5 -10.667 13.5 -18v-295c0 -16 -3.33301 -26.167 -10 -30.5s-23.334 -6.5 -50.001 -6.5v-24h228v24c-24.667 0 -40.167 2.16699 -46.5 6.5s-9.5 14.5 -9.5 30.5v397c-70 -25.333 -128.333 -42.333 -175 -51v-24z
M141.001 597c18 0 34 6.83301 48 20.5s21 30.167 21 49.5s-7 35.833 -21 49.5s-30 20.5 -48 20.5s-34 -6.83301 -48 -20.5s-21 -30.167 -21 -49.5s7 -35.833 21 -49.5s30 -20.5 48 -20.5z" />
    <glyph glyph-name="j" unicode="j" horiz-adv-x="333" 
d="M245 458c-33.333 -12 -64.8311 -22.168 -94.498 -30.501s-61.834 -15.166 -96.501 -20.499v-24c31.333 -1.33301 52.333 -4.33301 63 -9s16 -10.667 16 -18v-462c0 -14 -3.16699 -26.333 -9.5 -37s-15.833 -16 -28.5 -16c-4.66699 0 -9.66699 2.83301 -15 8.5
s-12.333 14.834 -21 27.501l-5 7c-10 13.333 -19.333 23.833 -28 31.5s-18.334 11.5 -29.001 11.5c-13.333 0 -25.5 -4.66699 -36.5 -14s-16.5 -20.333 -16.5 -33c0 -24.667 11.167 -43.834 33.5 -57.501s46.166 -20.5 71.499 -20.5c28 0 54 5.33301 78 16
s44.833 25.667 62.5 45s31.334 41.5 41.001 66.5s14.5 51.167 14.5 78.5v450zM187.002 596.999c18 0 34 6.83301 48 20.5s21 30.167 21 49.5s-7 35.833 -21 49.5s-30 20.5 -48 20.5s-34 -6.83301 -48 -20.5s-21 -30.167 -21 -49.5s7 -35.833 21 -49.5s30 -20.5 48 -20.5z
" />
    <glyph glyph-name="k" unicode="k" horiz-adv-x="611" 
d="M198 737c-12.667 -2.66699 -27.665 -6.00195 -44.998 -10.002c-50 -12 -87.333 -19 -112 -21v-24c12 -2 22.5 -5.5 31.5 -10.5s13.5 -11.833 13.5 -20.5v-590c0 -15.333 -2.83301 -25.333 -8.5 -30s-19.167 -7 -40.5 -7v-24h217v24c-24.667 0 -40.167 2.16699 -46.5 6.5
s-9.5 14.5 -9.5 30.5v130l46 36l141 -178l2 -2c3.33301 -4.66699 5 -8 5 -10c0 -4 -4.66699 -7.16699 -14 -9.5s-21.333 -4.16602 -36 -5.49902v-22h248v24c-15.333 0 -26.333 1.16699 -33 3.5s-12.334 6.16602 -17.001 11.499l-214 256l77 60
c16.667 13.333 29.667 23.333 39 30s19.166 12.334 29.499 17.001s21.833 8.33398 34.5 11.001s29 5 49 7v24h-190v-21c24.667 -4.66699 37 -11.667 37 -21c0 -6.66699 -5 -13.667 -15 -21l-189 -155v511z" />
    <glyph glyph-name="l" unicode="l" horiz-adv-x="278" 
d="M199 737l-22.001 -6c-63.333 -18.667 -111.333 -30 -144 -34v-24v0c18.667 -4 32.334 -8.83301 41.001 -14.5s13 -16.167 13 -31.5v-566c0 -16 -3.83301 -26.167 -11.5 -30.5s-26.5 -6.5 -56.5 -6.5v-24h248v24c-30 0 -48.833 2.16699 -56.5 6.5s-11.5 14.5 -11.5 30.5
v676z" />
    <glyph glyph-name="m" unicode="m" horiz-adv-x="889" 
d="M28 381c18 -4 31.666 -8.83691 40.999 -14.5039s14 -15.5 14 -29.5v-276c0 -16 -3.33301 -26.167 -10 -30.5s-23 -6.5 -49 -6.5v-24h237v24c-29.333 0 -47.666 2.16699 -54.999 6.5s-11 14.5 -11 30.5v286c18.667 18.667 36.167 32.834 52.5 42.501s33.5 14.5 51.5 14.5
c20.667 0 40.834 -6.66699 60.501 -20s29.5 -30.666 29.5 -51.999v-271c0 -16 -3.33301 -26.167 -10 -30.5s-22.667 -6.5 -48 -6.5v-24h236v24c-29.333 0 -47.666 2.16699 -54.999 6.5s-11 14.5 -11 30.5v286c18.667 18.667 36.167 32.834 52.5 42.501s33.5 14.5 51.5 14.5
c20.667 0 40.834 -6.66699 60.501 -20s29.5 -30.666 29.5 -51.999v-271c0 -16 -3.33301 -26.167 -10 -30.5s-22.667 -6.5 -48 -6.5v-24h234v24c-28.667 0 -46.5 2.16699 -53.5 6.5s-10.5 14.5 -10.5 30.5v271c0 19.333 -4.5 37 -13.5 53s-20.833 29.333 -35.5 40
s-30.834 18.834 -48.501 24.501s-34.5 8.5 -50.5 8.5c-27.333 0 -55 -7.16699 -83 -21.5s-54.667 -32.5 -80 -54.5c-18.667 22.667 -40 41 -64 55s-49.333 21 -76 21c-31.333 0 -58.833 -6.66699 -82.5 -20s-49.834 -33.333 -78.501 -60v80
c-64.667 -24.667 -120.334 -42.334 -167.001 -53.001v-24z" />
    <glyph glyph-name="n" unicode="n" horiz-adv-x="611" 
d="M84 61c0 -16 -3.33398 -26.167 -10.001 -30.5s-23 -6.5 -49 -6.5v-24h237v24c-29.333 0 -47.666 2.16699 -54.999 6.5s-11 14.5 -11 30.5v286c22.667 20.667 43.834 35.334 63.501 44.001s40.5 13 62.5 13c26.667 0 48.834 -9 66.501 -27s26.5 -40 26.5 -66v-250
c0 -16 -3.5 -26.167 -10.5 -30.5s-23.833 -6.5 -50.5 -6.5v-24h230v24c-24.667 0 -40.334 2.16699 -47.001 6.5s-10 14.5 -10 30.5v235c0 52 -13.833 92 -41.5 120s-67.5 42 -119.5 42c-30 0 -59.333 -7.66699 -88 -23s-56 -35 -82 -59v82
c-64.667 -24.667 -120.334 -42.334 -167.001 -53.001v-24c18 -4 31.667 -8.83301 41 -14.5s14 -15.5 14 -29.5v-276z" />
    <glyph glyph-name="o" unicode="o" 
d="M398 222c0 -72.667 -9.5 -126.167 -28.5 -160.5s-49.5 -51.5 -91.5 -51.5c-41.333 0 -71.666 17.167 -90.999 51.5s-29 87.833 -29 160.5s9.66699 126.167 29 160.5s49.666 51.5 90.999 51.5c42 0 72.5 -17.167 91.5 -51.5s28.5 -87.833 28.5 -160.5zM526 222
c0 34 -6.33301 65.5 -19 94.5s-30.5 54 -53.5 75s-49.5 37.333 -79.5 49s-62 17.5 -96 17.5c-33.333 0 -65.166 -5.83301 -95.499 -17.5s-57 -28 -80 -49s-40.833 -46 -53.5 -75s-19 -60.5 -19 -94.5s6.33301 -65.5 19 -94.5s30.5 -54 53.5 -75s49.667 -37.333 80 -49
s62.166 -17.5 95.499 -17.5c34 0 66 5.83301 96 17.5s56.5 28 79.5 49s40.833 46 53.5 75s19 60.5 19 94.5z" />
    <glyph glyph-name="p" unicode="p" 
d="M194 357c9.33301 10 18.332 17.333 26.999 22s19.667 7.33398 33 8.00098c50 0 89.167 -20.167 117.5 -60.5s42.5 -92.166 42.5 -155.499c0 -22.667 -1.66699 -43.334 -5 -62.001s-9.16602 -35.5 -17.499 -50.5s-19.5 -26.833 -33.5 -35.5s-31 -13 -51 -13
c-32.667 0 -59.667 10.667 -81 32s-32 42.666 -32 63.999v251zM27.999 404v-23.999h4c16 -2 28.333 -5.16699 37 -9.5s13 -12.833 13 -25.5v-466c0 -17.333 -3.33301 -28.5 -10 -33.5s-21.334 -7.83301 -44.001 -8.5v-24h227v24c-26 0.666992 -42.667 3.5 -50 8.5
s-11 16.167 -11 33.5v141c14.667 -12 32.167 -20.667 52.5 -26s40.833 -8 61.5 -8c33.333 0 63.5 5.83301 90.5 17.5s50 28 69 49s33.5 45.5 43.5 73.5s15 58 15 90c0 27.333 -3.5 55.166 -10.5 83.499s-17.667 54.5 -32 78.5s-32.833 43.333 -55.5 58s-49 22 -79 22
c-33.333 0 -60.666 -5 -81.999 -15s-45.333 -27 -72 -51v66z" />
    <glyph glyph-name="q" unicode="q" 
d="M482 458l-67 -53.001c-25.333 16 -50.333 28.833 -75 38.5s-49.334 14.5 -74.001 14.5c-34 0 -65.5 -6.33301 -94.5 -19s-54.167 -30.5 -75.5 -53.5s-37.666 -49.667 -48.999 -80s-17 -62.5 -17 -96.5c0 -67.333 16.833 -121.333 50.5 -162s81.5 -61 143.5 -61
c56.667 0 105.334 19.333 146.001 58v-165c0 -17.333 -3.83301 -28.666 -11.5 -33.999s-26.167 -8 -55.5 -8v-24h230v24c-22.667 0 -36.834 2.16699 -42.501 6.5s-8.5 14.5 -8.5 30.5v584zM370 89.999c-12.667 -13.333 -26.6689 -22.166 -42.002 -26.499s-36 -6.5 -62 -6.5
c-34 0 -61.667 16.833 -83 50.5s-32 82.167 -32 145.5c0 56 10.5 99.167 31.5 129.5s48.833 45.5 83.5 45.5c13.333 0 26.333 -3.5 39 -10.5s23.834 -16.333 33.501 -28s17.334 -24.334 23.001 -38.001s8.5 -27.167 8.5 -40.5v-221z" />
    <glyph glyph-name="r" unicode="r" horiz-adv-x="444" 
d="M203 264c0 7.33301 2.49805 16.3311 7.49805 26.998s11.333 21.334 19 32.001s16.167 19.334 25.5 26.001s18 10 26 10c9.33301 0 17.333 -1.33301 24 -4s14.667 -7 24 -13h1l2 -1c9.33301 -5.33301 17.833 -9.33301 25.5 -12s16.834 -4 27.501 -4
c18.667 0 33.167 5.66699 43.5 17s15.5 26.333 15.5 45c0 20.667 -7.83301 37.667 -23.5 51s-34.167 20 -55.5 20c-31.333 0 -58.166 -10.5 -80.499 -31.5s-46.5 -50.833 -72.5 -89.5l-7 -9h-2v130c-32.667 -12.667 -63 -23.167 -91 -31.5s-58.667 -15.5 -92 -21.5v-24
c24.667 -3.33301 42.667 -8 54 -14s17 -16 17 -30v-276c0 -16 -4 -26.167 -12 -30.5s-28.333 -6.5 -61 -6.5v-24h259v24c-33.333 0 -54 2.16699 -62 6.5s-12 14.5 -12 30.5v203z" />
    <glyph glyph-name="s" unicode="s" horiz-adv-x="444" 
d="M390 421c-32.667 12 -61.3291 21.1641 -85.9961 27.4971s-48.667 9.5 -72 9.5c-20.667 0 -41.334 -2.66699 -62.001 -8s-39.834 -13.5 -57.501 -24.5s-31.834 -25 -42.501 -42s-16 -36.5 -16 -58.5c0 -32 11.333 -58.5 34 -79.5s54 -40.833 94 -59.5l19 -9
c37.333 -18 64.833 -33.5 82.5 -46.5s26.5 -29.167 26.5 -48.5c0 -20.667 -5.83301 -37.834 -17.5 -51.501s-27.834 -20.5 -48.501 -20.5c-44.667 0 -80.5 15.667 -107.5 47s-45.5 71 -55.5 119l-24 -4l9 -151c20 -9.33301 45.667 -17.5 77 -24.5s57.333 -10.5 78 -10.5
c25.333 0 49.166 2.33301 71.499 7s42.333 12.334 60 23.001s31.5 25.334 41.5 44.001s15 41.334 15 68.001c0 18 -3.5 34.333 -10.5 49s-16.5 27.167 -28.5 37.5s-24.667 19.5 -38 27.5s-30.666 17.333 -51.999 28l-15 7c-42 21.333 -72.167 38.333 -90.5 51
s-27.5 26 -27.5 40c0 18.667 7 34.334 21 47.001s30 19 48 19c19.333 0 37 -4.16699 53 -12.5s30 -19.5 42 -33.5s22.333 -29.333 31 -46s16.667 -35 24 -55l24 2v132z" />
    <glyph glyph-name="t" unicode="t" horiz-adv-x="333" 
d="M339 444l-145.999 -0.000976562v169l-167 -180v-24h55v-330c0 -27.333 10.833 -49.666 32.5 -66.999s50.167 -26 85.5 -26c22.667 0 48.167 6.5 76.5 19.5s48.5 27.833 60.5 44.5v36c-16 -14.667 -30.333 -26 -43 -34s-26.334 -12 -41.001 -12
c-24 0 -39.833 5.66699 -47.5 17s-11.5 25.333 -11.5 42v310h127z" />
    <glyph glyph-name="u" unicode="u" horiz-adv-x="611" 
d="M526 444h-177.997v-24c29.333 0 47.666 -2.16699 54.999 -6.5s11 -14.5 11 -30.5v-286c-22.667 -20.667 -43.834 -35.334 -63.501 -44.001s-40.5 -13 -62.5 -13c-26.667 0 -48.834 9 -66.501 27s-26.5 40 -26.5 66v311h-169v-24c25.333 0 41.166 -2.16699 47.499 -6.5
s9.5 -14.5 9.5 -30.5v-235c0 -52 13.833 -92 41.5 -120s67.5 -42 119.5 -42c30 0 59.333 7.66699 88 23s56 35 82 59v-82c64.667 24.667 120.334 42.334 167.001 53.001v24c-18 4 -31.667 8.83301 -41 14.5s-14 15.5 -14 29.5v337z" />
    <glyph glyph-name="v" unicode="v" 
d="M13 420c13.333 0 25.499 -2.16602 36.499 -6.49902s18.833 -11.166 23.5 -20.499l197 -407h31l166 361c10.667 22.667 21 39.667 31 51s25 18.666 45 21.999v24h-155v-24h1c15.333 -2.66699 28 -6.33398 38 -11.001s15 -12.667 15 -24c0 -8.66699 -4 -23 -12 -43
l-101 -226l-107 231c-11.333 24 -17 40.333 -17 49c0 6 6.33301 11.5 19 16.5s27.334 7.5 44.001 7.5v24h-255v-24z" />
    <glyph glyph-name="w" unicode="w" horiz-adv-x="833" 
d="M261 444l-241.999 -0.00195312v-24c11.333 -0.666992 21.166 -3 29.499 -7s14.833 -11 19.5 -21l177 -406h27l146 360l149 -360h30l138 345c10.667 26.667 21.5 47.334 32.5 62.001s26.833 23.667 47.5 27v24h-151v-24h2c19.333 -3.33301 33.333 -6.83301 42 -10.5
s13 -9.5 13 -17.5c0 -5.33301 -4.66699 -19.666 -14 -42.999l-80 -220l-93 231c-0.666992 2.66699 -2.66699 7.33398 -6 14.001c-5.33301 13.333 -8 21 -8 23c0 6 5.5 11 16.5 15s26.5 6.66699 46.5 8v24h-262v-24c26.667 -2 46 -6.83301 58 -14.5s18 -16.5 18 -26.5
c0 -6.66699 -4.33301 -20.334 -13 -41.001l-4 -10l-78 -195l-94 220c-2 4.66699 -4 9.66699 -6 15c-6 13.333 -9 22.333 -9 27c0 6.66699 6.33301 12.5 19 17.5s29 7.5 49 7.5v24z" />
    <glyph glyph-name="x" unicode="x" 
d="M181 0l-0.00390625 24.002c-14 0.666992 -24.833 2.33398 -32.5 5.00098s-11.5 7.66699 -11.5 15s5.66699 17 17 29l87 96l70 -95c6 -8 9 -15.667 9 -23c0 -9.33301 -5.16699 -15.833 -15.5 -19.5s-24.5 -6.16699 -42.5 -7.5v-24h290v24
c-15.333 0 -31.833 2.66699 -49.5 8s-30.167 13 -37.5 23l-149 202l95 105c16.667 18.667 36 33 58 43s45 15 69 15v24h-188v-24c16 0 27.5 -2.33301 34.5 -7s10.5 -10 10.5 -16s-1.66699 -11 -5 -15l-91 -104l-73 97c-2.66699 3.33301 -5.16699 7.16602 -7.5 11.499
s-3.5 8.16602 -3.5 11.499c0 8 3.83301 13.667 11.5 17s21.834 5 42.501 5v24h-264v-24c34.667 0 61.334 -12.667 80.001 -38l141 -189l-128 -128c-13.333 -13.333 -26.666 -23.333 -39.999 -30s-28.666 -10.334 -45.999 -11.001v-24h169z" />
    <glyph glyph-name="y" unicode="y" 
d="M12 420c21.333 -4 36.6641 -8.83203 45.9971 -14.499s18 -17.167 26 -34.5l185 -387c0 -4.66699 -1.33301 -11.834 -4 -21.501s-6.33398 -19.5 -11.001 -29.5s-10 -18.333 -16 -25s-12 -10 -18 -10c-5.33301 0 -14.333 2.33301 -27 7l-6 2c-12 3.33301 -22 5 -30 5
c-13.333 0 -25.5 -4.83301 -36.5 -14.5s-16.5 -22.167 -16.5 -37.5c0 -18 6.33301 -32.167 19 -42.5s28.334 -15.5 47.001 -15.5c22.667 0 40.334 7.66699 53.001 23s25.334 37.333 38.001 66l3 8l203 458c8 19.333 17.333 33.833 28 43.5s25.667 16.167 45 19.5v24h-157
v-24c22.667 -1.33301 38.334 -4.83301 47.001 -10.5s13 -14.5 13 -26.5c0 -8.66699 -2 -17.334 -6 -26.001l-109 -244l-126 257l-4.5 13c-1.66699 4.66699 -2.5 8.33398 -2.5 11.001c0 8.66699 7.33301 15 22 19s30.667 6.33301 48 7v24h-253v-24z" />
    <glyph glyph-name="z" unicode="z" 
d="M516 193c-34 -58.667 -66.501 -101.499 -97.501 -128.499s-71.167 -40.5 -120.5 -40.5h-123l333 412v8h-439l-49 -151l18 -8c18.667 28 34.5 49.667 47.5 65s27.167 28.166 42.5 38.499s33.333 18 54 23s46.334 7.83301 77.001 8.5h88l-320 -397v-23h464l44 188z" />
    <glyph glyph-name="braceleft" unicode="{" horiz-adv-x="333" 
d="M122 27c0 -56.667 11.833 -94.001 35.5 -112.001s64.5 -27 122.5 -27v20c-38.667 6.66699 -58 44.334 -58 113.001v167c0 38 -5.33301 66.5 -16 85.5s-33 32.167 -67 39.5v2c34 8.66699 56.333 22.5 67 41.5s16 47.5 16 85.5v167c0 68.667 19.333 106.334 58 113.001v20
c-58 0 -98.833 -9 -122.5 -27s-35.5 -55.333 -35.5 -112v-175c0 -33.333 -4.66699 -58.333 -14 -75s-27.666 -29.334 -54.999 -38.001c27.333 -8.66699 45.666 -21.167 54.999 -37.5s14 -41.5 14 -75.5v-175z" />
    <glyph glyph-name="bar" unicode="|" horiz-adv-x="222" 
d="M75 750v-1000h72v1000h-72z" />
    <glyph glyph-name="braceright" unicode="}" horiz-adv-x="333" 
d="M211 604c0 56 -11.833 93.0078 -35.5 111.008s-64.5 27 -122.5 27v-20c20.667 -2.66699 35.5 -13.334 44.5 -32.001s13.5 -45.334 13.5 -80.001v-168c0 -38.667 5.16699 -67.167 15.5 -85.5s32.5 -31.5 66.5 -39.5v-2c-34 -8.66699 -56.167 -22.334 -66.5 -41.001
s-15.5 -47.334 -15.5 -86.001v-168c0 -34.667 -4.5 -61.334 -13.5 -80.001s-23.833 -29.334 -44.5 -32.001v-20c58 0 98.833 9 122.5 27s35.5 55 35.5 111v175c0 34 4.66699 59.167 14 75.5s27.666 29.166 54.999 38.499c-27.333 9.33301 -45.666 22.166 -54.999 38.499
s-14 41.5 -14 75.5v175z" />
    <glyph glyph-name="asciitilde" unicode="~" horiz-adv-x="600" 
d="M495 298c-15.333 -23.333 -29.333 -41.166 -42 -53.499s-28 -18.5 -46 -18.5c-10 0 -21.167 2.33301 -33.5 7s-28.166 11.334 -47.499 20.001c-6.66699 2.66699 -13.667 5.66699 -21 9c-22.667 10 -43 17.833 -61 23.5s-34.667 8.5 -50 8.5
c-30.667 0 -55.834 -8 -75.501 -24s-36.167 -36.667 -49.5 -62l36 -62c10 21.333 21.5 38.666 34.5 51.999s29.5 20 49.5 20c20.667 0 40.167 -3.16699 58.5 -9.5s37.166 -14.833 56.499 -25.5s37 -18.834 53 -24.501s32.333 -8.5 49 -8.5
c27.333 0 49.833 7.16699 67.5 21.5s36.834 35.833 57.501 64.5z" />
    <glyph glyph-name="exclamdown" unicode="&#xa1;" horiz-adv-x="333" 
d="M148 345c-6 -104 -23.9961 -224 -53.9961 -360c-4.66699 -21.333 -7 -43.333 -7 -66c0 -14.667 1.33301 -28.667 4 -42s7 -25.833 13 -37.5s14.167 -20.834 24.5 -27.501s23.166 -10 38.499 -10s28.166 3.33301 38.499 10s18.666 15.834 24.999 27.501
s10.666 24.167 12.999 37.5s3.5 27.333 3.5 42c0 22.667 -2.33301 44.667 -7 66c-30 136 -48 256 -54 360h-38zM90.0039 481c0 -21.333 7.5 -39.5 22.5 -54.5s33.167 -22.5 54.5 -22.5s39.5 7.5 54.5 22.5s22.5 33.167 22.5 54.5s-7.5 39.5 -22.5 54.5
s-33.167 22.5 -54.5 22.5s-39.5 -7.5 -54.5 -22.5s-22.5 -33.167 -22.5 -54.5z" />
    <glyph glyph-name="cent" unicode="&#xa2;" 
d="M235 117c-20 20 -34.668 45.668 -44.001 77.001s-14 64.333 -14 99c0 17.333 2 35 6 53s10 34.667 18 50s18 27.666 30 36.999s25.667 14 41 14s27.833 -4.33301 37.5 -13s17.834 -21 24.501 -37zM469.999 197.001c-6 -34 -20.665 -62.833 -43.998 -86.5
s-51.666 -35.5 -84.999 -35.5c-29.333 0 -54 6 -74 18l88 254l4 -9c8 -20.667 17.5 -35.167 28.5 -43.5s24.5 -12.5 40.5 -12.5c19.333 0 34.166 6.33301 44.499 19s15.5 27 15.5 43c0 19.333 -8.83301 38.833 -26.5 58.5s-40.834 35.834 -69.501 48.501l46 133h-38
l-43 -121c-18.667 6 -38.334 9 -59.001 9c-34.667 0 -66.5 -6.5 -95.5 -19.5s-53.667 -31 -74 -54s-36 -49.833 -47 -80.5s-16.5 -63 -16.5 -97c0 -50.667 11.833 -94.334 35.5 -131.001s56.5 -62 98.5 -76l-59 -166h42l54 156c13.333 -2.66699 27.666 -4 42.999 -4
c63.333 0 114.833 17.5 154.5 52.5s59.834 83.167 60.501 144.5h-24z" />
    <glyph glyph-name="sterling" unicode="&#xa3;" 
d="M51 70c0 18.667 5.49707 33.501 16.4971 44.501s25.167 16.5 42.5 16.5c22.667 0 42.334 -5.16699 59.001 -15.5s35.334 -25.833 56.001 -46.5c-13.333 -17.333 -30.166 -32 -50.499 -44s-40.833 -18 -61.5 -18c-20 0 -35.667 5.66699 -47 17s-17 26.666 -17 45.999h2z
M516.997 188.001c-8 -30.667 -23.3369 -55 -46.0039 -73s-50 -27 -82 -27c-38.667 0 -74.334 8.33301 -107.001 25c11.333 19.333 21.166 43 29.499 71s12.5 52 12.5 72c0 13.333 -0.833008 25.666 -2.5 36.999s-4.16699 24.666 -7.5 39.999h151v39h-166
c-4.66699 12 -11.167 27.5 -19.5 46.5l-26.5 59.5c-9.33301 20 -16.833 39.5 -22.5 58.5s-8.5 34.833 -8.5 47.5c0 42.667 11.333 73.334 34 92.001s55.334 28 98.001 28c8.66699 0 19.667 -1.83301 33 -5.5s26.333 -9 39 -16s23.167 -15 31.5 -24s12.5 -18.833 12.5 -29.5
c0 -4.66699 -3.33301 -7 -10 -7c-7.33301 0 -14.666 1 -21.999 3l-7 1c-6 1.33301 -10.667 2 -14 2c-18.667 0 -33.5 -5.66699 -44.5 -17s-16.5 -27.333 -16.5 -48c0 -20 7.33301 -36.5 22 -49.5s32.334 -19.5 53.001 -19.5c21.333 0 39 9.5 53 28.5s21 39.5 21 61.5
c0 23.333 -5 44.833 -15 64.5s-23.5 36.5 -40.5 50.5s-36 24.667 -57 32s-42.5 11 -64.5 11c-27.333 0 -54.333 -4.33301 -81 -13s-51 -21.334 -73 -38.001s-39.5 -37 -52.5 -61s-19.5 -51 -19.5 -81c0 -33.333 7.66699 -64.5 23 -93.5s35 -56.833 59 -83.5h-149v-39h179
c16.667 -22.667 29.834 -45.334 39.501 -68.001s14.5 -45.667 14.5 -69c0 -13.333 -3 -32.666 -9 -57.999c0 -2.66699 -0.666992 -6.33398 -2 -11.001c-28 12 -52.167 21.167 -72.5 27.5s-40.833 9.5 -61.5 9.5c-34.667 0 -62.167 -8.33301 -82.5 -25
s-30.5 -42.334 -30.5 -77.001c0 -24.667 8.83301 -43.5 26.5 -56.5s39.834 -19.5 66.501 -19.5c27.333 0 52.833 5.83301 76.5 17.5s44.5 27.834 62.5 48.501c16.667 -20 36.5 -36 59.5 -48s47.5 -18 73.5 -18s49 5.83301 69 17.5s36.833 27.334 50.5 47.001
s24.334 41.334 32.001 65.001s12.5 47.834 14.5 72.501h-24z" />
    <glyph glyph-name="currency" unicode="&#xa4;" 
d="M24 145l47.999 -48l55 58c39.333 -35.333 90 -53 152 -53c28 0 55 4.66699 81 14s48.333 22.666 67 39.999l56 -58l47 47l-54 56c16 20 28.167 43 36.5 69s12.5 53 12.5 81c0 28.667 -4.16699 56 -12.5 82s-20.5 48 -36.5 66l55 55l-51 51l-57 -56
c-18 15.333 -39.667 27.333 -65 36s-51.333 13 -78 13c-28 0 -55.5 -4.33301 -82.5 -13s-49.833 -21 -68.5 -37l-56 56l-49 -49l57 -58c-17.333 -17.333 -30.166 -38.666 -38.499 -63.999s-12.5 -53.333 -12.5 -84c0 -58 16.333 -106.667 49 -146zM278.999 179
c-22.667 0 -44.333 4.33105 -65 12.998s-38.667 20.834 -54 36.501s-27.333 33.834 -36 54.501s-13 42.667 -13 66s4.33301 45.5 13 66.5s20.834 39.5 36.501 55.5s33.667 28.333 54 37s42.166 13 65.499 13c22.667 0 44 -4.5 64 -13.5s37.5 -21.5 52.5 -37.5
s26.667 -34.167 35 -54.5s12.5 -41.833 12.5 -64.5s-4.16699 -44.5 -12.5 -65.5s-20 -39.5 -35 -55.5s-32.667 -28.5 -53 -37.5s-41.833 -13.5 -64.5 -13.5z" />
    <glyph glyph-name="yen" unicode="&#xa5;" 
d="M188 646c0 0.666992 -0.667969 1.66602 -2.00098 2.99902l-6.5 14.5c-1.66699 3.66699 -2.5 6.83398 -2.5 9.50098c0.666992 9.33301 6 16.166 16 20.499s27 6.83301 51 7.5v27h-296v-27c30.667 0 50.667 -2.5 60 -7.5s19.333 -16.833 30 -35.5l121 -220h-97v-46h122
l37 -65v-19h-159v-46h159v-140c0 -23.333 -0.833008 -40.833 -2.5 -52.5s-5.16699 -20.5 -10.5 -26.5s-13.333 -10 -24 -12s-26.334 -3.33301 -47.001 -4v-27h293v27c-19.333 0 -34.166 1.16699 -44.499 3.5s-18.166 6.5 -23.499 12.5s-8.83301 15 -10.5 27
s-2.5 29.333 -2.5 52v140h149v46h-149v56l16 28h133v46h-108l88 160l3 6c22 36 40.833 61.167 56.5 75.5s39.167 21.5 70.5 21.5v27h-183v-27c21.333 0 36.333 -3 45 -9s13 -14 13 -24c0 -4.66699 -1.16699 -9.66699 -3.5 -15s-5.5 -11.666 -9.5 -18.999l-1 -2l-138 -233z
" />
    <glyph glyph-name="brokenbar" unicode="&#xa6;" horiz-adv-x="222" 
d="M75 675v-350h72v350h-72zM75 175v-350h72v350h-72z" />
    <glyph glyph-name="section" unicode="&#xa7;" horiz-adv-x="500" 
d="M186 446c14 0 28.332 -4.16699 42.999 -12.5s29.334 -18.5 44.001 -30.5c1.33301 -1.33301 6.66602 -5.66602 15.999 -12.999c26 -22.667 46.5 -42.834 61.5 -60.501s22.5 -36.5 22.5 -56.5c0 -16 -6.16699 -29.667 -18.5 -41s-26.833 -17 -43.5 -17
c-13.333 0 -26.5 3.83301 -39.5 11.5s-27.5 17.834 -43.5 30.501c-3.33301 3.33301 -8.66602 7.66602 -15.999 12.999c-26.667 22 -47.667 41.667 -63 59s-23 35.333 -23 54c0 18 5.5 33 16.5 45s25.5 18 43.5 18zM242.999 -81c42.667 0 79.166 11.502 109.499 34.502
s45.5 54.833 45.5 95.5c0 28.667 -7.33301 54 -22 76s-34.334 45.333 -59.001 70c37.333 0 66.833 10.667 88.5 32s32.5 50 32.5 86c0 37.333 -11.833 71.833 -35.5 103.5s-56.167 62.167 -97.5 91.5l-16 12c-40 30 -69.667 54.167 -89 72.5s-29 35.833 -29 52.5
c0 22 7.16699 39.667 21.5 53s32.833 20 55.5 20c20 0 35.833 -2.33301 47.5 -7s17.5 -9.33398 17.5 -14.001c0 -2.66699 -1.83301 -6 -5.5 -10s-8.16699 -8.66699 -13.5 -14l-5 -5c-10 -10 -15 -21.667 -15 -35c0 -12.667 5.5 -24 16.5 -34s22.833 -15 35.5 -15
c18.667 0 33.5 5.66699 44.5 17s16.5 26.333 16.5 45c0 15.333 -4.33301 29.166 -13 41.499s-20.167 22.5 -34.5 30.5s-29.5 14 -45.5 18s-31 6 -45 6c-43.333 0 -78.333 -12 -105 -36s-40 -57.333 -40 -100c0 -24 7.83301 -46.667 23.5 -68s35.834 -42.333 60.501 -63v-9
c-42 0 -73.5 -11.167 -94.5 -33.5s-31.5 -53.833 -31.5 -94.5c0 -33.333 10.667 -62.833 32 -88.5s52.333 -54.5 93 -86.5c4.66699 -4 8.33398 -7 11.001 -9l25 -19c35.333 -27.333 61.166 -49.833 77.499 -67.5s24.5 -36.167 24.5 -55.5c0 -22 -7.33301 -39 -22 -51
s-33.667 -18 -57 -18c-25.333 0 -44.166 2.5 -56.499 7.5s-18.5 11.5 -18.5 19.5c0 5.33301 6.66699 12.333 20 21c14 8 21 20.333 21 37c0 14 -5.33301 26.167 -16 36.5s-23 15.5 -37 15.5c-42 0 -63 -20 -63 -60c0 -17.333 4.66699 -32.5 14 -45.5s21.333 -23.5 36 -31.5
s30.5 -14 47.5 -18s33.5 -6 49.5 -6z" />
    <glyph glyph-name="dieresis" unicode="&#xa8;" horiz-adv-x="278" 
d="M241 634c-16.667 0 -30.667 -5.66699 -42 -17s-17 -25.333 -17 -42s5.66699 -30.667 17 -42s25.333 -17 42 -17c16 0 29.833 5.66699 41.5 17s17.5 25.333 17.5 42s-5.83301 30.667 -17.5 42s-25.5 17 -41.5 17zM35 516c16 0 29.833 5.66699 41.5 17s17.5 25.333 17.5 42
s-5.83301 30.667 -17.5 42s-25.5 17 -41.5 17c-16.667 0 -30.667 -5.66699 -42 -17s-17 -25.333 -17 -42s5.66699 -30.667 17 -42s25.333 -17 42 -17z" />
    <glyph glyph-name="copyright" unicode="&#xa9;" horiz-adv-x="800" 
d="M400 -14c51.333 0 99.666 9.66699 144.999 29s84.833 46.166 118.5 80.499s59.834 74.5 78.501 120.5s28 95 28 147c0 52.667 -9.33301 102 -28 148s-44.834 86.333 -78.501 121s-73.167 61.667 -118.5 81s-93.666 29 -144.999 29s-99.5 -9.66699 -144.5 -29
s-84.5 -46.333 -118.5 -81s-60.333 -75.167 -79 -121.5s-28 -95.5 -28 -147.5s9.33301 -101 28 -147s45 -86.167 79 -120.5s73.5 -61.166 118.5 -80.499s93.167 -29 144.5 -29zM400 38c-41.333 0 -80.167 8.5 -116.5 25.5s-68.333 40.667 -96 71s-49 65.166 -64 104.499
s-22.5 80.666 -22.5 123.999c0 42.667 7.5 83.834 22.5 123.501s36.167 74.834 63.5 105.501s59.333 54.667 96 72s75.667 26 117 26s80.333 -8.66699 117 -26s68.667 -41.166 96 -71.499s48.5 -65.333 63.5 -105s22.5 -81.167 22.5 -124.5
c0 -42.667 -7.5 -83.834 -22.5 -123.501s-36.167 -74.667 -63.5 -105s-59.333 -54 -96 -71s-75.667 -25.5 -117 -25.5zM561.999 276c-12.667 -29.333 -29.6689 -52.499 -51.002 -69.499s-48 -25.5 -80 -25.5c-48 0 -83.5 17.833 -106.5 53.5s-34.5 84.167 -34.5 145.5
c0.666992 55.333 12.5 99.333 35.5 132s57.167 49 102.5 49c35.333 0 62.333 -9.16699 81 -27.5s30.334 -40.833 35.001 -67.5h20v77c0 10 -7.66699 17.667 -23 23l-7 2c-17.333 5.33301 -33.333 9.5 -48 12.5s-33.667 4.5 -57 4.5c-41.333 0 -77.333 -6.33301 -108 -19
s-55.667 -29.5 -75 -50.5s-33.5 -43.833 -42.5 -68.5s-13.5 -49 -13.5 -73c0 -72 21.167 -126.167 63.5 -162.5s98.5 -54.5 168.5 -54.5c22 0 42.833 2 62.5 6s36.834 8.66699 51.501 14h1c10 3.33301 17 6.16602 21 8.49902s6.33301 6.5 7 12.5l17 78h-20z" />
    <glyph glyph-name="ordfeminine" unicode="&#xaa;" horiz-adv-x="334" 
d="M198 520c-10 -8 -20 -14.668 -30 -20.001s-20.333 -8 -31 -8c-16 0 -29.167 3.83301 -39.5 11.5s-15.5 18.834 -15.5 33.501c0 16.667 8.66699 32 26 46s47.333 26.667 90 38v-101zM317 511.999c-2 -6.66699 -6.16699 -11.668 -12.5 -15.001s-12.833 -5 -19.5 -5
c-9.33301 0 -14 6.33301 -14 19v171c0 19.333 -8.66699 34.166 -26 44.499s-41.333 15.5 -72 15.5c-23.333 0 -45.333 -3 -66 -9s-38.834 -13.667 -54.501 -23s-27.667 -19.166 -36 -29.499s-12.5 -19.833 -12.5 -28.5c0 -24 11 -36 33 -36c26.667 0 40 11.667 40 35
c0 4.66699 -0.333008 8.33398 -1 11.001c-0.666992 1.33301 -1 3.66602 -1 6.99902c0 16.667 5.5 29.334 16.5 38.001s25.5 13 43.5 13c17.333 0 32.166 -4.16699 44.499 -12.5s18.5 -20.833 18.5 -37.5v-34c-60.667 -18 -107 -36.5 -139 -55.5s-48 -41.5 -48 -67.5
c0 -18 8 -31.333 24 -40s34.667 -13 56 -13c38 0 73.333 13.667 106 41c4 -15.333 11.333 -26 22 -32s25.334 -9 44.001 -9c16.667 0 30.834 4.16699 42.501 12.5s19.5 19.833 23.5 34.5z" />
    <glyph glyph-name="guillemotleft" unicode="&#xab;" horiz-adv-x="500" 
d="M76 222l149 -130.001c15.333 -13.333 26 -20 32 -20c4.66699 0 7 3.66699 7 11c0 6.66699 -4 15.334 -12 26.001l-82 113l82 112c8 12 12 21 12 27c0 7.33301 -2.33301 11 -7 11c-6 0 -16.667 -6.66699 -32 -20zM236 221.999l149 -130.001c15.333 -13.333 26 -20 32 -20
c4.66699 0 7 3.66699 7 11c0 6.66699 -4 15.334 -12 26.001l-82 113l82 112c8 12 12 21 12 27c0 7.33301 -2.33301 11 -7 11c-6 0 -16.667 -6.66699 -32 -20z" />
    <glyph glyph-name="logicalnot" unicode="&#xac;" horiz-adv-x="600" 
d="M449 95h72v252h-442v-72h370v-180z" />
    <glyph glyph-name="minus" unicode="&#xad;" horiz-adv-x="600" 
d="M521 186v72h-442v-72h442z" />
    <glyph glyph-name="minus" unicode="&#x2212;" horiz-adv-x="600" 
d="M521 186v72h-442v-72h442z" />
    <glyph glyph-name="registered" unicode="&#xae;" horiz-adv-x="800" 
d="M400 -14c51.333 0 99.666 9.66699 144.999 29s84.833 46.166 118.5 80.499s59.834 74.5 78.501 120.5s28 95 28 147c0 52.667 -9.33301 102 -28 148s-44.834 86.333 -78.501 121s-73.167 61.667 -118.5 81s-93.666 29 -144.999 29s-99.5 -9.66699 -144.5 -29
s-84.5 -46.333 -118.5 -81s-60.333 -75.167 -79 -121.5s-28 -95.5 -28 -147.5s9.33301 -101 28 -147s45 -86.167 79 -120.5s73.5 -61.166 118.5 -80.499s93.167 -29 144.5 -29zM400 38c-41.333 0 -80.167 8.5 -116.5 25.5s-68.333 40.667 -96 71s-49 65.166 -64 104.499
s-22.5 80.666 -22.5 123.999c0 42.667 7.5 83.834 22.5 123.501s36.167 74.834 63.5 105.501s59.333 54.667 96 72s75.667 26 117 26s80.333 -8.66699 117 -26s68.667 -41.166 96 -71.499s48.5 -65.333 63.5 -105s22.5 -81.167 22.5 -124.5
c0 -42.667 -7.5 -83.834 -22.5 -123.501s-36.167 -74.667 -63.5 -105s-59.333 -54 -96 -71s-75.667 -25.5 -117 -25.5zM223.999 549c24 -2.66699 38.332 -6.33203 42.999 -10.999s7 -18 7 -40v-255c0 -21.333 -2.33301 -34.333 -7 -39s-19 -8.33398 -43 -11.001v-24h180v24
c-24 2.66699 -38.333 6.33398 -43 11.001s-7 17.667 -7 39v103h43c14 -21.333 31 -50 51 -86c18 -32.667 32.167 -56 42.5 -70s20.833 -21 31.5 -21h80v11c-10 9.33301 -22 22.166 -36 38.499s-27.667 33.5 -41 51.5l-62 89c25.333 7.33301 45.833 21.166 61.5 41.499
s23.5 43.833 23.5 70.5c0 32.667 -11.667 57.834 -35 75.501s-52.666 26.5 -87.999 26.5h-201v-24zM353.998 549.002l41 0.000976562c21.333 0 38.166 -6.5 50.499 -19.5s18.5 -34.167 18.5 -63.5c0 -28.667 -5.66699 -51.834 -17 -69.501s-28.666 -26.5 -51.999 -26.5h-41
v179z" />
    <glyph glyph-name="macron" unicode="&#xaf;" horiz-adv-x="278" 
d="M300 544v65h-323v-65h323z" />
    <glyph glyph-name="degree" unicode="&#xb0;" horiz-adv-x="400" 
d="M108 599c0 28.667 8.33301 52 25 70s39 27 67 27s50.333 -9 67 -27s25 -41.333 25 -70c0 -28 -8.33301 -51.167 -25 -69.5s-39 -27.5 -67 -27.5s-50.333 9.16699 -67 27.5s-25 41.5 -25 69.5zM200 456c40 0 73.833 13.833 101.5 41.5s41.5 61.5 41.5 101.5
s-13.833 73.833 -41.5 101.5s-61.5 41.5 -101.5 41.5s-73.833 -13.833 -101.5 -41.5s-41.5 -61.5 -41.5 -101.5s13.833 -73.833 41.5 -101.5s61.5 -41.5 101.5 -41.5z" />
    <glyph glyph-name="plusminus" unicode="&#xb1;" horiz-adv-x="600" 
d="M264 310h-185v-72h185v-135h72v135h185v72h-185v134h-72v-134zM79 0h442v72h-442v-72z" />
    <glyph glyph-name="twosuperior" unicode="&#xb2;" horiz-adv-x="333" 
d="M286 297l34.001 100l-15 6c-6.66699 -15.333 -14.334 -25.666 -23.001 -30.999s-23.667 -8 -45 -8h-181c4 16.667 14.5 31.5 31.5 44.5s36.833 25.5 59.5 37.5l19 10c24 12.667 43.667 23.667 59 33s29.833 20.333 43.5 33s24.667 27 33 43s12.5 34 12.5 54
c0 36.667 -12.667 66.334 -38 89.001s-58 34 -98 34c-44 0 -80.167 -12.833 -108.5 -38.5s-49.833 -59.5 -64.5 -101.5l13 -4c17.333 25.333 37.333 46.333 60 63s45.667 25 69 25c24 0 43.833 -7.33301 59.5 -22s23.5 -32.334 23.5 -53.001
c0 -22 -8.33301 -42.833 -25 -62.5s-38.667 -40.834 -66 -63.501c-1.33301 -0.666992 -3 -2 -5 -4l-7 -6c-38 -32.667 -66.333 -61.5 -85 -86.5s-28 -55.5 -28 -91.5h272z" />
    <glyph glyph-name="threesuperior" unicode="&#xb3;" horiz-adv-x="333" 
d="M99 532c39.333 -10 73.5039 -26.833 102.504 -50.5s43.5 -51.834 43.5 -84.501c0 -22 -6.5 -42.833 -19.5 -62.5s-30.833 -29.5 -53.5 -29.5c-18.667 0 -32.334 4.16699 -41.001 12.5s-16.667 20.5 -24 36.5l-1 3c-6.66699 15.333 -13.334 26.833 -20.001 34.5
s-17.334 11.5 -32.001 11.5c-11.333 0 -20.833 -3.66699 -28.5 -11s-11.5 -16 -11.5 -26c0 -16.667 5.5 -30.167 16.5 -40.5s24.833 -18.166 41.5 -23.499s33.334 -8.83301 50.001 -10.5s32.667 -2.5 48 -2.5c46 0 82.167 11.667 108.5 35s39.5 57.333 39.5 102
c0 30 -12.333 57.667 -37 83s-53.334 41.333 -86.001 48v2c25.333 7.33301 47 18.833 65 34.5s27 34.167 27 55.5c0 28 -10.5 50.5 -31.5 67.5s-47.167 25.5 -78.5 25.5c-34.667 0 -62.834 -8.66699 -84.501 -26s-37.5 -42.333 -47.5 -75l14 -4c8 14 19 25.667 33 35
s29 14 45 14c22 0 40.333 -5.83301 55 -17.5s22 -27.167 22 -46.5c0 -24 -12.333 -42.5 -37 -55.5s-50.667 -19.5 -78 -19.5v-15z" />
    <glyph glyph-name="acute" unicode="&#xb4;" horiz-adv-x="278" 
d="M112 505l165.002 101c14 10 21 23 21 39c0 10.667 -4.33301 19.834 -13 27.501s-18.667 11.5 -30 11.5c-10.667 0 -19.834 -2.33301 -27.501 -7s-15.834 -11.334 -24.501 -20.001l-141 -152h50z" />
    <glyph glyph-name="mu" unicode="&#xb5;" horiz-adv-x="611" 
d="M526 444h-177.997v-24c29.333 0 47.666 -2.16699 54.999 -6.5s11 -14.5 11 -30.5v-286c-22.667 -20.667 -43.834 -35.334 -63.501 -44.001s-40.5 -13 -62.5 -13c-26.667 0 -48.834 9 -66.501 27s-26.5 40 -26.5 66v311h-169v-24c25.333 0 41.166 -2.16699 47.499 -6.5
s9.5 -14.5 9.5 -30.5v-523c0 -10 -4.5 -16.333 -13.5 -19s-23.833 -4 -44.5 -4v-24h170v179c14 -4 30.333 -6 49 -6c30 0 59.333 7.66699 88 23s56 35 82 59v-82c64.667 24.667 120.334 42.334 167.001 53.001v24c-18 4 -31.667 8.83301 -41 14.5s-14 15.5 -14 29.5v337z
" />
    <glyph glyph-name="paragraph" unicode="&#xb6;" horiz-adv-x="600" 
d="M528 728l-273 0.000976562c-74.667 0 -128.167 -15.5 -160.5 -46.5s-48.5 -81.5 -48.5 -151.5c0 -64.667 15.5 -116.334 46.5 -155.001s75.833 -58 134.5 -58v-400h82v781h59v-781h82v759c2.66699 8.66699 9.16699 14.5 19.5 17.5s26.166 6.16699 47.499 9.5
c4.66699 0.666992 8.33398 1 11.001 1v24z" />
    <glyph glyph-name="periodcentered" unicode="&#xb7;" horiz-adv-x="278" 
d="M216 221c0 21.333 -7.5 39.5 -22.5 54.5s-33.167 22.5 -54.5 22.5s-39.5 -7.5 -54.5 -22.5s-22.5 -33.167 -22.5 -54.5s7.5 -39.5 22.5 -54.5s33.167 -22.5 54.5 -22.5s39.5 7.5 54.5 22.5s22.5 33.167 22.5 54.5z" />
    <glyph glyph-name="periodcentered" unicode="&#x2219;" horiz-adv-x="278" 
d="M216 221c0 21.333 -7.5 39.5 -22.5 54.5s-33.167 22.5 -54.5 22.5s-39.5 -7.5 -54.5 -22.5s-22.5 -33.167 -22.5 -54.5s7.5 -39.5 22.5 -54.5s33.167 -22.5 54.5 -22.5s39.5 7.5 54.5 22.5s22.5 33.167 22.5 54.5z" />
    <glyph glyph-name="cedilla" unicode="&#xb8;" horiz-adv-x="278" 
d="M65 -96l10.999 -7.99902c6 2 15.667 3.66699 29 5c30.667 -1.33301 46.334 -13.666 47.001 -36.999v-3c0.666992 -0.666992 1 -1.33398 1 -2.00098c0 -10 -5.66699 -18.5 -17 -25.5s-24.666 -10.5 -39.999 -10.5c-21.333 0 -42 4 -62 12l-17 -35
c13.333 -6 28 -10.167 44 -12.5s32.333 -3.5 49 -3.5c14.667 0 29.167 1.33301 43.5 4s27.833 7.16699 40.5 13.5s23 14.833 31 25.5s12 23.667 12 39c0 24 -6.5 41.667 -19.5 53s-31.5 18.333 -55.5 21h-5h-4c-4.66699 0 -12.334 -0.666992 -23.001 -2
c-4.66699 -0.666992 -8.66699 -1.33398 -12 -2.00098l31 64h-41z" />
    <glyph glyph-name="onesuperior" unicode="&#xb9;" horiz-adv-x="333" 
d="M144 353c0 -12.667 -5.33203 -21.666 -15.999 -26.999s-31.667 -8.33301 -63 -9v-20h246v20c-33.333 0.666992 -55.5 3.66699 -66.5 9s-16.5 14.333 -16.5 27v389h-20c-7.33301 -8 -22.333 -16.5 -45 -25.5s-51.334 -15.833 -86.001 -20.5v-20
c28.667 0 47 -1.33301 55 -4s12 -8.33398 12 -17.001v-302z" />
    <glyph glyph-name="ordmasculine" unicode="&#xba;" horiz-adv-x="334" 
d="M89 601c0 43.333 6.16699 74.666 18.5 93.999s32.166 29 59.499 29s47.166 -9.66699 59.499 -29s18.5 -50.666 18.5 -93.999s-6.16699 -74.666 -18.5 -93.999s-32.166 -29 -59.499 -29s-47.166 9.66699 -59.499 29s-18.5 50.666 -18.5 93.999zM6 601
c0 -40.667 15.5 -74.334 46.5 -101.001s69.167 -40 114.5 -40s83.5 13.333 114.5 40s46.5 60.334 46.5 101.001s-15.5 74.334 -46.5 101.001s-69.167 40 -114.5 40s-83.5 -13.333 -114.5 -40s-46.5 -60.334 -46.5 -101.001z" />
    <glyph glyph-name="guillemotright" unicode="&#xbb;" horiz-adv-x="500" 
d="M264 222l-149 130c-15.333 13.333 -26 20 -32 20c-4.66699 0 -7 -3.66699 -7 -11c0 -6 4 -14.667 12 -26l82 -113l-82 -112c-8 -12 -12 -21 -12 -27c0 -7.33301 2.33301 -11 7 -11c6 0 16.667 6.66699 32 20zM424 222l-149 130c-15.333 13.333 -26 20 -32 20
c-4.66699 0 -7 -3.66699 -7 -11c0 -6 4 -14.667 12 -26l82 -113l-82 -112c-8 -12 -12 -21 -12 -27c0 -7.33301 2.33301 -11 7 -11c6 0 16.667 6.66699 32 20z" />
    <glyph glyph-name="onequarter" unicode="&#xbc;" horiz-adv-x="834" 
d="M261 -14l439 756h-57l-439 -756h57zM511 188l132 154h1v-154h-133zM727 149h64v39h-64v257h-21l-222 -253v-43h160v-149h83v149zM123 353c0 -12.667 -5.33203 -21.666 -15.999 -26.999s-31.667 -8.33301 -63 -9v-20h246v20c-33.333 0.666992 -55.5 3.66699 -66.5 9
s-16.5 14.333 -16.5 27v389h-20c-7.33301 -8 -22.333 -16.5 -45 -25.5s-51.334 -15.833 -86.001 -20.5v-20c28.667 0 47 -1.33301 55 -4s12 -8.33398 12 -17.001v-302z" />
    <glyph glyph-name="onehalf" unicode="&#xbd;" horiz-adv-x="834" 
d="M216 -14l442 756h-54l-442 -756h54zM751 0l34.001 100.001l-15 6c-6.66699 -15.333 -14.334 -25.666 -23.001 -30.999s-23.667 -8 -45 -8h-181c4 16.667 14.5 31.5 31.5 44.5s36.833 25.5 59.5 37.5c2.66699 1.33301 9 4.66602 19 9.99902c24 12.667 43.667 23.667 59 33
s29.833 20.333 43.5 33s24.667 27 33 43s12.5 34 12.5 54c0 36.667 -12.667 66.334 -38 89.001s-58 34 -98 34c-44 0 -80.167 -12.833 -108.5 -38.5s-49.833 -59.5 -64.5 -101.5l13 -4c17.333 25.333 37.333 46.333 60 63s45.667 25 69 25c24 0 43.833 -7.33301 59.5 -22
s23.5 -32.334 23.5 -53.001c0 -22 -8.33301 -42.833 -25 -62.5s-38.667 -40.834 -66 -63.501c-1.33301 -0.666992 -3 -2 -5 -4l-7 -6c-38 -32.667 -66.333 -61.5 -85 -86.5s-28 -55.5 -28 -91.5h272zM123.001 353.001c0 -12.667 -5.33203 -21.666 -15.999 -26.999
s-31.667 -8.33301 -63 -9v-20h246v20c-33.333 0.666992 -55.5 3.66699 -66.5 9s-16.5 14.333 -16.5 27v389h-20c-7.33301 -8 -22.333 -16.5 -45 -25.5s-51.334 -15.833 -86.001 -20.5v-20c28.667 0 47 -1.33301 55 -4s12 -8.33398 12 -17.001v-302z" />
    <glyph glyph-name="threequarters" unicode="&#xbe;" horiz-adv-x="834" 
d="M261 -14l439 756h-57l-439 -756h57zM511 188l132 154h1v-154h-133zM727 149h64v39h-64v257h-21l-222 -253v-43h160v-149h83v149zM129 532c39.333 -10 73.5039 -26.833 102.504 -50.5s43.5 -51.834 43.5 -84.501c0 -22 -6.5 -42.833 -19.5 -62.5
s-30.833 -29.5 -53.5 -29.5c-18.667 0 -32.334 4.16699 -41.001 12.5s-16.667 20.5 -24 36.5l-1 3c-6.66699 15.333 -13.334 26.833 -20.001 34.5s-17.334 11.5 -32.001 11.5c-11.333 0 -20.833 -3.66699 -28.5 -11s-11.5 -16 -11.5 -26c0 -16.667 5.5 -30.167 16.5 -40.5
s24.833 -18.166 41.5 -23.499s33.334 -8.83301 50.001 -10.5s32.667 -2.5 48 -2.5c46 0 82.167 11.667 108.5 35s39.5 57.333 39.5 102c0 30 -12.333 57.667 -37 83s-53.334 41.333 -86.001 48v2c25.333 7.33301 47 18.833 65 34.5s27 34.167 27 55.5
c0 28 -10.5 50.5 -31.5 67.5s-47.167 25.5 -78.5 25.5c-34.667 0 -62.834 -8.66699 -84.501 -26s-37.5 -42.333 -47.5 -75l14 -4c8 14 19 25.667 33 35s29 14 45 14c22 0 40.333 -5.83301 55 -17.5s22 -27.167 22 -46.5c0 -24 -12.333 -42.5 -37 -55.5
s-50.667 -19.5 -78 -19.5v-15z" />
    <glyph glyph-name="questiondown" unicode="&#xbf;" 
d="M335 345l-14.998 -114.002c-28 4.66699 -51.667 7 -71 7c-69.333 0 -122.666 -17.667 -159.999 -53s-56 -86.666 -56 -153.999c0 -72.667 23.5 -129 70.5 -169s106.833 -60 179.5 -60c20.667 0 42.667 1.66699 66 5s46.166 9.33301 68.499 18
s40.666 20.834 54.999 36.501s21.5 34.834 21.5 57.501s-6.5 40.667 -19.5 54s-30.833 20 -53.5 20c-20.667 0 -37 -5 -49 -15s-25.333 -25.667 -40 -47c-6.66699 -10 -11.667 -17 -15 -21c-11.333 -14.667 -25.666 -27.334 -42.999 -38.001s-34 -16 -50 -16
c-44 0 -80.5 12.667 -109.5 38s-43.5 60 -43.5 104s14.667 77.5 44 100.5s66.666 34.5 111.999 34.5c28.667 0 56.667 -6 84 -18s52.666 -28 75.999 -48l14 7l-33 271h-33zM277.002 480.998c0 -21.333 7.5 -39.5 22.5 -54.5s33.167 -22.5 54.5 -22.5s39.5 7.5 54.5 22.5
s22.5 33.167 22.5 54.5s-7.5 39.5 -22.5 54.5s-33.167 22.5 -54.5 22.5s-39.5 -7.5 -54.5 -22.5s-22.5 -33.167 -22.5 -54.5z" />
    <glyph glyph-name="Agrave" unicode="&#xc0;" horiz-adv-x="889" 
d="M515 770l-140.998 152c-8.66699 8.66699 -16.834 15.334 -24.501 20.001s-16.834 7 -27.501 7c-11.333 0 -21.333 -3.83301 -30 -11.5s-13 -16.834 -13 -27.501c0 -16 7 -29 21 -39l165 -101h50zM253.002 0l0.00195312 27.0049c-58 0 -87 14.333 -87 43
c0 6 2.16699 15.833 6.5 29.5s9.83301 28.167 16.5 43.5l31 74h322l37 -75l5 -10c7.33301 -14 13.166 -26.167 17.499 -36.5s6.5 -19.5 6.5 -27.5c0 -12.667 -6.66699 -22.667 -20 -30s-36.333 -11 -69 -11v-27h352v27c-32.667 3.33301 -56.167 9.16602 -70.5 17.499
s-28.166 26.833 -41.499 55.5l-301 621c-4.66699 9.33301 -7.83398 15.166 -9.50098 17.499s-3.83398 3.5 -6.50098 3.5c-3.33301 0 -8 -3.66699 -14 -11c-12 -15.333 -25.333 -30 -40 -44s-32.667 -30 -54 -48c4.66699 -1.33301 8.5 -4.83301 11.5 -10.5
s6.16699 -12.834 9.5 -21.501v-1l-188 -419c-14 -30.667 -25.5 -54.834 -34.5 -72.501s-18.667 -32.167 -29 -43.5s-22 -20.333 -35 -27s-29.5 -12.334 -49.5 -17.001v-27h234zM373.004 563.005l149 -311h-289z" />
    <glyph glyph-name="Aacute" unicode="&#xc1;" horiz-adv-x="889" 
d="M411 770l165.002 101c14 10 21 23 21 39c0 10.667 -4.33301 19.834 -13 27.501s-18.667 11.5 -30 11.5c-10.667 0 -19.834 -2.33301 -27.501 -7s-15.834 -11.334 -24.501 -20.001l-141 -152h50zM253.002 0l0.00195312 27.0049c-58 0 -87 14.333 -87 43
c0 6 2.16699 15.833 6.5 29.5s9.83301 28.167 16.5 43.5l31 74h322l37 -75l5 -10c7.33301 -14 13.166 -26.167 17.499 -36.5s6.5 -19.5 6.5 -27.5c0 -12.667 -6.66699 -22.667 -20 -30s-36.333 -11 -69 -11v-27h352v27c-32.667 3.33301 -56.167 9.16602 -70.5 17.499
s-28.166 26.833 -41.499 55.5l-301 621c-4.66699 9.33301 -7.83398 15.166 -9.50098 17.499s-3.83398 3.5 -6.50098 3.5c-3.33301 0 -8 -3.66699 -14 -11c-12 -15.333 -25.333 -30 -40 -44s-32.667 -30 -54 -48c4.66699 -1.33301 8.5 -4.83301 11.5 -10.5
s6.16699 -12.834 9.5 -21.501v-1l-188 -419c-14 -30.667 -25.5 -54.834 -34.5 -72.501s-18.667 -32.167 -29 -43.5s-22 -20.333 -35 -27s-29.5 -12.334 -49.5 -17.001v-27h234zM373.004 563.005l149 -311h-289z" />
    <glyph glyph-name="Acircumflex" unicode="&#xc2;" horiz-adv-x="889" 
d="M397 942l-122 -172h48l114 100l113 -100h50l-124 172h-79zM253 0l0.00195312 27.0049c-58 0 -87 14.333 -87 43c0 6 2.16699 15.833 6.5 29.5s9.83301 28.167 16.5 43.5l31 74h322l37 -75l5 -10c7.33301 -14 13.166 -26.167 17.499 -36.5s6.5 -19.5 6.5 -27.5
c0 -12.667 -6.66699 -22.667 -20 -30s-36.333 -11 -69 -11v-27h352v27c-32.667 3.33301 -56.167 9.16602 -70.5 17.499s-28.166 26.833 -41.499 55.5l-301 621c-4.66699 9.33301 -7.83398 15.166 -9.50098 17.499s-3.83398 3.5 -6.50098 3.5c-3.33301 0 -8 -3.66699 -14 -11
c-12 -15.333 -25.333 -30 -40 -44s-32.667 -30 -54 -48c4.66699 -1.33301 8.5 -4.83301 11.5 -10.5s6.16699 -12.834 9.5 -21.501v-1l-188 -419c-14 -30.667 -25.5 -54.834 -34.5 -72.501s-18.667 -32.167 -29 -43.5s-22 -20.333 -35 -27s-29.5 -12.334 -49.5 -17.001v-27
h234zM373.002 563.005l149 -311h-289z" />
    <glyph glyph-name="Atilde" unicode="&#xc3;" horiz-adv-x="889" 
d="M576 909c-6.66699 -16 -13.5029 -28.167 -20.5029 -36.5s-17.167 -12.5 -30.5 -12.5c-10 0 -20 2 -30 6s-22 9.66699 -36 17l-3 1l-2 1c-16.667 7.33301 -30.667 12.833 -42 16.5s-24 5.5 -38 5.5c-31.333 0 -56.666 -11 -75.999 -33s-31.666 -49.333 -36.999 -82h37
c3.33301 13.333 9.5 24.5 18.5 33.5s20.167 13.5 33.5 13.5c10.667 0 29.334 -6.33301 56.001 -19c4 -2 7 -3.66699 9 -5c15.333 -8 29.5 -14.167 42.5 -18.5s26.167 -6.5 39.5 -6.5c32.667 0 58.167 11 76.5 33s31.5 50.667 39.5 86h-37zM252.997 0l0.00195312 27.0049
c-58 0 -87 14.333 -87 43c0 6 2.16699 15.833 6.5 29.5s9.83301 28.167 16.5 43.5l31 74h322l37 -75l5 -10c7.33301 -14 13.166 -26.167 17.499 -36.5s6.5 -19.5 6.5 -27.5c0 -12.667 -6.66699 -22.667 -20 -30s-36.333 -11 -69 -11v-27h352v27
c-32.667 3.33301 -56.167 9.16602 -70.5 17.499s-28.166 26.833 -41.499 55.5l-301 621c-4.66699 9.33301 -7.83398 15.166 -9.50098 17.499s-3.83398 3.5 -6.50098 3.5c-3.33301 0 -8 -3.66699 -14 -11c-12 -15.333 -25.333 -30 -40 -44s-32.667 -30 -54 -48
c4.66699 -1.33301 8.5 -4.83301 11.5 -10.5s6.16699 -12.834 9.5 -21.501v-1l-188 -419c-14 -30.667 -25.5 -54.834 -34.5 -72.501s-18.667 -32.167 -29 -43.5s-22 -20.333 -35 -27s-29.5 -12.334 -49.5 -17.001v-27h234zM372.999 563.005l149 -311h-289z" />
    <glyph glyph-name="Adieresis" unicode="&#xc4;" horiz-adv-x="889" 
d="M540 899c-16.667 0 -30.667 -5.66699 -42 -17s-17 -25.333 -17 -42s5.66699 -30.667 17 -42s25.333 -17 42 -17c16 0 29.833 5.66699 41.5 17s17.5 25.333 17.5 42s-5.83301 30.667 -17.5 42s-25.5 17 -41.5 17zM334 781c16 0 29.833 5.66699 41.5 17
s17.5 25.333 17.5 42s-5.83301 30.667 -17.5 42s-25.5 17 -41.5 17c-16.667 0 -30.667 -5.66699 -42 -17s-17 -25.333 -17 -42s5.66699 -30.667 17 -42s25.333 -17 42 -17zM253 0l0.00195312 27.0049c-58 0 -87 14.333 -87 43c0 6 2.16699 15.833 6.5 29.5
s9.83301 28.167 16.5 43.5l31 74h322l37 -75l5 -10c7.33301 -14 13.166 -26.167 17.499 -36.5s6.5 -19.5 6.5 -27.5c0 -12.667 -6.66699 -22.667 -20 -30s-36.333 -11 -69 -11v-27h352v27c-32.667 3.33301 -56.167 9.16602 -70.5 17.499s-28.166 26.833 -41.499 55.5
l-301 621c-4.66699 9.33301 -7.83398 15.166 -9.50098 17.499s-3.83398 3.5 -6.50098 3.5c-3.33301 0 -8 -3.66699 -14 -11c-12 -15.333 -25.333 -30 -40 -44s-32.667 -30 -54 -48c4.66699 -1.33301 8.5 -4.83301 11.5 -10.5s6.16699 -12.834 9.5 -21.501v-1l-188 -419
c-14 -30.667 -25.5 -54.834 -34.5 -72.501s-18.667 -32.167 -29 -43.5s-22 -20.333 -35 -27s-29.5 -12.334 -49.5 -17.001v-27h234zM373.002 563.005l149 -311h-289z" />
    <glyph glyph-name="Aring" unicode="&#xc5;" horiz-adv-x="889" 
d="M438 980c-14 0 -27.832 -2.99902 -41.499 -8.99902s-25.834 -14.667 -36.501 -26c-22.667 -22.667 -34 -48.334 -34 -77.001c0 -29.333 11.333 -55.333 34 -78s48.667 -34 78 -34c14 0 27.667 3 41 9s25.5 14.5 36.5 25.5s19.5 23.167 25.5 36.5s9 27 9 41
s-3 27.667 -9 41s-14.5 25.5 -25.5 36.5s-23.333 19.5 -37 25.5s-27.167 9 -40.5 9zM438.001 927.001c16 0 29.833 -5.83301 41.5 -17.5s17.5 -25.5 17.5 -41.5c0 -16.667 -5.66699 -30.667 -17 -42s-25.333 -17 -42 -17s-30.667 5.66699 -42 17s-17 25.333 -17 42
s5.66699 30.667 17 42s25.333 17 42 17zM253.001 0.000976562l0.00195312 27.0049c-58 0 -87 14.333 -87 43c0 6 2.16699 15.833 6.5 29.5s9.83301 28.167 16.5 43.5l31 74h322l37 -75l5 -10c7.33301 -14 13.166 -26.167 17.499 -36.5s6.5 -19.5 6.5 -27.5
c0 -12.667 -6.66699 -22.667 -20 -30s-36.333 -11 -69 -11v-27h352v27c-32.667 3.33301 -56.167 9.16602 -70.5 17.499s-28.166 26.833 -41.499 55.5l-301 621c-4.66699 9.33301 -7.83398 15.166 -9.50098 17.499s-3.83398 3.5 -6.50098 3.5c-3.33301 0 -8 -3.66699 -14 -11
c-12 -15.333 -25.333 -30 -40 -44s-32.667 -30 -54 -48c4.66699 -1.33301 8.5 -4.83301 11.5 -10.5s6.16699 -12.834 9.5 -21.501v-1l-188 -419c-14 -30.667 -25.5 -54.834 -34.5 -72.501s-18.667 -32.167 -29 -43.5s-22 -20.333 -35 -27s-29.5 -12.334 -49.5 -17.001v-27
h234zM373.003 563.006l149 -311h-289z" />
    <glyph glyph-name="AE" unicode="&#xc6;" horiz-adv-x="1000" 
d="M155 0l0.00390625 27.001c-28 0 -48.333 3.33301 -61 10s-19 16 -19 28s4.33301 25.667 13 41l129 235h218v-219c0 -22.667 -0.833008 -40 -2.5 -52s-5 -21 -10 -27s-12 -10 -21 -12s-22.5 -3.33301 -40.5 -4v-27h541l56 199l-22 12l-7 -10
c-28 -38.667 -49.667 -67.334 -65 -86.001s-32.666 -34.667 -51.999 -48s-42.333 -23.333 -69 -30s-60 -10 -100 -10h-63v324c61.333 0 109.5 -13.667 144.5 -41s55.167 -68.666 60.5 -123.999h24v339h-24c-2.66699 -27.333 -10.334 -50.5 -23.001 -69.5
s-28.667 -34.167 -48 -45.5s-40.333 -19.5 -63 -24.5s-46.334 -7.5 -71.001 -7.5v323h83c50.667 0 94 -12.833 130 -38.5s79 -69.834 129 -132.501l18 7l-76 191h-651v-27c46.667 0 78.167 -4.33301 94.5 -13s24.5 -22 24.5 -40c0 -8.66699 -2.33301 -20.167 -7 -34.5
s-11.334 -28.5 -20.001 -42.5l-275 -486c-10.667 -18.667 -22.334 -32.5 -35.001 -41.5s-26.334 -14.5 -41.001 -16.5v-27h201zM235.004 376.001l185 327h15v-327h-200z" />
    <glyph glyph-name="Ccedilla" unicode="&#xc7;" horiz-adv-x="833" 
d="M774 248l-22.998 0.00195312c-7.33301 -20 -19.666 -42.833 -36.999 -68.5s-40 -51.334 -68 -77.001s-61.833 -47 -101.5 -64s-83.834 -25.5 -132.501 -25.5c-41.333 0 -76.833 10.333 -106.5 31s-53.334 48 -71.001 82s-30.334 71.5 -38.001 112.5
s-11.5 82.833 -11.5 125.5c0 51.333 4.33301 98 13 140s23 78.667 43 110s47.5 56 82.5 74s77.833 27 128.5 27c32.667 0 64.167 -6.33301 94.5 -19s58.166 -29.834 83.499 -51.501s47.666 -46.167 66.999 -73.5s35.666 -56 48.999 -86h32v247h-25l-2 -5
c-5.33301 -10.667 -11 -18.667 -17 -24s-15.667 -8 -29 -8c-19.333 0 -36 1.5 -50 4.5s-30.333 7.83301 -49 14.5c-5.33301 1.33301 -10.666 3 -15.999 5c-22.667 7.33301 -47.334 13 -74.001 17s-61.334 6 -104.001 6c-50 0 -98 -9.66699 -144 -29s-87 -46.5 -123 -81.5
s-64.167 -75.5 -84.5 -121.5s-30.5 -94.667 -30.5 -146c0 -50 9.83301 -97.667 29.5 -143s46.667 -85.166 81 -119.499s73.833 -61.5 118.5 -81.5s91.334 -31 140.001 -33l-37 -83l11 -8c6 2 15.667 3.66699 29 5c30.667 -1.33301 46.334 -13.666 47.001 -36.999v-3
c0.666992 -0.666992 1 -1.33398 1 -2.00098c0 -10 -5.66699 -18.5 -17 -25.5s-24.666 -10.5 -39.999 -10.5c-21.333 0 -42 4 -62 12l-17 -35c13.333 -6 28 -10.167 44 -12.5s32.333 -3.5 49 -3.5c14.667 0 29.167 1.33301 43.5 4s27.833 7.16699 40.5 13.5
s23 14.833 31 25.5s12 23.667 12 39c0 24 -6.5 41.667 -19.5 53s-31.5 18.333 -55.5 21h-5h-4c-4.66699 0 -12.334 -0.666992 -23.001 -2c-4.66699 -0.666992 -8.66699 -1.33398 -12 -2.00098l24 51c62 1.33301 116.333 9 163 23l50 16c26.667 8.66699 42.334 13 47.001 13
c10.667 0 20.334 -4.5 29.001 -13.5s18.667 -22.167 30 -39.5h16v262z" />
    <glyph glyph-name="Egrave" unicode="&#xc8;" horiz-adv-x="778" 
d="M466 770l-140.998 152c-8.66699 8.66699 -16.834 15.334 -24.501 20.001s-16.834 7 -27.501 7c-11.333 0 -21.333 -3.83301 -30 -11.5s-13 -16.834 -13 -27.501c0 -16 7 -29 21 -39l165 -101h50zM133.002 122c0 -22.667 -0.830078 -39.998 -2.49707 -51.998
s-5 -21 -10 -27s-12 -10 -21 -12s-22.5 -3.33301 -40.5 -4v-27h621l56 199l-22 12l-7 -10c-28 -38.667 -49.667 -67.334 -65 -86.001s-32.666 -34.667 -51.999 -48s-42.333 -23.333 -69 -30s-60 -10 -100 -10h-105c-16.667 0 -27.167 3.16699 -31.5 9.5s-6.5 19.5 -6.5 39.5
v286h58c73.333 0 126.166 -13 158.499 -39s51.166 -68 56.499 -126h24v339h-24c-2.66699 -27.333 -10.334 -50.5 -23.001 -69.5s-29 -34.167 -49 -45.5s-42.167 -19.5 -66.5 -24.5s-49.833 -7.5 -76.5 -7.5h-58v312h164c50.667 0 94 -12.833 130 -38.5
s79 -69.834 129 -132.501l18 7l-76 191h-584v-27c17.333 0 30.666 -1 39.999 -3s16.5 -6.16699 21.5 -12.5s8.33301 -15.5 10 -27.5s2.5 -29.333 2.5 -52v-484z" />
    <glyph glyph-name="Eacute" unicode="&#xc9;" horiz-adv-x="778" 
d="M362 770l165.002 101c14 10 21 23 21 39c0 10.667 -4.33301 19.834 -13 27.501s-18.667 11.5 -30 11.5c-10.667 0 -19.834 -2.33301 -27.501 -7s-15.834 -11.334 -24.501 -20.001l-141 -152h50zM133.002 122c0 -22.667 -0.830078 -39.998 -2.49707 -51.998
s-5 -21 -10 -27s-12 -10 -21 -12s-22.5 -3.33301 -40.5 -4v-27h621l56 199l-22 12l-7 -10c-28 -38.667 -49.667 -67.334 -65 -86.001s-32.666 -34.667 -51.999 -48s-42.333 -23.333 -69 -30s-60 -10 -100 -10h-105c-16.667 0 -27.167 3.16699 -31.5 9.5s-6.5 19.5 -6.5 39.5
v286h58c73.333 0 126.166 -13 158.499 -39s51.166 -68 56.499 -126h24v339h-24c-2.66699 -27.333 -10.334 -50.5 -23.001 -69.5s-29 -34.167 -49 -45.5s-42.167 -19.5 -66.5 -24.5s-49.833 -7.5 -76.5 -7.5h-58v312h164c50.667 0 94 -12.833 130 -38.5
s79 -69.834 129 -132.501l18 7l-76 191h-584v-27c17.333 0 30.666 -1 39.999 -3s16.5 -6.16699 21.5 -12.5s8.33301 -15.5 10 -27.5s2.5 -29.333 2.5 -52v-484z" />
    <glyph glyph-name="Ecircumflex" unicode="&#xca;" horiz-adv-x="778" 
d="M348 942l-122 -172h48l114 100l113 -100h50l-124 172h-79zM133 122c0 -22.667 -0.830078 -39.998 -2.49707 -51.998s-5 -21 -10 -27s-12 -10 -21 -12s-22.5 -3.33301 -40.5 -4v-27h621l56 199l-22 12l-7 -10c-28 -38.667 -49.667 -67.334 -65 -86.001
s-32.666 -34.667 -51.999 -48s-42.333 -23.333 -69 -30s-60 -10 -100 -10h-105c-16.667 0 -27.167 3.16699 -31.5 9.5s-6.5 19.5 -6.5 39.5v286h58c73.333 0 126.166 -13 158.499 -39s51.166 -68 56.499 -126h24v339h-24c-2.66699 -27.333 -10.334 -50.5 -23.001 -69.5
s-29 -34.167 -49 -45.5s-42.167 -19.5 -66.5 -24.5s-49.833 -7.5 -76.5 -7.5h-58v312h164c50.667 0 94 -12.833 130 -38.5s79 -69.834 129 -132.501l18 7l-76 191h-584v-27c17.333 0 30.666 -1 39.999 -3s16.5 -6.16699 21.5 -12.5s8.33301 -15.5 10 -27.5
s2.5 -29.333 2.5 -52v-484z" />
    <glyph glyph-name="Edieresis" unicode="&#xcb;" horiz-adv-x="778" 
d="M491 899c-16.667 0 -30.667 -5.66699 -42 -17s-17 -25.333 -17 -42s5.66699 -30.667 17 -42s25.333 -17 42 -17c16 0 29.833 5.66699 41.5 17s17.5 25.333 17.5 42s-5.83301 30.667 -17.5 42s-25.5 17 -41.5 17zM285 781c16 0 29.833 5.66699 41.5 17
s17.5 25.333 17.5 42s-5.83301 30.667 -17.5 42s-25.5 17 -41.5 17c-16.667 0 -30.667 -5.66699 -42 -17s-17 -25.333 -17 -42s5.66699 -30.667 17 -42s25.333 -17 42 -17zM133 122c0 -22.667 -0.830078 -39.998 -2.49707 -51.998s-5 -21 -10 -27s-12 -10 -21 -12
s-22.5 -3.33301 -40.5 -4v-27h621l56 199l-22 12l-7 -10c-28 -38.667 -49.667 -67.334 -65 -86.001s-32.666 -34.667 -51.999 -48s-42.333 -23.333 -69 -30s-60 -10 -100 -10h-105c-16.667 0 -27.167 3.16699 -31.5 9.5s-6.5 19.5 -6.5 39.5v286h58
c73.333 0 126.166 -13 158.499 -39s51.166 -68 56.499 -126h24v339h-24c-2.66699 -27.333 -10.334 -50.5 -23.001 -69.5s-29 -34.167 -49 -45.5s-42.167 -19.5 -66.5 -24.5s-49.833 -7.5 -76.5 -7.5h-58v312h164c50.667 0 94 -12.833 130 -38.5s79 -69.834 129 -132.501
l18 7l-76 191h-584v-27c17.333 0 30.666 -1 39.999 -3s16.5 -6.16699 21.5 -12.5s8.33301 -15.5 10 -27.5s2.5 -29.333 2.5 -52v-484z" />
    <glyph glyph-name="Igrave" unicode="&#xcc;" horiz-adv-x="444" 
d="M294 770l-140.998 152c-8.66699 8.66699 -16.834 15.334 -24.501 20.001s-16.834 7 -27.501 7c-11.333 0 -21.333 -3.83301 -30 -11.5s-13 -16.834 -13 -27.501c0 -16 7 -29 21 -39l165 -101h50zM150.002 122c0 -23.333 -1 -40.833 -3 -52.5s-6.33301 -20.5 -13 -26.5
s-16.334 -10 -29.001 -12s-31.667 -3.33301 -57 -4v-27h349v27c-24.667 0 -43.5 1.16699 -56.5 3.5s-22.833 6.5 -29.5 12.5s-11 14.833 -13 26.5s-3 29.167 -3 52.5v484c0 23.333 1 40.833 3 52.5s6.33301 20.667 13 27s16.334 10.5 29.001 12.5s31.667 3 57 3v27h-349v-27
c24.667 0 43.5 -1 56.5 -3s22.833 -6.16699 29.5 -12.5s11 -15.333 13 -27s3 -29.167 3 -52.5v-484z" />
    <glyph glyph-name="Iacute" unicode="&#xcd;" horiz-adv-x="444" 
d="M190 770l165.002 101c14 10 21 23 21 39c0 10.667 -4.33301 19.834 -13 27.501s-18.667 11.5 -30 11.5c-10.667 0 -19.834 -2.33301 -27.501 -7s-15.834 -11.334 -24.501 -20.001l-141 -152h50zM150.002 122c0 -23.333 -1 -40.833 -3 -52.5s-6.33301 -20.5 -13 -26.5
s-16.334 -10 -29.001 -12s-31.667 -3.33301 -57 -4v-27h349v27c-24.667 0 -43.5 1.16699 -56.5 3.5s-22.833 6.5 -29.5 12.5s-11 14.833 -13 26.5s-3 29.167 -3 52.5v484c0 23.333 1 40.833 3 52.5s6.33301 20.667 13 27s16.334 10.5 29.001 12.5s31.667 3 57 3v27h-349v-27
c24.667 0 43.5 -1 56.5 -3s22.833 -6.16699 29.5 -12.5s11 -15.333 13 -27s3 -29.167 3 -52.5v-484z" />
    <glyph glyph-name="Icircumflex" unicode="&#xce;" horiz-adv-x="444" 
d="M176 942l-122 -172h48l114 100l113 -100h50l-124 172h-79zM150 122c0 -23.333 -1 -40.833 -3 -52.5s-6.33301 -20.5 -13 -26.5s-16.334 -10 -29.001 -12s-31.667 -3.33301 -57 -4v-27h349v27c-24.667 0 -43.5 1.16699 -56.5 3.5s-22.833 6.5 -29.5 12.5
s-11 14.833 -13 26.5s-3 29.167 -3 52.5v484c0 23.333 1 40.833 3 52.5s6.33301 20.667 13 27s16.334 10.5 29.001 12.5s31.667 3 57 3v27h-349v-27c24.667 0 43.5 -1 56.5 -3s22.833 -6.16699 29.5 -12.5s11 -15.333 13 -27s3 -29.167 3 -52.5v-484z" />
    <glyph glyph-name="Idieresis" unicode="&#xcf;" horiz-adv-x="444" 
d="M319 899c-16.667 0 -30.667 -5.66699 -42 -17s-17 -25.333 -17 -42s5.66699 -30.667 17 -42s25.333 -17 42 -17c16 0 29.833 5.66699 41.5 17s17.5 25.333 17.5 42s-5.83301 30.667 -17.5 42s-25.5 17 -41.5 17zM113 781c16 0 29.833 5.66699 41.5 17
s17.5 25.333 17.5 42s-5.83301 30.667 -17.5 42s-25.5 17 -41.5 17c-16.667 0 -30.667 -5.66699 -42 -17s-17 -25.333 -17 -42s5.66699 -30.667 17 -42s25.333 -17 42 -17zM150 122c0 -23.333 -1 -40.833 -3 -52.5s-6.33301 -20.5 -13 -26.5s-16.334 -10 -29.001 -12
s-31.667 -3.33301 -57 -4v-27h349v27c-24.667 0 -43.5 1.16699 -56.5 3.5s-22.833 6.5 -29.5 12.5s-11 14.833 -13 26.5s-3 29.167 -3 52.5v484c0 23.333 1 40.833 3 52.5s6.33301 20.667 13 27s16.334 10.5 29.001 12.5s31.667 3 57 3v27h-349v-27
c24.667 0 43.5 -1 56.5 -3s22.833 -6.16699 29.5 -12.5s11 -15.333 13 -27s3 -29.167 3 -52.5v-484z" />
    <glyph glyph-name="Eth" unicode="&#xd0;" horiz-adv-x="889" 
d="M278 385l227.998 0.000976562v49h-228v230c0 8.66699 1 15.167 3 19.5s6.66699 7.83301 14 10.5s18.833 4.5 34.5 5.5s38.5 1.5 68.5 1.5c44.667 0 85.167 -8.5 121.5 -25.5s67.333 -40.667 93 -71s45.334 -66.166 59.001 -107.499s20.5 -85.666 20.5 -132.999
c0 -48.667 -6 -93.334 -18 -134.001s-30.167 -76.334 -54.5 -107.001s-55 -54.334 -92 -71.001s-80.167 -25 -129.5 -25c-26.667 0 -47.5 1 -62.5 3s-26.667 6 -35 12s-14.166 15.167 -17.499 27.5s-5 29.833 -5 52.5v263zM132.998 385.001l0.000976562 -263
c0 -23.333 -1 -40.833 -3 -52.5s-5.83301 -20.5 -11.5 -26.5s-14 -10 -25 -12s-27.5 -3.33301 -49.5 -4v-27h421c54 0 104.333 8.5 151 25.5s87.334 41.333 122.001 73s61.5 70 80.5 115s28.5 95.167 28.5 150.5c0 54 -10.833 103.5 -32.5 148.5s-51.334 83.667 -89.001 116
s-80.667 57 -129 74s-98.5 25.5 -150.5 25.5h-402v-27c21.333 0 37.666 -1 48.999 -3s19.833 -6.16699 25.5 -12.5s9.5 -15.333 11.5 -27s3 -29.167 3 -52.5v-172h-89v-49h89z" />
    <glyph glyph-name="Ntilde" unicode="&#xd1;" horiz-adv-x="944" 
d="M610 909c-6.66699 -16 -13.5029 -28.167 -20.5029 -36.5s-17.167 -12.5 -30.5 -12.5c-10 0 -20 2 -30 6s-22 9.66699 -36 17l-3 1l-2 1c-16.667 7.33301 -30.667 12.833 -42 16.5s-24 5.5 -38 5.5c-31.333 0 -56.666 -11 -75.999 -33s-31.666 -49.333 -36.999 -82h37
c3.33301 13.333 9.5 24.5 18.5 33.5s20.167 13.5 33.5 13.5c10.667 0 29.334 -6.33301 56.001 -19c4 -2 7 -3.66699 9 -5c15.333 -8 29.5 -14.167 42.5 -18.5s26.167 -6.5 39.5 -6.5c32.667 0 58.167 11 76.5 33s31.5 50.667 39.5 86h-37zM169.997 660l2.99902 -0.00195312
l602 -674h40v621c0 39.333 6.5 64.833 19.5 76.5s37.833 17.5 74.5 17.5v27h-245v-27c42.667 0 72.167 -6.33301 88.5 -19s24.5 -37.667 24.5 -75v-411l-469 532h-269v-27c4.66699 -0.666992 7.66699 -1 9 -1c9.33301 0 18.5 -0.666992 27.5 -2
s17.833 -3.16602 26.5 -5.49902s15.834 -5.66602 21.501 -9.99902s8.5 -9.83301 8.5 -16.5v-545c0 -58.667 -32.667 -90 -98 -94v-27h252v27c-36 0 -64.333 7.16699 -85 21.5s-31 38.5 -31 72.5v539z" />
    <glyph glyph-name="Ograve" unicode="&#xd2;" horiz-adv-x="833" 
d="M487 770l-140.998 152c-8.66699 8.66699 -16.834 15.334 -24.501 20.001s-16.834 7 -27.501 7c-11.333 0 -21.333 -3.83301 -30 -11.5s-13 -16.834 -13 -27.501c0 -16 7 -29 21 -39l165 -101h50zM643.002 364c0 -43.333 -3.83301 -85.333 -11.5 -126
s-20.334 -78 -38.001 -112s-41.167 -61.333 -70.5 -82s-64.666 -31 -105.999 -31s-76.833 10.333 -106.5 31s-53.334 48 -71.001 82s-30.334 71.5 -38.001 112.5s-11.5 82.833 -11.5 125.5s3.83301 84.5 11.5 125.5s20.334 78.5 38.001 112.5s41.334 61.333 71.001 82
s65.167 31 106.5 31s76.833 -10.333 106.5 -31s53.167 -48 70.5 -82s29.833 -71.333 37.5 -112s11.5 -82.667 11.5 -126zM798.002 364c0 51.333 -10.167 100 -30.5 146s-48.5 86.5 -84.5 121.5s-77 62.167 -123 81.5s-93.667 29 -143 29c-50 0 -98 -9.66699 -144 -29
s-87 -46.5 -123 -81.5s-64.167 -75.5 -84.5 -121.5s-30.5 -94.667 -30.5 -146s10.167 -100 30.5 -146s48.5 -86.5 84.5 -121.5s77 -62.167 123 -81.5s94 -29 144 -29c49.333 0 97 9.66699 143 29s87 46.5 123 81.5s64.167 75.5 84.5 121.5s30.5 94.667 30.5 146z" />
    <glyph glyph-name="Oacute" unicode="&#xd3;" horiz-adv-x="833" 
d="M383 770l165.002 101c14 10 21 23 21 39c0 10.667 -4.33301 19.834 -13 27.501s-18.667 11.5 -30 11.5c-10.667 0 -19.834 -2.33301 -27.501 -7s-15.834 -11.334 -24.501 -20.001l-141 -152h50zM643.002 364c0 -43.333 -3.83301 -85.333 -11.5 -126
s-20.334 -78 -38.001 -112s-41.167 -61.333 -70.5 -82s-64.666 -31 -105.999 -31s-76.833 10.333 -106.5 31s-53.334 48 -71.001 82s-30.334 71.5 -38.001 112.5s-11.5 82.833 -11.5 125.5s3.83301 84.5 11.5 125.5s20.334 78.5 38.001 112.5s41.334 61.333 71.001 82
s65.167 31 106.5 31s76.833 -10.333 106.5 -31s53.167 -48 70.5 -82s29.833 -71.333 37.5 -112s11.5 -82.667 11.5 -126zM798.002 364c0 51.333 -10.167 100 -30.5 146s-48.5 86.5 -84.5 121.5s-77 62.167 -123 81.5s-93.667 29 -143 29c-50 0 -98 -9.66699 -144 -29
s-87 -46.5 -123 -81.5s-64.167 -75.5 -84.5 -121.5s-30.5 -94.667 -30.5 -146s10.167 -100 30.5 -146s48.5 -86.5 84.5 -121.5s77 -62.167 123 -81.5s94 -29 144 -29c49.333 0 97 9.66699 143 29s87 46.5 123 81.5s64.167 75.5 84.5 121.5s30.5 94.667 30.5 146z" />
    <glyph glyph-name="Ocircumflex" unicode="&#xd4;" horiz-adv-x="833" 
d="M369 942l-122 -172h48l114 100l113 -100h50l-124 172h-79zM643 364c0 -43.333 -3.83301 -85.333 -11.5 -126s-20.334 -78 -38.001 -112s-41.167 -61.333 -70.5 -82s-64.666 -31 -105.999 -31s-76.833 10.333 -106.5 31s-53.334 48 -71.001 82s-30.334 71.5 -38.001 112.5
s-11.5 82.833 -11.5 125.5s3.83301 84.5 11.5 125.5s20.334 78.5 38.001 112.5s41.334 61.333 71.001 82s65.167 31 106.5 31s76.833 -10.333 106.5 -31s53.167 -48 70.5 -82s29.833 -71.333 37.5 -112s11.5 -82.667 11.5 -126zM798 364c0 51.333 -10.167 100 -30.5 146
s-48.5 86.5 -84.5 121.5s-77 62.167 -123 81.5s-93.667 29 -143 29c-50 0 -98 -9.66699 -144 -29s-87 -46.5 -123 -81.5s-64.167 -75.5 -84.5 -121.5s-30.5 -94.667 -30.5 -146s10.167 -100 30.5 -146s48.5 -86.5 84.5 -121.5s77 -62.167 123 -81.5s94 -29 144 -29
c49.333 0 97 9.66699 143 29s87 46.5 123 81.5s64.167 75.5 84.5 121.5s30.5 94.667 30.5 146z" />
    <glyph glyph-name="Otilde" unicode="&#xd5;" horiz-adv-x="833" 
d="M548 909c-6.66699 -16 -13.5029 -28.167 -20.5029 -36.5s-17.167 -12.5 -30.5 -12.5c-10 0 -20 2 -30 6s-22 9.66699 -36 17l-3 1l-2 1c-16.667 7.33301 -30.667 12.833 -42 16.5s-24 5.5 -38 5.5c-31.333 0 -56.666 -11 -75.999 -33s-31.666 -49.333 -36.999 -82h37
c3.33301 13.333 9.5 24.5 18.5 33.5s20.167 13.5 33.5 13.5c10.667 0 29.334 -6.33301 56.001 -19c4 -2 7 -3.66699 9 -5c15.333 -8 29.5 -14.167 42.5 -18.5s26.167 -6.5 39.5 -6.5c32.667 0 58.167 11 76.5 33s31.5 50.667 39.5 86h-37zM642.997 364
c0 -43.333 -3.83301 -85.333 -11.5 -126s-20.334 -78 -38.001 -112s-41.167 -61.333 -70.5 -82s-64.666 -31 -105.999 -31s-76.833 10.333 -106.5 31s-53.334 48 -71.001 82s-30.334 71.5 -38.001 112.5s-11.5 82.833 -11.5 125.5s3.83301 84.5 11.5 125.5
s20.334 78.5 38.001 112.5s41.334 61.333 71.001 82s65.167 31 106.5 31s76.833 -10.333 106.5 -31s53.167 -48 70.5 -82s29.833 -71.333 37.5 -112s11.5 -82.667 11.5 -126zM797.997 364c0 51.333 -10.167 100 -30.5 146s-48.5 86.5 -84.5 121.5s-77 62.167 -123 81.5
s-93.667 29 -143 29c-50 0 -98 -9.66699 -144 -29s-87 -46.5 -123 -81.5s-64.167 -75.5 -84.5 -121.5s-30.5 -94.667 -30.5 -146s10.167 -100 30.5 -146s48.5 -86.5 84.5 -121.5s77 -62.167 123 -81.5s94 -29 144 -29c49.333 0 97 9.66699 143 29s87 46.5 123 81.5
s64.167 75.5 84.5 121.5s30.5 94.667 30.5 146z" />
    <glyph glyph-name="Odieresis" unicode="&#xd6;" horiz-adv-x="833" 
d="M512 899c-16.667 0 -30.667 -5.66699 -42 -17s-17 -25.333 -17 -42s5.66699 -30.667 17 -42s25.333 -17 42 -17c16 0 29.833 5.66699 41.5 17s17.5 25.333 17.5 42s-5.83301 30.667 -17.5 42s-25.5 17 -41.5 17zM306 781c16 0 29.833 5.66699 41.5 17
s17.5 25.333 17.5 42s-5.83301 30.667 -17.5 42s-25.5 17 -41.5 17c-16.667 0 -30.667 -5.66699 -42 -17s-17 -25.333 -17 -42s5.66699 -30.667 17 -42s25.333 -17 42 -17zM643 364c0 -43.333 -3.83301 -85.333 -11.5 -126s-20.334 -78 -38.001 -112
s-41.167 -61.333 -70.5 -82s-64.666 -31 -105.999 -31s-76.833 10.333 -106.5 31s-53.334 48 -71.001 82s-30.334 71.5 -38.001 112.5s-11.5 82.833 -11.5 125.5s3.83301 84.5 11.5 125.5s20.334 78.5 38.001 112.5s41.334 61.333 71.001 82s65.167 31 106.5 31
s76.833 -10.333 106.5 -31s53.167 -48 70.5 -82s29.833 -71.333 37.5 -112s11.5 -82.667 11.5 -126zM798 364c0 51.333 -10.167 100 -30.5 146s-48.5 86.5 -84.5 121.5s-77 62.167 -123 81.5s-93.667 29 -143 29c-50 0 -98 -9.66699 -144 -29s-87 -46.5 -123 -81.5
s-64.167 -75.5 -84.5 -121.5s-30.5 -94.667 -30.5 -146s10.167 -100 30.5 -146s48.5 -86.5 84.5 -121.5s77 -62.167 123 -81.5s94 -29 144 -29c49.333 0 97 9.66699 143 29s87 46.5 123 81.5s64.167 75.5 84.5 121.5s30.5 94.667 30.5 146z" />
    <glyph glyph-name="multiply" unicode="&#xd7;" horiz-adv-x="600" 
d="M249 222l-170 -170l50 -52l171 171l171 -171l50 52l-170 170l170 170l-50 52l-171 -171l-171 171l-50 -52z" />
    <glyph glyph-name="Oslash" unicode="&#xd8;" horiz-adv-x="833" 
d="M599 589c15.333 -31.333 26.5 -66.5 33.5 -105.5s10.5 -78.833 10.5 -119.5c0 -43.333 -3.83301 -85.333 -11.5 -126s-20.334 -78 -38.001 -112s-41.167 -61.333 -70.5 -82s-64.666 -31 -105.999 -31c-34 0 -64 7.16699 -90 21.5s-48.333 34.5 -67 60.5zM669 763
l-54.999 -79.001c-60.667 38.667 -126.334 58 -197.001 58c-50 0 -98 -9.66699 -144 -29s-87 -46.5 -123 -81.5s-64.167 -75.5 -84.5 -121.5s-30.5 -94.667 -30.5 -146c0 -59.333 13.667 -115.166 41 -167.499s64 -95.833 110 -130.5l-89 -129h54l72 105
c28.667 -18 59.5 -31.833 92.5 -41.5s66.833 -14.5 101.5 -14.5c49.333 0 97 9.66699 143 29s87 46.5 123 81.5s64.167 75.5 84.5 121.5s30.5 94.667 30.5 146c0 59.333 -13.333 114.833 -40 166.5s-63 95.167 -109 130.5l70 102h-50zM235.001 135.999
c-15.333 31.333 -26.668 66.833 -34.001 106.5s-11 80.167 -11 121.5c0 42.667 3.83301 84.5 11.5 125.5s20.334 78.5 38.001 112.5s41.334 61.333 71.001 82s65.167 31 106.5 31c35.333 0 66.166 -7.5 92.499 -22.5s48.5 -36.167 66.5 -63.5z" />
    <glyph glyph-name="Ugrave" unicode="&#xd9;" horiz-adv-x="944" 
d="M568 770l-140.998 152c-8.66699 8.66699 -16.834 15.334 -24.501 20.001s-16.834 7 -27.501 7c-11.333 0 -21.333 -3.83301 -30 -11.5s-13 -16.834 -13 -27.501c0 -16 7 -29 21 -39l165 -101h50zM274.002 606c0 23.333 1.00098 40.832 3.00098 52.499
s6.33301 20.667 13 27s16.334 10.5 29.001 12.5s31.667 3 57 3v27h-332v-27c31.333 0 53.333 -7.16699 66 -21.5s19 -38.833 19 -73.5v-351c0 -50 8.5 -92.333 25.5 -127s40.667 -62.5 71 -83.5s65.666 -36 105.999 -45s85.5 -13.5 135.5 -13.5c44.667 0 87 3.5 127 10.5
s76.833 19.5 110.5 37.5s60.5 43 80.5 75s30 71.667 30 119v379c0 39.333 6.5 64.833 19.5 76.5s37.833 17.5 74.5 17.5v27h-245v-27c42.667 0 72.167 -6.33301 88.5 -19s24.5 -37.667 24.5 -75v-383c0 -37.333 -7.83301 -69.666 -23.5 -96.999s-37 -49.333 -64 -66
s-57 -28.834 -90 -36.501s-66.833 -11.5 -101.5 -11.5c-32 0 -61.167 3.83301 -87.5 11.5s-49.833 20.5 -70.5 38.5s-36.834 42.833 -48.501 74.5s-17.5 70.834 -17.5 117.501v351z" />
    <glyph glyph-name="Uacute" unicode="&#xda;" horiz-adv-x="944" 
d="M464 770l165.002 101c14 10 21 23 21 39c0 10.667 -4.33301 19.834 -13 27.501s-18.667 11.5 -30 11.5c-10.667 0 -19.834 -2.33301 -27.501 -7s-15.834 -11.334 -24.501 -20.001l-141 -152h50zM274.002 606c0 23.333 1.00098 40.832 3.00098 52.499
s6.33301 20.667 13 27s16.334 10.5 29.001 12.5s31.667 3 57 3v27h-332v-27c31.333 0 53.333 -7.16699 66 -21.5s19 -38.833 19 -73.5v-351c0 -50 8.5 -92.333 25.5 -127s40.667 -62.5 71 -83.5s65.666 -36 105.999 -45s85.5 -13.5 135.5 -13.5c44.667 0 87 3.5 127 10.5
s76.833 19.5 110.5 37.5s60.5 43 80.5 75s30 71.667 30 119v379c0 39.333 6.5 64.833 19.5 76.5s37.833 17.5 74.5 17.5v27h-245v-27c42.667 0 72.167 -6.33301 88.5 -19s24.5 -37.667 24.5 -75v-383c0 -37.333 -7.83301 -69.666 -23.5 -96.999s-37 -49.333 -64 -66
s-57 -28.834 -90 -36.501s-66.833 -11.5 -101.5 -11.5c-32 0 -61.167 3.83301 -87.5 11.5s-49.833 20.5 -70.5 38.5s-36.834 42.833 -48.501 74.5s-17.5 70.834 -17.5 117.501v351z" />
    <glyph glyph-name="Ucircumflex" unicode="&#xdb;" horiz-adv-x="944" 
d="M450 942l-122 -172h48l114 100l113 -100h50l-124 172h-79zM274 606c0 23.333 1.00098 40.832 3.00098 52.499s6.33301 20.667 13 27s16.334 10.5 29.001 12.5s31.667 3 57 3v27h-332v-27c31.333 0 53.333 -7.16699 66 -21.5s19 -38.833 19 -73.5v-351
c0 -50 8.5 -92.333 25.5 -127s40.667 -62.5 71 -83.5s65.666 -36 105.999 -45s85.5 -13.5 135.5 -13.5c44.667 0 87 3.5 127 10.5s76.833 19.5 110.5 37.5s60.5 43 80.5 75s30 71.667 30 119v379c0 39.333 6.5 64.833 19.5 76.5s37.833 17.5 74.5 17.5v27h-245v-27
c42.667 0 72.167 -6.33301 88.5 -19s24.5 -37.667 24.5 -75v-383c0 -37.333 -7.83301 -69.666 -23.5 -96.999s-37 -49.333 -64 -66s-57 -28.834 -90 -36.501s-66.833 -11.5 -101.5 -11.5c-32 0 -61.167 3.83301 -87.5 11.5s-49.833 20.5 -70.5 38.5
s-36.834 42.833 -48.501 74.5s-17.5 70.834 -17.5 117.501v351z" />
    <glyph glyph-name="Udieresis" unicode="&#xdc;" horiz-adv-x="944" 
d="M593 899c-16.667 0 -30.667 -5.66699 -42 -17s-17 -25.333 -17 -42s5.66699 -30.667 17 -42s25.333 -17 42 -17c16 0 29.833 5.66699 41.5 17s17.5 25.333 17.5 42s-5.83301 30.667 -17.5 42s-25.5 17 -41.5 17zM387 781c16 0 29.833 5.66699 41.5 17
s17.5 25.333 17.5 42s-5.83301 30.667 -17.5 42s-25.5 17 -41.5 17c-16.667 0 -30.667 -5.66699 -42 -17s-17 -25.333 -17 -42s5.66699 -30.667 17 -42s25.333 -17 42 -17zM274 606c0 23.333 1.00098 40.832 3.00098 52.499s6.33301 20.667 13 27s16.334 10.5 29.001 12.5
s31.667 3 57 3v27h-332v-27c31.333 0 53.333 -7.16699 66 -21.5s19 -38.833 19 -73.5v-351c0 -50 8.5 -92.333 25.5 -127s40.667 -62.5 71 -83.5s65.666 -36 105.999 -45s85.5 -13.5 135.5 -13.5c44.667 0 87 3.5 127 10.5s76.833 19.5 110.5 37.5s60.5 43 80.5 75
s30 71.667 30 119v379c0 39.333 6.5 64.833 19.5 76.5s37.833 17.5 74.5 17.5v27h-245v-27c42.667 0 72.167 -6.33301 88.5 -19s24.5 -37.667 24.5 -75v-383c0 -37.333 -7.83301 -69.666 -23.5 -96.999s-37 -49.333 -64 -66s-57 -28.834 -90 -36.501
s-66.833 -11.5 -101.5 -11.5c-32 0 -61.167 3.83301 -87.5 11.5s-49.833 20.5 -70.5 38.5s-36.834 42.833 -48.501 74.5s-17.5 70.834 -17.5 117.501v351z" />
    <glyph glyph-name="Yacute" unicode="&#xdd;" horiz-adv-x="889" 
d="M418 770l165.002 101c14 10 21 23 21 39c0 10.667 -4.33301 19.834 -13 27.501s-18.667 11.5 -30 11.5c-10.667 0 -19.834 -2.33301 -27.501 -7s-15.834 -11.334 -24.501 -20.001l-141 -152h50zM331.002 646c0 0.666992 -0.336914 1.33398 -1.00391 2.00098
c-4 6 -7.16699 11 -9.5 15s-3.5 7.33301 -3.5 10c0.666992 9.33301 7.33398 16.166 20.001 20.499s34.334 6.83301 65.001 7.5v27h-377v-27c21.333 0 38 -0.666992 50 -2s21.5 -3.5 28.5 -6.5s13 -7 18 -12s11.167 -12.5 18.5 -22.5l239 -331v-205
c0 -23.333 -1.16699 -40.833 -3.5 -52.5s-7.16602 -20.5 -14.499 -26.5s-18 -10 -32 -12s-35.333 -3.33301 -64 -4v-27h373v27c-28 0 -49.333 1.16699 -64 3.5s-25.5 6.5 -32.5 12.5s-11.667 14.833 -14 26.5s-3.5 29.167 -3.5 52.5v242l176 234l3 5
c28 36.667 52 62.167 72 76.5s50 21.5 90 21.5v27h-233v-27c26.667 0 45.667 -3 57 -9s17 -14 17 -24c0 -5.33301 -1.66699 -11 -5 -17s-7.66602 -12.333 -12.999 -19l-176 -233z" />
    <glyph glyph-name="Thorn" unicode="&#xde;" horiz-adv-x="722" 
d="M429 239c46 0 84.999 4.33301 116.999 13s57.5 20.667 76.5 36s32.5 32.5 40.5 51.5s12 39.833 12 62.5c0 70 -28.667 122.833 -86 158.5s-140.666 53.5 -249.999 53.5h-64c0 20.667 1.33301 36.5 4 47.5s7.33398 19.333 14.001 25s16.167 9.5 28.5 11.5s30.833 3 55.5 3
v27h-349v-27c24.667 0 43.5 -1 56.5 -3s22.833 -6.16699 29.5 -12.5s11 -15.333 13 -27s3 -29.167 3 -52.5v-484c0 -23.333 -1 -40.833 -3 -52.5s-6.33301 -20.5 -13 -26.5s-16.334 -10 -29.001 -12s-31.667 -3.33301 -57 -4v-27h349v27c-24.667 0 -43.5 1.16699 -56.5 3.5
s-22.833 6.5 -29.5 12.5s-11 14.833 -13 26.5s-3 29.167 -3 52.5v117h154zM274.999 266l0.00195312 311c5.33301 4 12.666 6.66699 21.999 8s24 2 44 2c57.333 0 103.166 -12.333 137.499 -37s51.5 -64 51.5 -118c0 -50.667 -15 -91 -45 -121s-73 -45 -129 -45h-81z" />
    <glyph glyph-name="germandbls" unicode="&#xdf;" 
d="M273 382c31.333 -2.66699 55.3359 -6.99707 72.0029 -12.9971s29 -15.833 37 -29.5s13.333 -32.834 16 -57.501s4 -61.334 4 -110.001c0 -46.667 -4.5 -84.834 -13.5 -114.501s-23.167 -44.5 -42.5 -44.5c-9.33301 0 -17.5 3 -24.5 9s-10.5 13.667 -10.5 23
c0 2 1 6.33301 3 13c1.33301 5.33301 2.33301 8.66602 3 9.99902c4 14.667 6 26.334 6 35.001c0 6.66699 -2.66699 12 -8 16s-12 6 -20 6c-12.667 0 -22.167 -4.66699 -28.5 -14s-9.5 -20.666 -9.5 -33.999c0 -31.333 9.33301 -54.333 28 -69s46 -22 82 -22
c27.333 0 51.333 5.66699 72 17s37.667 26.666 51 45.999s23.333 41 30 65s10 49 10 75c0 52.667 -15.833 97 -47.5 133s-73.834 60 -126.501 72v10c40 14 71.667 33.5 95 58.5s35 57.167 35 96.5c0 54.667 -19 98 -57 130s-85 48 -141 48
c-72.667 0 -125.834 -18.833 -159.501 -56.5s-50.5 -93.167 -50.5 -166.5v-453c0 -16 -3 -25.833 -9 -29.5s-22 -6.16699 -48 -7.5v-24h216v24c-20.667 1.33301 -33.5 3.83301 -38.5 7.5s-7.83301 13.5 -8.5 29.5v527c1.33301 42 8.66602 73.333 21.999 94s35 31 65 31
c32.667 0 55 -11.167 67 -33.5s18 -61.5 18 -117.5c0 -54 -6.33301 -93.5 -19 -118.5s-36 -37.5 -70 -37.5v-24z" />
    <glyph glyph-name="agrave" unicode="&#xe0;" 
d="M364 505l-140.998 152c-8.66699 8.66699 -16.834 15.334 -24.501 20.001s-16.834 7 -27.501 7c-11.333 0 -21.333 -3.83301 -30 -11.5s-13 -16.834 -13 -27.501c0 -16 7 -29 21 -39l165 -101h50zM354.002 88c-16 -14 -31.832 -25.5 -47.499 -34.5
s-31.167 -13.5 -46.5 -13.5c-24.667 0 -44.834 6.66699 -60.501 20s-23.5 32 -23.5 56c0 28 13.167 53.667 39.5 77s72.5 44.333 138.5 63v-168zM537.003 75c-4 -11.333 -10.6709 -20.001 -20.0039 -26.001s-19.333 -9 -30 -9c-7.33301 0 -12.666 2.33301 -15.999 7
s-5 13.334 -5 26.001v286c0 31.333 -13.333 55.666 -40 72.999s-63.667 26 -111 26c-36 0 -70 -4.83301 -102 -14.5s-59.667 -22.334 -83 -38.001s-41.666 -32.334 -54.999 -50.001s-20 -33.5 -20 -47.5c0 -39.333 17 -59 51 -59c41.333 0 62 19.333 62 58
c0 4 -0.666992 10 -2 18c-0.666992 2.66699 -1 6.33398 -1 11.001c0 28 8.33301 49.833 25 65.5s39 23.5 67 23.5c26 0 48.667 -7.66699 68 -23s29 -36.666 29 -63.999v-57c-44.667 -14 -84.167 -28 -118.5 -42s-64.166 -29.167 -89.499 -45.5s-45 -34.166 -59 -53.499
s-21 -40.333 -21 -63c0 -30 12.5 -52.667 37.5 -68s53.5 -23 85.5 -23c30.667 0 59.334 6 86.001 18s52.667 29.333 78 52c6 -25.333 17.333 -43.333 34 -54s39 -16 67 -16c25.333 0 47 7.5 65 22.5s30.333 34.5 37 58.5z" />
    <glyph glyph-name="aacute" unicode="&#xe1;" 
d="M260 505l165.002 101c14 10 21 23 21 39c0 10.667 -4.33301 19.834 -13 27.501s-18.667 11.5 -30 11.5c-10.667 0 -19.834 -2.33301 -27.501 -7s-15.834 -11.334 -24.501 -20.001l-141 -152h50zM354.002 88c-16 -14 -31.832 -25.5 -47.499 -34.5
s-31.167 -13.5 -46.5 -13.5c-24.667 0 -44.834 6.66699 -60.501 20s-23.5 32 -23.5 56c0 28 13.167 53.667 39.5 77s72.5 44.333 138.5 63v-168zM537.003 75c-4 -11.333 -10.6709 -20.001 -20.0039 -26.001s-19.333 -9 -30 -9c-7.33301 0 -12.666 2.33301 -15.999 7
s-5 13.334 -5 26.001v286c0 31.333 -13.333 55.666 -40 72.999s-63.667 26 -111 26c-36 0 -70 -4.83301 -102 -14.5s-59.667 -22.334 -83 -38.001s-41.666 -32.334 -54.999 -50.001s-20 -33.5 -20 -47.5c0 -39.333 17 -59 51 -59c41.333 0 62 19.333 62 58
c0 4 -0.666992 10 -2 18c-0.666992 2.66699 -1 6.33398 -1 11.001c0 28 8.33301 49.833 25 65.5s39 23.5 67 23.5c26 0 48.667 -7.66699 68 -23s29 -36.666 29 -63.999v-57c-44.667 -14 -84.167 -28 -118.5 -42s-64.166 -29.167 -89.499 -45.5s-45 -34.166 -59 -53.499
s-21 -40.333 -21 -63c0 -30 12.5 -52.667 37.5 -68s53.5 -23 85.5 -23c30.667 0 59.334 6 86.001 18s52.667 29.333 78 52c6 -25.333 17.333 -43.333 34 -54s39 -16 67 -16c25.333 0 47 7.5 65 22.5s30.333 34.5 37 58.5z" />
    <glyph glyph-name="acircumflex" unicode="&#xe2;" 
d="M246 677l-122 -172h48l114 100l113 -100h50l-124 172h-79zM354 88c-16 -14 -31.832 -25.5 -47.499 -34.5s-31.167 -13.5 -46.5 -13.5c-24.667 0 -44.834 6.66699 -60.501 20s-23.5 32 -23.5 56c0 28 13.167 53.667 39.5 77s72.5 44.333 138.5 63v-168zM537.001 75
c-4 -11.333 -10.6709 -20.001 -20.0039 -26.001s-19.333 -9 -30 -9c-7.33301 0 -12.666 2.33301 -15.999 7s-5 13.334 -5 26.001v286c0 31.333 -13.333 55.666 -40 72.999s-63.667 26 -111 26c-36 0 -70 -4.83301 -102 -14.5s-59.667 -22.334 -83 -38.001
s-41.666 -32.334 -54.999 -50.001s-20 -33.5 -20 -47.5c0 -39.333 17 -59 51 -59c41.333 0 62 19.333 62 58c0 4 -0.666992 10 -2 18c-0.666992 2.66699 -1 6.33398 -1 11.001c0 28 8.33301 49.833 25 65.5s39 23.5 67 23.5c26 0 48.667 -7.66699 68 -23
s29 -36.666 29 -63.999v-57c-44.667 -14 -84.167 -28 -118.5 -42s-64.166 -29.167 -89.499 -45.5s-45 -34.166 -59 -53.499s-21 -40.333 -21 -63c0 -30 12.5 -52.667 37.5 -68s53.5 -23 85.5 -23c30.667 0 59.334 6 86.001 18s52.667 29.333 78 52
c6 -25.333 17.333 -43.333 34 -54s39 -16 67 -16c25.333 0 47 7.5 65 22.5s30.333 34.5 37 58.5z" />
    <glyph glyph-name="atilde" unicode="&#xe3;" 
d="M425 644c-6.66699 -16 -13.5029 -28.167 -20.5029 -36.5s-17.167 -12.5 -30.5 -12.5c-10 0 -20 2 -30 6s-22 9.66699 -36 17l-3 1l-2 1c-16.667 7.33301 -30.667 12.833 -42 16.5s-24 5.5 -38 5.5c-31.333 0 -56.666 -11 -75.999 -33s-31.666 -49.333 -36.999 -82h37
c3.33301 13.333 9.5 24.5 18.5 33.5s20.167 13.5 33.5 13.5c10.667 0 29.334 -6.33301 56.001 -19c4 -2 7 -3.66699 9 -5c15.333 -8 29.5 -14.167 42.5 -18.5s26.167 -6.5 39.5 -6.5c32.667 0 58.167 11 76.5 33s31.5 50.667 39.5 86h-37zM353.997 88
c-16 -14 -31.832 -25.5 -47.499 -34.5s-31.167 -13.5 -46.5 -13.5c-24.667 0 -44.834 6.66699 -60.501 20s-23.5 32 -23.5 56c0 28 13.167 53.667 39.5 77s72.5 44.333 138.5 63v-168zM536.998 75c-4 -11.333 -10.6709 -20.001 -20.0039 -26.001s-19.333 -9 -30 -9
c-7.33301 0 -12.666 2.33301 -15.999 7s-5 13.334 -5 26.001v286c0 31.333 -13.333 55.666 -40 72.999s-63.667 26 -111 26c-36 0 -70 -4.83301 -102 -14.5s-59.667 -22.334 -83 -38.001s-41.666 -32.334 -54.999 -50.001s-20 -33.5 -20 -47.5c0 -39.333 17 -59 51 -59
c41.333 0 62 19.333 62 58c0 4 -0.666992 10 -2 18c-0.666992 2.66699 -1 6.33398 -1 11.001c0 28 8.33301 49.833 25 65.5s39 23.5 67 23.5c26 0 48.667 -7.66699 68 -23s29 -36.666 29 -63.999v-57c-44.667 -14 -84.167 -28 -118.5 -42s-64.166 -29.167 -89.499 -45.5
s-45 -34.166 -59 -53.499s-21 -40.333 -21 -63c0 -30 12.5 -52.667 37.5 -68s53.5 -23 85.5 -23c30.667 0 59.334 6 86.001 18s52.667 29.333 78 52c6 -25.333 17.333 -43.333 34 -54s39 -16 67 -16c25.333 0 47 7.5 65 22.5s30.333 34.5 37 58.5z" />
    <glyph glyph-name="adieresis" unicode="&#xe4;" 
d="M389 634c-16.667 0 -30.667 -5.66699 -42 -17s-17 -25.333 -17 -42s5.66699 -30.667 17 -42s25.333 -17 42 -17c16 0 29.833 5.66699 41.5 17s17.5 25.333 17.5 42s-5.83301 30.667 -17.5 42s-25.5 17 -41.5 17zM183 516c16 0 29.833 5.66699 41.5 17
s17.5 25.333 17.5 42s-5.83301 30.667 -17.5 42s-25.5 17 -41.5 17c-16.667 0 -30.667 -5.66699 -42 -17s-17 -25.333 -17 -42s5.66699 -30.667 17 -42s25.333 -17 42 -17zM354 88c-16 -14 -31.832 -25.5 -47.499 -34.5s-31.167 -13.5 -46.5 -13.5
c-24.667 0 -44.834 6.66699 -60.501 20s-23.5 32 -23.5 56c0 28 13.167 53.667 39.5 77s72.5 44.333 138.5 63v-168zM537.001 75c-4 -11.333 -10.6709 -20.001 -20.0039 -26.001s-19.333 -9 -30 -9c-7.33301 0 -12.666 2.33301 -15.999 7s-5 13.334 -5 26.001v286
c0 31.333 -13.333 55.666 -40 72.999s-63.667 26 -111 26c-36 0 -70 -4.83301 -102 -14.5s-59.667 -22.334 -83 -38.001s-41.666 -32.334 -54.999 -50.001s-20 -33.5 -20 -47.5c0 -39.333 17 -59 51 -59c41.333 0 62 19.333 62 58c0 4 -0.666992 10 -2 18
c-0.666992 2.66699 -1 6.33398 -1 11.001c0 28 8.33301 49.833 25 65.5s39 23.5 67 23.5c26 0 48.667 -7.66699 68 -23s29 -36.666 29 -63.999v-57c-44.667 -14 -84.167 -28 -118.5 -42s-64.166 -29.167 -89.499 -45.5s-45 -34.166 -59 -53.499s-21 -40.333 -21 -63
c0 -30 12.5 -52.667 37.5 -68s53.5 -23 85.5 -23c30.667 0 59.334 6 86.001 18s52.667 29.333 78 52c6 -25.333 17.333 -43.333 34 -54s39 -16 67 -16c25.333 0 47 7.5 65 22.5s30.333 34.5 37 58.5z" />
    <glyph glyph-name="aring" unicode="&#xe5;" 
d="M287 715c-14 0 -27.832 -2.99902 -41.499 -8.99902s-25.834 -14.667 -36.501 -26c-22.667 -22.667 -34 -48.334 -34 -77.001c0 -29.333 11.333 -55.333 34 -78s48.667 -34 78 -34c14 0 27.667 3 41 9s25.5 14.5 36.5 25.5s19.5 23.167 25.5 36.5s9 27 9 41
s-3 27.667 -9 41s-14.5 25.5 -25.5 36.5s-23.333 19.5 -37 25.5s-27.167 9 -40.5 9zM287.001 662.001c16 0 29.833 -5.83301 41.5 -17.5s17.5 -25.5 17.5 -41.5c0 -16.667 -5.66699 -30.667 -17 -42s-25.333 -17 -42 -17s-30.667 5.66699 -42 17s-17 25.333 -17 42
s5.66699 30.667 17 42s25.333 17 42 17zM354.001 88.001c-16 -14 -31.832 -25.5 -47.499 -34.5s-31.167 -13.5 -46.5 -13.5c-24.667 0 -44.834 6.66699 -60.501 20s-23.5 32 -23.5 56c0 28 13.167 53.667 39.5 77s72.5 44.333 138.5 63v-168zM537.002 75.001
c-4 -11.333 -10.6709 -20.001 -20.0039 -26.001s-19.333 -9 -30 -9c-7.33301 0 -12.666 2.33301 -15.999 7s-5 13.334 -5 26.001v286c0 31.333 -13.333 55.666 -40 72.999s-63.667 26 -111 26c-36 0 -70 -4.83301 -102 -14.5s-59.667 -22.334 -83 -38.001
s-41.666 -32.334 -54.999 -50.001s-20 -33.5 -20 -47.5c0 -39.333 17 -59 51 -59c41.333 0 62 19.333 62 58c0 4 -0.666992 10 -2 18c-0.666992 2.66699 -1 6.33398 -1 11.001c0 28 8.33301 49.833 25 65.5s39 23.5 67 23.5c26 0 48.667 -7.66699 68 -23
s29 -36.666 29 -63.999v-57c-44.667 -14 -84.167 -28 -118.5 -42s-64.166 -29.167 -89.499 -45.5s-45 -34.166 -59 -53.499s-21 -40.333 -21 -63c0 -30 12.5 -52.667 37.5 -68s53.5 -23 85.5 -23c30.667 0 59.334 6 86.001 18s52.667 29.333 78 52
c6 -25.333 17.333 -43.333 34 -54s39 -16 67 -16c25.333 0 47 7.5 65 22.5s30.333 34.5 37 58.5z" />
    <glyph glyph-name="ae" unicode="&#xe6;" horiz-adv-x="833" 
d="M465 300c1.33301 16.667 4 32.833 8 48.5s10.333 30 19 43s20 23.333 34 31s31 11.5 51 11.5c27.333 0 50.833 -10.667 70.5 -32s29.5 -47.333 29.5 -78c0 -10 -1.66699 -16.5 -5 -19.5s-10 -4.5 -20 -4.5h-187zM791 264.999c0 27.333 -5.33691 52.833 -16.0039 76.5
s-25.5 44.334 -44.5 62.001s-40.833 31.167 -65.5 40.5s-50.334 14 -77.001 14c-28 0 -54.833 -5 -80.5 -15s-48.167 -23.333 -67.5 -40c-11.333 18.667 -28.166 32.5 -50.499 41.5s-47.5 13.5 -75.5 13.5c-36 0 -70 -4.83301 -102 -14.5s-59.667 -22.334 -83 -38.001
s-41.666 -32.334 -54.999 -50.001s-20 -33.5 -20 -47.5c0 -39.333 17 -59 51 -59c41.333 0 62 19.333 62 58c0 4 -0.666992 10 -2 18c-0.666992 2.66699 -1 6.33398 -1 11.001c0 28 8.33301 49.833 25 65.5s39 23.5 67 23.5c26 0 48.667 -7.66699 68 -23
s29 -36.666 29 -63.999v-57c-44.667 -14 -84.167 -28 -118.5 -42s-64.166 -29.167 -89.499 -45.5s-45 -34.166 -59 -53.499s-21 -40.333 -21 -63c0 -30 12.5 -52.667 37.5 -68s53.5 -23 85.5 -23c36 0 70 8.5 102 25.5s64.667 39.833 98 68.5
c18.667 -30 44.334 -53.167 77.001 -69.5s69 -24.5 109 -24.5c53.333 0 98 13.667 134 41s64.333 66.666 85 117.999l-14 15c-21.333 -28 -44.166 -49 -68.499 -63s-53.166 -21 -86.499 -21c-48.667 0 -87.334 18.167 -116.001 54.5s-43 81.166 -43 134.499h326z
M352.996 84.999c-16 -14 -31.832 -25.5 -47.499 -34.5s-31.167 -13.5 -46.5 -13.5c-24.667 0 -44.834 6.66699 -60.501 20s-23.5 32 -23.5 56c0 28 13.167 53.667 39.5 77s72.5 44.333 138.5 63v-168z" />
    <glyph glyph-name="ccedilla" unicode="&#xe7;" horiz-adv-x="500" 
d="M434 183c-6 -34 -20.6699 -62.8301 -44.0029 -86.4971s-51.666 -35.5 -84.999 -35.5c-29.333 0 -54.666 6.16699 -75.999 18.5s-38.5 29 -51.5 50s-22.333 44.333 -28 70s-8.5 52.167 -8.5 79.5c0 17.333 2 35 6 53s10 34.667 18 50s18 27.666 30 36.999s25.667 14 41 14
c16 0 29 -4.83301 39 -14.5s18.667 -23.5 26 -41.5l22 -53c8 -20.667 17.5 -35.167 28.5 -43.5s24.5 -12.5 40.5 -12.5c19.333 0 34.166 6.33301 44.499 19s15.5 27 15.5 43c0 14.667 -5.33301 29.667 -16 45s-25.167 29.333 -43.5 42s-38.833 22.667 -61.5 30
s-45.667 11 -69 11c-34.667 0 -66.5 -6.5 -95.5 -19.5s-53.667 -31 -74 -54s-36 -49.833 -47 -80.5s-16.5 -63 -16.5 -97c0 -62.667 17.5 -114 52.5 -154s82.167 -61.667 141.5 -65l-38 -84l11 -8c6 2 15.667 3.66699 29 5c30.667 -1.33301 46.334 -13.666 47.001 -36.999
v-3c0.666992 -0.666992 1 -1.33398 1 -2.00098c0 -10 -5.66699 -18.5 -17 -25.5s-24.666 -10.5 -39.999 -10.5c-21.333 0 -42 4 -62 12l-17 -35c13.333 -6 28 -10.167 44 -12.5s32.333 -3.5 49 -3.5c14.667 0 29.167 1.33301 43.5 4s27.833 7.16699 40.5 13.5
s23 14.833 31 25.5s12 23.667 12 39c0 24 -6.5 41.667 -19.5 53s-31.5 18.333 -55.5 21h-5h-4c-4.66699 0 -12.334 -0.666992 -23.001 -2c-4.66699 -0.666992 -8.66699 -1.33398 -12 -2.00098l25 52c58 3.33301 104.833 22.166 140.5 56.499s53.834 80.5 54.501 138.5h-24z
" />
    <glyph glyph-name="egrave" unicode="&#xe8;" horiz-adv-x="500" 
d="M327 505l-140.998 152c-8.66699 8.66699 -16.834 15.334 -24.501 20.001s-16.834 7 -27.501 7c-11.333 0 -21.333 -3.83301 -30 -11.5s-13 -16.834 -13 -27.501c0 -16 7 -29 21 -39l165 -101h50zM456.002 160c-21.333 -28 -44.167 -49 -68.5 -63s-53.166 -21 -86.499 -21
c-48.667 0 -87.334 18.167 -116.001 54.5s-43 81.166 -43 134.499h326c0 27.333 -5.33301 52.833 -16 76.5s-25.5 44.334 -44.5 62.001s-40.833 31.167 -65.5 40.5s-50.334 14 -77.001 14c-34 0 -65.333 -6.16699 -94 -18.5s-53.667 -29.666 -75 -51.999
s-37.666 -48.333 -48.999 -78s-17 -61.5 -17 -95.5c0 -70 19.167 -125.5 57.5 -166.5s92.833 -61.5 163.5 -61.5c53.333 0 98 13.667 134 41s64.333 66.666 85 117.999zM144.001 300c1.33301 16.667 4 32.833 8 48.5s10.333 30 19 43s20 23.333 34 31s31 11.5 51 11.5
c27.333 0 50.833 -10.667 70.5 -32s29.5 -47.333 29.5 -78c0 -10 -1.66699 -16.5 -5 -19.5s-10 -4.5 -20 -4.5h-187z" />
    <glyph glyph-name="eacute" unicode="&#xe9;" horiz-adv-x="500" 
d="M223 505l165.002 101c14 10 21 23 21 39c0 10.667 -4.33301 19.834 -13 27.501s-18.667 11.5 -30 11.5c-10.667 0 -19.834 -2.33301 -27.501 -7s-15.834 -11.334 -24.501 -20.001l-141 -152h50zM456.002 160c-21.333 -28 -44.167 -49 -68.5 -63s-53.166 -21 -86.499 -21
c-48.667 0 -87.334 18.167 -116.001 54.5s-43 81.166 -43 134.499h326c0 27.333 -5.33301 52.833 -16 76.5s-25.5 44.334 -44.5 62.001s-40.833 31.167 -65.5 40.5s-50.334 14 -77.001 14c-34 0 -65.333 -6.16699 -94 -18.5s-53.667 -29.666 -75 -51.999
s-37.666 -48.333 -48.999 -78s-17 -61.5 -17 -95.5c0 -70 19.167 -125.5 57.5 -166.5s92.833 -61.5 163.5 -61.5c53.333 0 98 13.667 134 41s64.333 66.666 85 117.999zM144.001 300c1.33301 16.667 4 32.833 8 48.5s10.333 30 19 43s20 23.333 34 31s31 11.5 51 11.5
c27.333 0 50.833 -10.667 70.5 -32s29.5 -47.333 29.5 -78c0 -10 -1.66699 -16.5 -5 -19.5s-10 -4.5 -20 -4.5h-187z" />
    <glyph glyph-name="ecircumflex" unicode="&#xea;" horiz-adv-x="500" 
d="M209 677l-122 -172h48l114 100l113 -100h50l-124 172h-79zM456 160c-21.333 -28 -44.167 -49 -68.5 -63s-53.166 -21 -86.499 -21c-48.667 0 -87.334 18.167 -116.001 54.5s-43 81.166 -43 134.499h326c0 27.333 -5.33301 52.833 -16 76.5s-25.5 44.334 -44.5 62.001
s-40.833 31.167 -65.5 40.5s-50.334 14 -77.001 14c-34 0 -65.333 -6.16699 -94 -18.5s-53.667 -29.666 -75 -51.999s-37.666 -48.333 -48.999 -78s-17 -61.5 -17 -95.5c0 -70 19.167 -125.5 57.5 -166.5s92.833 -61.5 163.5 -61.5c53.333 0 98 13.667 134 41
s64.333 66.666 85 117.999zM143.999 300c1.33301 16.667 4 32.833 8 48.5s10.333 30 19 43s20 23.333 34 31s31 11.5 51 11.5c27.333 0 50.833 -10.667 70.5 -32s29.5 -47.333 29.5 -78c0 -10 -1.66699 -16.5 -5 -19.5s-10 -4.5 -20 -4.5h-187z" />
    <glyph glyph-name="edieresis" unicode="&#xeb;" horiz-adv-x="500" 
d="M352 634c-16.667 0 -30.667 -5.66699 -42 -17s-17 -25.333 -17 -42s5.66699 -30.667 17 -42s25.333 -17 42 -17c16 0 29.833 5.66699 41.5 17s17.5 25.333 17.5 42s-5.83301 30.667 -17.5 42s-25.5 17 -41.5 17zM146 516c16 0 29.833 5.66699 41.5 17
s17.5 25.333 17.5 42s-5.83301 30.667 -17.5 42s-25.5 17 -41.5 17c-16.667 0 -30.667 -5.66699 -42 -17s-17 -25.333 -17 -42s5.66699 -30.667 17 -42s25.333 -17 42 -17zM456 160c-21.333 -28 -44.167 -49 -68.5 -63s-53.166 -21 -86.499 -21
c-48.667 0 -87.334 18.167 -116.001 54.5s-43 81.166 -43 134.499h326c0 27.333 -5.33301 52.833 -16 76.5s-25.5 44.334 -44.5 62.001s-40.833 31.167 -65.5 40.5s-50.334 14 -77.001 14c-34 0 -65.333 -6.16699 -94 -18.5s-53.667 -29.666 -75 -51.999
s-37.666 -48.333 -48.999 -78s-17 -61.5 -17 -95.5c0 -70 19.167 -125.5 57.5 -166.5s92.833 -61.5 163.5 -61.5c53.333 0 98 13.667 134 41s64.333 66.666 85 117.999zM143.999 300c1.33301 16.667 4 32.833 8 48.5s10.333 30 19 43s20 23.333 34 31s31 11.5 51 11.5
c27.333 0 50.833 -10.667 70.5 -32s29.5 -47.333 29.5 -78c0 -10 -1.66699 -16.5 -5 -19.5s-10 -4.5 -20 -4.5h-187z" />
    <glyph glyph-name="igrave" unicode="&#xec;" horiz-adv-x="278" 
d="M216 505l-140.998 152c-8.66699 8.66699 -16.834 15.334 -24.501 20.001s-16.834 7 -27.501 7c-11.333 0 -21.333 -3.83301 -30 -11.5s-13 -16.834 -13 -27.501c0 -16 7 -29 21 -39l165 -101h50zM24.002 383c24 -1.33301 40.501 -4.33301 49.501 -9
s13.5 -10.667 13.5 -18v-295c0 -16 -3.33301 -26.167 -10 -30.5s-23.334 -6.5 -50.001 -6.5v-24h228v24c-24.667 0 -40.167 2.16699 -46.5 6.5s-9.5 14.5 -9.5 30.5v397c-70 -25.333 -128.333 -42.333 -175 -51v-24z" />
    <glyph glyph-name="iacute" unicode="&#xed;" horiz-adv-x="278" 
d="M112 505l165.002 101c14 10 21 23 21 39c0 10.667 -4.33301 19.834 -13 27.501s-18.667 11.5 -30 11.5c-10.667 0 -19.834 -2.33301 -27.501 -7s-15.834 -11.334 -24.501 -20.001l-141 -152h50zM24.002 383c24 -1.33301 40.501 -4.33301 49.501 -9s13.5 -10.667 13.5 -18
v-295c0 -16 -3.33301 -26.167 -10 -30.5s-23.334 -6.5 -50.001 -6.5v-24h228v24c-24.667 0 -40.167 2.16699 -46.5 6.5s-9.5 14.5 -9.5 30.5v397c-70 -25.333 -128.333 -42.333 -175 -51v-24z" />
    <glyph glyph-name="icircumflex" unicode="&#xee;" horiz-adv-x="278" 
d="M98 677l-122 -172h48l114 100l113 -100h50l-124 172h-79zM24 383c24 -1.33301 40.501 -4.33301 49.501 -9s13.5 -10.667 13.5 -18v-295c0 -16 -3.33301 -26.167 -10 -30.5s-23.334 -6.5 -50.001 -6.5v-24h228v24c-24.667 0 -40.167 2.16699 -46.5 6.5
s-9.5 14.5 -9.5 30.5v397c-70 -25.333 -128.333 -42.333 -175 -51v-24z" />
    <glyph glyph-name="idieresis" unicode="&#xef;" horiz-adv-x="278" 
d="M241 634c-16.667 0 -30.667 -5.66699 -42 -17s-17 -25.333 -17 -42s5.66699 -30.667 17 -42s25.333 -17 42 -17c16 0 29.833 5.66699 41.5 17s17.5 25.333 17.5 42s-5.83301 30.667 -17.5 42s-25.5 17 -41.5 17zM35 516c16 0 29.833 5.66699 41.5 17s17.5 25.333 17.5 42
s-5.83301 30.667 -17.5 42s-25.5 17 -41.5 17c-16.667 0 -30.667 -5.66699 -42 -17s-17 -25.333 -17 -42s5.66699 -30.667 17 -42s25.333 -17 42 -17zM24 383c24 -1.33301 40.501 -4.33301 49.501 -9s13.5 -10.667 13.5 -18v-295c0 -16 -3.33301 -26.167 -10 -30.5
s-23.334 -6.5 -50.001 -6.5v-24h228v24c-24.667 0 -40.167 2.16699 -46.5 6.5s-9.5 14.5 -9.5 30.5v397c-70 -25.333 -128.333 -42.333 -175 -51v-24z" />
    <glyph glyph-name="eth" unicode="&#xf0;" 
d="M398 222c0 -72.667 -9.5 -126.167 -28.5 -160.5s-49.5 -51.5 -91.5 -51.5c-41.333 0 -71.666 17.167 -90.999 51.5s-29 87.833 -29 160.5s9.66699 126.167 29 160.5s49.666 51.5 90.999 51.5c42 0 72.5 -17.167 91.5 -51.5s28.5 -87.833 28.5 -160.5zM323 669
c-55.333 38 -117.999 60.666 -187.999 67.999l-7 -20c58 -16.667 103.333 -44.334 136 -83.001l-115 -68l21 -30l117 69c16 -20.667 29.667 -44.167 41 -70.5s21.666 -56.166 30.999 -89.499c-25.333 8.66699 -52.333 13 -81 13c-33.333 0 -65.166 -5.83301 -95.499 -17.5
s-57 -28 -80 -49s-40.833 -46 -53.5 -75s-19 -60.5 -19 -94.5s6.33301 -65.5 19 -94.5s30.5 -54 53.5 -75s49.667 -37.333 80 -49s62.166 -17.5 95.499 -17.5c72 0 131.333 25.167 178 75.5s70 121.833 70 214.5c0 68.667 -14 135.334 -42 200.001s-71 121 -129 169l99 59
l-21 30z" />
    <glyph glyph-name="ntilde" unicode="&#xf1;" horiz-adv-x="611" 
d="M444 644c-6.66699 -16 -13.5029 -28.167 -20.5029 -36.5s-17.167 -12.5 -30.5 -12.5c-10 0 -20 2 -30 6s-22 9.66699 -36 17l-3 1l-2 1c-16.667 7.33301 -30.667 12.833 -42 16.5s-24 5.5 -38 5.5c-31.333 0 -56.666 -11 -75.999 -33s-31.666 -49.333 -36.999 -82h37
c3.33301 13.333 9.5 24.5 18.5 33.5s20.167 13.5 33.5 13.5c10.667 0 29.334 -6.33301 56.001 -19c4 -2 7 -3.66699 9 -5c15.333 -8 29.5 -14.167 42.5 -18.5s26.167 -6.5 39.5 -6.5c32.667 0 58.167 11 76.5 33s31.5 50.667 39.5 86h-37zM83.9971 61
c0 -16 -3.33398 -26.167 -10.001 -30.5s-23 -6.5 -49 -6.5v-24h237v24c-29.333 0 -47.666 2.16699 -54.999 6.5s-11 14.5 -11 30.5v286c22.667 20.667 43.834 35.334 63.501 44.001s40.5 13 62.5 13c26.667 0 48.834 -9 66.501 -27s26.5 -40 26.5 -66v-250
c0 -16 -3.5 -26.167 -10.5 -30.5s-23.833 -6.5 -50.5 -6.5v-24h230v24c-24.667 0 -40.334 2.16699 -47.001 6.5s-10 14.5 -10 30.5v235c0 52 -13.833 92 -41.5 120s-67.5 42 -119.5 42c-30 0 -59.333 -7.66699 -88 -23s-56 -35 -82 -59v82
c-64.667 -24.667 -120.334 -42.334 -167.001 -53.001v-24c18 -4 31.667 -8.83301 41 -14.5s14 -15.5 14 -29.5v-276z" />
    <glyph glyph-name="ograve" unicode="&#xf2;" 
d="M350 505l-140.998 152c-8.66699 8.66699 -16.834 15.334 -24.501 20.001s-16.834 7 -27.501 7c-11.333 0 -21.333 -3.83301 -30 -11.5s-13 -16.834 -13 -27.501c0 -16 7 -29 21 -39l165 -101h50zM398.002 222c0 -72.667 -9.5 -126.167 -28.5 -160.5
s-49.5 -51.5 -91.5 -51.5c-41.333 0 -71.666 17.167 -90.999 51.5s-29 87.833 -29 160.5s9.66699 126.167 29 160.5s49.666 51.5 90.999 51.5c42 0 72.5 -17.167 91.5 -51.5s28.5 -87.833 28.5 -160.5zM526.002 222c0 34 -6.33301 65.5 -19 94.5s-30.5 54 -53.5 75
s-49.5 37.333 -79.5 49s-62 17.5 -96 17.5c-33.333 0 -65.166 -5.83301 -95.499 -17.5s-57 -28 -80 -49s-40.833 -46 -53.5 -75s-19 -60.5 -19 -94.5s6.33301 -65.5 19 -94.5s30.5 -54 53.5 -75s49.667 -37.333 80 -49s62.166 -17.5 95.499 -17.5c34 0 66 5.83301 96 17.5
s56.5 28 79.5 49s40.833 46 53.5 75s19 60.5 19 94.5z" />
    <glyph glyph-name="oacute" unicode="&#xf3;" 
d="M246 505l165.002 101c14 10 21 23 21 39c0 10.667 -4.33301 19.834 -13 27.501s-18.667 11.5 -30 11.5c-10.667 0 -19.834 -2.33301 -27.501 -7s-15.834 -11.334 -24.501 -20.001l-141 -152h50zM398.002 222c0 -72.667 -9.5 -126.167 -28.5 -160.5
s-49.5 -51.5 -91.5 -51.5c-41.333 0 -71.666 17.167 -90.999 51.5s-29 87.833 -29 160.5s9.66699 126.167 29 160.5s49.666 51.5 90.999 51.5c42 0 72.5 -17.167 91.5 -51.5s28.5 -87.833 28.5 -160.5zM526.002 222c0 34 -6.33301 65.5 -19 94.5s-30.5 54 -53.5 75
s-49.5 37.333 -79.5 49s-62 17.5 -96 17.5c-33.333 0 -65.166 -5.83301 -95.499 -17.5s-57 -28 -80 -49s-40.833 -46 -53.5 -75s-19 -60.5 -19 -94.5s6.33301 -65.5 19 -94.5s30.5 -54 53.5 -75s49.667 -37.333 80 -49s62.166 -17.5 95.499 -17.5c34 0 66 5.83301 96 17.5
s56.5 28 79.5 49s40.833 46 53.5 75s19 60.5 19 94.5z" />
    <glyph glyph-name="ocircumflex" unicode="&#xf4;" 
d="M232 677l-122 -172h48l114 100l113 -100h50l-124 172h-79zM398 222c0 -72.667 -9.5 -126.167 -28.5 -160.5s-49.5 -51.5 -91.5 -51.5c-41.333 0 -71.666 17.167 -90.999 51.5s-29 87.833 -29 160.5s9.66699 126.167 29 160.5s49.666 51.5 90.999 51.5
c42 0 72.5 -17.167 91.5 -51.5s28.5 -87.833 28.5 -160.5zM526 222c0 34 -6.33301 65.5 -19 94.5s-30.5 54 -53.5 75s-49.5 37.333 -79.5 49s-62 17.5 -96 17.5c-33.333 0 -65.166 -5.83301 -95.499 -17.5s-57 -28 -80 -49s-40.833 -46 -53.5 -75s-19 -60.5 -19 -94.5
s6.33301 -65.5 19 -94.5s30.5 -54 53.5 -75s49.667 -37.333 80 -49s62.166 -17.5 95.499 -17.5c34 0 66 5.83301 96 17.5s56.5 28 79.5 49s40.833 46 53.5 75s19 60.5 19 94.5z" />
    <glyph glyph-name="otilde" unicode="&#xf5;" 
d="M411 644c-6.66699 -16 -13.5029 -28.167 -20.5029 -36.5s-17.167 -12.5 -30.5 -12.5c-10 0 -20 2 -30 6s-22 9.66699 -36 17l-3 1l-2 1c-16.667 7.33301 -30.667 12.833 -42 16.5s-24 5.5 -38 5.5c-31.333 0 -56.666 -11 -75.999 -33s-31.666 -49.333 -36.999 -82h37
c3.33301 13.333 9.5 24.5 18.5 33.5s20.167 13.5 33.5 13.5c10.667 0 29.334 -6.33301 56.001 -19c4 -2 7 -3.66699 9 -5c15.333 -8 29.5 -14.167 42.5 -18.5s26.167 -6.5 39.5 -6.5c32.667 0 58.167 11 76.5 33s31.5 50.667 39.5 86h-37zM397.997 222
c0 -72.667 -9.5 -126.167 -28.5 -160.5s-49.5 -51.5 -91.5 -51.5c-41.333 0 -71.666 17.167 -90.999 51.5s-29 87.833 -29 160.5s9.66699 126.167 29 160.5s49.666 51.5 90.999 51.5c42 0 72.5 -17.167 91.5 -51.5s28.5 -87.833 28.5 -160.5zM525.997 222
c0 34 -6.33301 65.5 -19 94.5s-30.5 54 -53.5 75s-49.5 37.333 -79.5 49s-62 17.5 -96 17.5c-33.333 0 -65.166 -5.83301 -95.499 -17.5s-57 -28 -80 -49s-40.833 -46 -53.5 -75s-19 -60.5 -19 -94.5s6.33301 -65.5 19 -94.5s30.5 -54 53.5 -75s49.667 -37.333 80 -49
s62.166 -17.5 95.499 -17.5c34 0 66 5.83301 96 17.5s56.5 28 79.5 49s40.833 46 53.5 75s19 60.5 19 94.5z" />
    <glyph glyph-name="odieresis" unicode="&#xf6;" 
d="M375 634c-16.667 0 -30.667 -5.66699 -42 -17s-17 -25.333 -17 -42s5.66699 -30.667 17 -42s25.333 -17 42 -17c16 0 29.833 5.66699 41.5 17s17.5 25.333 17.5 42s-5.83301 30.667 -17.5 42s-25.5 17 -41.5 17zM169 516c16 0 29.833 5.66699 41.5 17
s17.5 25.333 17.5 42s-5.83301 30.667 -17.5 42s-25.5 17 -41.5 17c-16.667 0 -30.667 -5.66699 -42 -17s-17 -25.333 -17 -42s5.66699 -30.667 17 -42s25.333 -17 42 -17zM398 222c0 -72.667 -9.5 -126.167 -28.5 -160.5s-49.5 -51.5 -91.5 -51.5
c-41.333 0 -71.666 17.167 -90.999 51.5s-29 87.833 -29 160.5s9.66699 126.167 29 160.5s49.666 51.5 90.999 51.5c42 0 72.5 -17.167 91.5 -51.5s28.5 -87.833 28.5 -160.5zM526 222c0 34 -6.33301 65.5 -19 94.5s-30.5 54 -53.5 75s-49.5 37.333 -79.5 49
s-62 17.5 -96 17.5c-33.333 0 -65.166 -5.83301 -95.499 -17.5s-57 -28 -80 -49s-40.833 -46 -53.5 -75s-19 -60.5 -19 -94.5s6.33301 -65.5 19 -94.5s30.5 -54 53.5 -75s49.667 -37.333 80 -49s62.166 -17.5 95.499 -17.5c34 0 66 5.83301 96 17.5s56.5 28 79.5 49
s40.833 46 53.5 75s19 60.5 19 94.5z" />
    <glyph glyph-name="divide" unicode="&#xf7;" horiz-adv-x="600" 
d="M521 186v72h-442v-72h442zM237 404c0 -17.333 6.33496 -32.335 19.002 -45.002s27.667 -19 45 -19c16 0 30.333 6.66699 43 20s19 28 19 44c0 16.667 -6.33301 31.334 -19 44.001s-27.334 19 -44.001 19s-31.334 -6.16699 -44.001 -18.5s-19 -27.166 -19 -44.499z
M237.002 39.998c0 -16.667 6.5 -31.333 19.5 -44s27.833 -19 44.5 -19c16 0 30.333 6.5 43 19.5s19 27.5 19 43.5c0 17.333 -6.16699 32.333 -18.5 45s-27.166 19 -44.499 19c-16.667 0 -31.334 -6.33301 -44.001 -19s-19 -27.667 -19 -45z" />
    <glyph glyph-name="oslash" unicode="&#xf8;" 
d="M382 354c10.667 -32 16 -76 16 -132c0 -72.667 -9.5 -126.167 -28.5 -160.5s-49.5 -51.5 -91.5 -51.5c-37.333 0 -65.333 13.667 -84 41zM446 529l-58.001 -94c-34 15.333 -70.667 23 -110 23c-33.333 0 -65.166 -5.83301 -95.499 -17.5s-57 -28 -80 -49
s-40.833 -46 -53.5 -75s-19 -60.5 -19 -94.5c0 -41.333 9.33301 -78.833 28 -112.5s44.334 -61.167 77.001 -82.5l-78 -126h44l67 108c34 -15.333 70.667 -23 110 -23c34 0 66 5.83301 96 17.5s56.5 28 79.5 49s40.833 46 53.5 75s19 60.5 19 94.5
c0 41.333 -9.33301 78.833 -28 112.5s-44.334 61.167 -77.001 82.5l69 112h-44zM173.999 90c-10.667 32 -15.999 76 -15.999 132c0 72.667 9.66699 126.167 29 160.5s49.666 51.5 90.999 51.5c37.333 0 65.333 -13.667 84 -41z" />
    <glyph glyph-name="ugrave" unicode="&#xf9;" horiz-adv-x="611" 
d="M376 505l-140.998 152c-8.66699 8.66699 -16.834 15.334 -24.501 20.001s-16.834 7 -27.501 7c-11.333 0 -21.333 -3.83301 -30 -11.5s-13 -16.834 -13 -27.501c0 -16 7 -29 21 -39l165 -101h50zM526.002 444h-177.997v-24c29.333 0 47.666 -2.16699 54.999 -6.5
s11 -14.5 11 -30.5v-286c-22.667 -20.667 -43.834 -35.334 -63.501 -44.001s-40.5 -13 -62.5 -13c-26.667 0 -48.834 9 -66.501 27s-26.5 40 -26.5 66v311h-169v-24c25.333 0 41.166 -2.16699 47.499 -6.5s9.5 -14.5 9.5 -30.5v-235c0 -52 13.833 -92 41.5 -120
s67.5 -42 119.5 -42c30 0 59.333 7.66699 88 23s56 35 82 59v-82c64.667 24.667 120.334 42.334 167.001 53.001v24c-18 4 -31.667 8.83301 -41 14.5s-14 15.5 -14 29.5v337z" />
    <glyph glyph-name="uacute" unicode="&#xfa;" horiz-adv-x="611" 
d="M272 505l165.002 101c14 10 21 23 21 39c0 10.667 -4.33301 19.834 -13 27.501s-18.667 11.5 -30 11.5c-10.667 0 -19.834 -2.33301 -27.501 -7s-15.834 -11.334 -24.501 -20.001l-141 -152h50zM526.002 444h-177.997v-24c29.333 0 47.666 -2.16699 54.999 -6.5
s11 -14.5 11 -30.5v-286c-22.667 -20.667 -43.834 -35.334 -63.501 -44.001s-40.5 -13 -62.5 -13c-26.667 0 -48.834 9 -66.501 27s-26.5 40 -26.5 66v311h-169v-24c25.333 0 41.166 -2.16699 47.499 -6.5s9.5 -14.5 9.5 -30.5v-235c0 -52 13.833 -92 41.5 -120
s67.5 -42 119.5 -42c30 0 59.333 7.66699 88 23s56 35 82 59v-82c64.667 24.667 120.334 42.334 167.001 53.001v24c-18 4 -31.667 8.83301 -41 14.5s-14 15.5 -14 29.5v337z" />
    <glyph glyph-name="ucircumflex" unicode="&#xfb;" horiz-adv-x="611" 
d="M258 677l-122 -172h48l114 100l113 -100h50l-124 172h-79zM526 444h-177.997v-24c29.333 0 47.666 -2.16699 54.999 -6.5s11 -14.5 11 -30.5v-286c-22.667 -20.667 -43.834 -35.334 -63.501 -44.001s-40.5 -13 -62.5 -13c-26.667 0 -48.834 9 -66.501 27
s-26.5 40 -26.5 66v311h-169v-24c25.333 0 41.166 -2.16699 47.499 -6.5s9.5 -14.5 9.5 -30.5v-235c0 -52 13.833 -92 41.5 -120s67.5 -42 119.5 -42c30 0 59.333 7.66699 88 23s56 35 82 59v-82c64.667 24.667 120.334 42.334 167.001 53.001v24
c-18 4 -31.667 8.83301 -41 14.5s-14 15.5 -14 29.5v337z" />
    <glyph glyph-name="udieresis" unicode="&#xfc;" horiz-adv-x="611" 
d="M401 634c-16.667 0 -30.667 -5.66699 -42 -17s-17 -25.333 -17 -42s5.66699 -30.667 17 -42s25.333 -17 42 -17c16 0 29.833 5.66699 41.5 17s17.5 25.333 17.5 42s-5.83301 30.667 -17.5 42s-25.5 17 -41.5 17zM195 516c16 0 29.833 5.66699 41.5 17
s17.5 25.333 17.5 42s-5.83301 30.667 -17.5 42s-25.5 17 -41.5 17c-16.667 0 -30.667 -5.66699 -42 -17s-17 -25.333 -17 -42s5.66699 -30.667 17 -42s25.333 -17 42 -17zM526 444h-177.997v-24c29.333 0 47.666 -2.16699 54.999 -6.5s11 -14.5 11 -30.5v-286
c-22.667 -20.667 -43.834 -35.334 -63.501 -44.001s-40.5 -13 -62.5 -13c-26.667 0 -48.834 9 -66.501 27s-26.5 40 -26.5 66v311h-169v-24c25.333 0 41.166 -2.16699 47.499 -6.5s9.5 -14.5 9.5 -30.5v-235c0 -52 13.833 -92 41.5 -120s67.5 -42 119.5 -42
c30 0 59.333 7.66699 88 23s56 35 82 59v-82c64.667 24.667 120.334 42.334 167.001 53.001v24c-18 4 -31.667 8.83301 -41 14.5s-14 15.5 -14 29.5v337z" />
    <glyph glyph-name="yacute" unicode="&#xfd;" 
d="M251 505l165.002 101c14 10 21 23 21 39c0 10.667 -4.33301 19.834 -13 27.501s-18.667 11.5 -30 11.5c-10.667 0 -19.834 -2.33301 -27.501 -7s-15.834 -11.334 -24.501 -20.001l-141 -152h50zM12.002 420c21.333 -4 36.6641 -8.83203 45.9971 -14.499
s18 -17.167 26 -34.5l185 -387c0 -4.66699 -1.33301 -11.834 -4 -21.501s-6.33398 -19.5 -11.001 -29.5s-10 -18.333 -16 -25s-12 -10 -18 -10c-5.33301 0 -14.333 2.33301 -27 7l-6 2c-12 3.33301 -22 5 -30 5c-13.333 0 -25.5 -4.83301 -36.5 -14.5
s-16.5 -22.167 -16.5 -37.5c0 -18 6.33301 -32.167 19 -42.5s28.334 -15.5 47.001 -15.5c22.667 0 40.334 7.66699 53.001 23s25.334 37.333 38.001 66l3 8l203 458c8 19.333 17.333 33.833 28 43.5s25.667 16.167 45 19.5v24h-157v-24
c22.667 -1.33301 38.334 -4.83301 47.001 -10.5s13 -14.5 13 -26.5c0 -8.66699 -2 -17.334 -6 -26.001l-109 -244l-126 257l-4.5 13c-1.66699 4.66699 -2.5 8.33398 -2.5 11.001c0 8.66699 7.33301 15 22 19s30.667 6.33301 48 7v24h-253v-24z" />
    <glyph glyph-name="thorn" unicode="&#xfe;" 
d="M194 357c8.66699 9.33301 20.167 16.5 34.5 21.5s28.5 7.5 42.5 7.5c42 0 76.333 -20 103 -60s40 -90 40 -150c0 -46.667 -9.5 -86 -28.5 -118s-45.167 -48 -78.5 -48c-25.333 0 -48 7 -68 21s-35 33 -45 57v269zM28 683v-24
c24.667 -2.66699 39.834 -7.33398 45.501 -14.001s8.5 -21.667 8.5 -45v-721c0 -17.333 -3.33301 -28.5 -10 -33.5s-21.334 -7.83301 -44.001 -8.5v-24h227v24c-26 0.666992 -42.667 3.5 -50 8.5s-11 16.167 -11 33.5v141c14.667 -12 32.167 -20.667 52.5 -26
s40.833 -8 61.5 -8c66.667 0 119.667 23 159 69s59 106.667 59 182c0 67.333 -19.167 121 -57.5 161s-86.166 60 -143.499 60c-23.333 0 -46.333 -5.16699 -69 -15.5s-43.334 -24.166 -62.001 -41.499v336z" />
    <glyph glyph-name="ydieresis" unicode="&#xff;" 
d="M380 634c-16.667 0 -30.667 -5.66699 -42 -17s-17 -25.333 -17 -42s5.66699 -30.667 17 -42s25.333 -17 42 -17c16 0 29.833 5.66699 41.5 17s17.5 25.333 17.5 42s-5.83301 30.667 -17.5 42s-25.5 17 -41.5 17zM174 516c16 0 29.833 5.66699 41.5 17
s17.5 25.333 17.5 42s-5.83301 30.667 -17.5 42s-25.5 17 -41.5 17c-16.667 0 -30.667 -5.66699 -42 -17s-17 -25.333 -17 -42s5.66699 -30.667 17 -42s25.333 -17 42 -17zM12 420c21.333 -4 36.6641 -8.83203 45.9971 -14.499s18 -17.167 26 -34.5l185 -387
c0 -4.66699 -1.33301 -11.834 -4 -21.501s-6.33398 -19.5 -11.001 -29.5s-10 -18.333 -16 -25s-12 -10 -18 -10c-5.33301 0 -14.333 2.33301 -27 7l-6 2c-12 3.33301 -22 5 -30 5c-13.333 0 -25.5 -4.83301 -36.5 -14.5s-16.5 -22.167 -16.5 -37.5
c0 -18 6.33301 -32.167 19 -42.5s28.334 -15.5 47.001 -15.5c22.667 0 40.334 7.66699 53.001 23s25.334 37.333 38.001 66l3 8l203 458c8 19.333 17.333 33.833 28 43.5s25.667 16.167 45 19.5v24h-157v-24c22.667 -1.33301 38.334 -4.83301 47.001 -10.5
s13 -14.5 13 -26.5c0 -8.66699 -2 -17.334 -6 -26.001l-109 -244l-126 257l-4.5 13c-1.66699 4.66699 -2.5 8.33398 -2.5 11.001c0 8.66699 7.33301 15 22 19s30.667 6.33301 48 7v24h-253v-24z" />
    <glyph glyph-name="OE" unicode="&#x152;" horiz-adv-x="1000" 
d="M480 233c0 -32.667 -1.83301 -60.834 -5.5 -84.501s-10.5 -44.667 -20.5 -63s-25.167 -32.666 -45.5 -42.999s-46.5 -15.5 -78.5 -15.5c-28 0 -52.333 4.5 -73 13.5s-38.667 25.5 -54 49.5s-27.166 58.333 -35.499 103s-12.5 101.667 -12.5 171s4.16699 126.333 12.5 171
s20.166 79 35.499 103s33.333 40.5 54 49.5s45 13.5 73 13.5c32 0 58 -5.16699 78 -15.5s35.167 -24.666 45.5 -42.999s17.333 -39.333 21 -63s5.5 -51.834 5.5 -84.501v-262zM855 525l-23.998 0.000976562c-2.66699 -27.333 -10.334 -50.5 -23.001 -69.5
s-28.667 -34.167 -48 -45.5s-40.5 -19.5 -63.5 -24.5s-46.833 -7.5 -71.5 -7.5v323h84c50.667 0 94 -12.833 130 -38.5s79 -69.834 129 -132.501l18 7l-76 191h-586c-41.333 0 -81 -6.5 -119 -19.5s-72.5 -33.833 -103.5 -62.5s-55.667 -66.5 -74 -113.5
s-27.5 -103.167 -27.5 -168.5s9.16699 -121.5 27.5 -168.5s43 -84.833 74 -113.5s65.5 -49.5 103.5 -62.5s77.667 -19.5 119 -19.5h624l56 199l-22 12l-7 -10c-28 -38.667 -49.667 -67.334 -65 -86.001s-32.666 -34.667 -51.999 -48s-42.333 -23.333 -69 -30
s-60 -10 -100 -10h-64v324c61.333 0 109.666 -13.667 144.999 -41s55.666 -68.666 60.999 -123.999h24v339z" />
    <glyph glyph-name="oe" unicode="&#x153;" horiz-adv-x="833" 
d="M373 222c0 -75.333 -8.5 -129.5 -25.5 -162.5s-44.833 -49.5 -83.5 -49.5s-66.5 16.5 -83.5 49.5s-25.5 87.167 -25.5 162.5s8.5 129.5 25.5 162.5s44.833 49.5 83.5 49.5s66.5 -16.5 83.5 -49.5s25.5 -87.167 25.5 -162.5zM487 300
c1.33301 16 4.16699 32.001 8.5 48.001s10.833 30.667 19.5 44s19.5 24.166 32.5 32.499s28.5 12.5 46.5 12.5c12.667 0 24.667 -3.16699 36 -9.5s21.5 -15 30.5 -26s16 -22.833 21 -35.5s7.5 -25 7.5 -37c0 -8.66699 -3.16699 -15.667 -9.5 -21s-18.5 -8 -36.5 -8h-156z
M791.001 160.001c-21.333 -28 -44.1689 -49 -68.502 -63s-53.166 -21 -86.499 -21c-46.667 0 -83.5 18 -110.5 54s-40.5 81 -40.5 135h316c0 27.333 -5.33301 52.833 -16 76.5s-25.5 44.334 -44.5 62.001s-40.833 31.167 -65.5 40.5s-50.334 14 -77.001 14
c-33.333 0 -63 -6 -89 -18s-50.667 -31.333 -74 -58c-20.667 22 -45.667 40.167 -75 54.5s-57.333 21.5 -84 21.5c-33.333 0 -65.166 -5.83301 -95.499 -17.5s-57 -28 -80 -49s-40.833 -46 -53.5 -75s-19 -60.5 -19 -94.5s6.5 -65.5 19.5 -94.5s31 -54 54 -75
s49.833 -37.333 80.5 -49s63.334 -17.5 98.001 -17.5c23.333 0 48.333 5.33301 75 16s53.334 26.667 80.001 48c19.333 -20 42.166 -35.667 68.499 -47s53.833 -17 82.5 -17c53.333 0 98 13.667 134 41s64.333 66.666 85 117.999z" />
    <glyph glyph-name="Scaron" unicode="&#x160;" horiz-adv-x="667" 
d="M372 770l124 172h-50l-113 -101l-114 101h-48l122 -172h79zM559 736l-21.9961 -0.00585938c-5.33301 -8.66699 -12.833 -16.167 -22.5 -22.5s-19.5 -9.5 -29.5 -9.5c-4 0 -14 2.66699 -30 8l-35 11c-40.667 12.667 -81.334 19 -122.001 19
c-30.667 0 -59.834 -4.5 -87.501 -13.5s-52.5 -22.333 -74.5 -40s-39.167 -39.334 -51.5 -65.001s-18.5 -54.5 -18.5 -86.5c0 -31.333 5.83301 -59.166 17.5 -83.499s27.5 -45.166 47.5 -62.499s42 -32.166 66 -44.499s52.333 -25.166 85 -38.499l26 -10
c32 -13.333 57.833 -24.666 77.5 -33.999s38.167 -20.166 55.5 -32.499s31 -26.833 41 -43.5s15 -36 15 -58c0 -36 -16.5 -64.5 -49.5 -85.5s-72.167 -31.5 -117.5 -31.5c-32 0 -60.333 6 -85 18s-46.334 28.5 -65.001 49.5s-35 44.5 -49 70.5s-28 57 -42 93h-22v-256h30
c8 8.66699 15.5 15.667 22.5 21s13.167 8 18.5 8s21 -3 47 -9c6.66699 -2 16 -4.33301 28 -7c24 -4.66699 45.167 -8.33398 63.5 -11.001s36.166 -4 53.499 -4c41.333 0 78.666 3.83301 111.999 11.5s62.333 20.334 87 38.001s43.667 41.334 57 71.001s20 65.5 20 107.5
c0 31.333 -5.83301 59 -17.5 83s-27.667 44.833 -48 62.5s-42.833 33 -67.5 46s-53 25.833 -85 38.5c-6 2.66699 -18 7.33398 -36 14.001c-31.333 12.667 -56.666 23.334 -75.999 32.001s-37.166 18.667 -53.499 30s-29.333 24.166 -39 38.499s-14.5 30.5 -14.5 48.5
c0 34 13.333 60.5 40 79.5s57 28.5 91 28.5c29.333 0 56.666 -6.83301 81.999 -20.5s47.833 -31.834 67.5 -54.501s36.667 -47.5 51 -74.5s25.5 -54.167 33.5 -81.5h25v252z" />
    <glyph glyph-name="scaron" unicode="&#x161;" horiz-adv-x="444" 
d="M260 505l124 172h-50l-113 -101l-114 101h-48l122 -172h79zM390 421c-32.667 12 -61.3291 21.1641 -85.9961 27.4971s-48.667 9.5 -72 9.5c-20.667 0 -41.334 -2.66699 -62.001 -8s-39.834 -13.5 -57.501 -24.5s-31.834 -25 -42.501 -42s-16 -36.5 -16 -58.5
c0 -32 11.333 -58.5 34 -79.5s54 -40.833 94 -59.5l19 -9c37.333 -18 64.833 -33.5 82.5 -46.5s26.5 -29.167 26.5 -48.5c0 -20.667 -5.83301 -37.834 -17.5 -51.501s-27.834 -20.5 -48.501 -20.5c-44.667 0 -80.5 15.667 -107.5 47s-45.5 71 -55.5 119l-24 -4l9 -151
c20 -9.33301 45.667 -17.5 77 -24.5s57.333 -10.5 78 -10.5c25.333 0 49.166 2.33301 71.499 7s42.333 12.334 60 23.001s31.5 25.334 41.5 44.001s15 41.334 15 68.001c0 18 -3.5 34.333 -10.5 49s-16.5 27.167 -28.5 37.5s-24.667 19.5 -38 27.5
s-30.666 17.333 -51.999 28l-15 7c-42 21.333 -72.167 38.333 -90.5 51s-27.5 26 -27.5 40c0 18.667 7 34.334 21 47.001s30 19 48 19c19.333 0 37 -4.16699 53 -12.5s30 -19.5 42 -33.5s22.333 -29.333 31 -46s16.667 -35 24 -55l24 2v132z" />
    <glyph glyph-name="Ydieresis" unicode="&#x178;" horiz-adv-x="889" 
d="M547 899c-16.667 0 -30.667 -5.66699 -42 -17s-17 -25.333 -17 -42s5.66699 -30.667 17 -42s25.333 -17 42 -17c16 0 29.833 5.66699 41.5 17s17.5 25.333 17.5 42s-5.83301 30.667 -17.5 42s-25.5 17 -41.5 17zM341 781c16 0 29.833 5.66699 41.5 17
s17.5 25.333 17.5 42s-5.83301 30.667 -17.5 42s-25.5 17 -41.5 17c-16.667 0 -30.667 -5.66699 -42 -17s-17 -25.333 -17 -42s5.66699 -30.667 17 -42s25.333 -17 42 -17zM331 646c0 0.666992 -0.336914 1.33398 -1.00391 2.00098c-4 6 -7.16699 11 -9.5 15
s-3.5 7.33301 -3.5 10c0.666992 9.33301 7.33398 16.166 20.001 20.499s34.334 6.83301 65.001 7.5v27h-377v-27c21.333 0 38 -0.666992 50 -2s21.5 -3.5 28.5 -6.5s13 -7 18 -12s11.167 -12.5 18.5 -22.5l239 -331v-205c0 -23.333 -1.16699 -40.833 -3.5 -52.5
s-7.16602 -20.5 -14.499 -26.5s-18 -10 -32 -12s-35.333 -3.33301 -64 -4v-27h373v27c-28 0 -49.333 1.16699 -64 3.5s-25.5 6.5 -32.5 12.5s-11.667 14.833 -14 26.5s-3.5 29.167 -3.5 52.5v242l176 234l3 5c28 36.667 52 62.167 72 76.5s50 21.5 90 21.5v27h-233v-27
c26.667 0 45.667 -3 57 -9s17 -14 17 -24c0 -5.33301 -1.66699 -11 -5 -17s-7.66602 -12.333 -12.999 -19l-176 -233z" />
    <glyph glyph-name="florin" unicode="&#x192;" 
d="M220 406c-1.33301 -38.667 -2.33203 -93.3311 -2.99902 -163.998c-1.33301 -104.667 -3.66602 -183.334 -6.99902 -236.001c-3.33301 -51.333 -8.5 -90.5 -15.5 -117.5s-18.167 -40.5 -33.5 -40.5c-7.33301 0 -13 4.16699 -17 12.5s-8.33301 22.166 -13 41.499
c-3.33301 16 -10 29.667 -20 41s-23.333 17 -40 17c-20 0 -35.833 -5.66699 -47.5 -17s-17.5 -26.666 -17.5 -45.999c0 -26.667 10.833 -47.334 32.5 -62.001s46.5 -22 74.5 -22c47.333 0 84.666 10.667 111.999 32s50.333 55 69 101c8 18 15 42.833 21 74.5
s10.833 67.334 14.5 107.001s6.33398 75.667 8.00098 108s3.5 70.833 5.5 115.5c1.33301 30.667 2 49 2 55h111v39h-109l6 161c1.33301 35.333 5.16602 61 11.499 77s14.166 24 23.499 24c8 0 14.167 -4.5 18.5 -13.5s9.16602 -25.5 14.499 -49.5
c3.33301 -16.667 9.83301 -30.334 19.5 -41.001s23.834 -16 42.501 -16c18 0 33 5.5 45 16.5s18 25.167 18 42.5c0 29.333 -12.667 52.666 -38 69.999s-53 26 -83 26c-56.667 0 -103.5 -26.167 -140.5 -78.5s-57.833 -125.166 -62.5 -218.499h-106v-39h104z" />
    <glyph glyph-name="circumflex" unicode="&#x2c6;" horiz-adv-x="278" 
d="M98 677l-122 -172h48l114 100l113 -100h50l-124 172h-79z" />
    <glyph glyph-name="tilde" unicode="&#x2dc;" horiz-adv-x="278" 
d="M277 644c-6.66699 -16 -13.5029 -28.167 -20.5029 -36.5s-17.167 -12.5 -30.5 -12.5c-10 0 -20 2 -30 6s-22 9.66699 -36 17l-3 1l-2 1c-16.667 7.33301 -30.667 12.833 -42 16.5s-24 5.5 -38 5.5c-31.333 0 -56.666 -11 -75.999 -33s-31.666 -49.333 -36.999 -82h37
c3.33301 13.333 9.5 24.5 18.5 33.5s20.167 13.5 33.5 13.5c10.667 0 29.334 -6.33301 56.001 -19c4 -2 7 -3.66699 9 -5c15.333 -8 29.5 -14.167 42.5 -18.5s26.167 -6.5 39.5 -6.5c32.667 0 58.167 11 76.5 33s31.5 50.667 39.5 86h-37z" />
    <glyph glyph-name="endash" unicode="&#x2013;" horiz-adv-x="500" 
d="M500 187v70h-500v-70h500z" />
    <glyph glyph-name="emdash" unicode="&#x2014;" horiz-adv-x="1000" 
d="M0 187h1000v70h-1000v-70z" />
    <glyph glyph-name="quoteleft" unicode="&#x2018;" horiz-adv-x="278" 
d="M186 742c-37.333 -26 -67.335 -56.501 -90.002 -91.501s-34 -73.167 -34 -114.5c0 -28 7.5 -50.667 22.5 -68s37.5 -26 67.5 -26c18.667 2 33.834 9.33301 45.501 22s17.5 28.667 17.5 48c0 16 -3.5 29.333 -10.5 40s-16.833 20.667 -29.5 30c-3.33301 2 -8 5 -14 9
c-10 5.33301 -17.167 10 -21.5 14s-6.5 8.66699 -6.5 14c0 7.33301 3 16.333 9 27s13.167 21.334 21.5 32.001s16.333 20.167 24 28.5s12.834 13.5 15.501 15.5z" />
    <glyph glyph-name="quoteright" unicode="&#x2019;" horiz-adv-x="278" 
d="M92 442c38 26 68.1699 56.501 90.5029 91.501s33.5 73.167 33.5 114.5c0 28 -7.5 50.667 -22.5 68s-37.5 26 -67.5 26c-18.667 -2 -33.834 -9.33301 -45.501 -22s-17.5 -28.667 -17.5 -48c0 -16 3.5 -29.333 10.5 -40s16.833 -20.667 29.5 -30l15 -9
c9.33301 -5.33301 16.166 -10 20.499 -14s6.5 -8.66699 6.5 -14c0 -7.33301 -3 -16.333 -9 -27s-13.167 -21.334 -21.5 -32.001s-16.333 -20.167 -24 -28.5s-12.834 -13.5 -15.501 -15.5z" />
    <glyph glyph-name="quotesinglbase" unicode="&#x201a;" horiz-adv-x="278" 
d="M92 -162c38 26 68.1699 56.501 90.5029 91.501s33.5 73.167 33.5 114.5c0 28 -7.5 50.667 -22.5 68s-37.5 26 -67.5 26c-18.667 -2 -33.834 -9.33301 -45.501 -22s-17.5 -28.667 -17.5 -48c0 -16 3.5 -29.333 10.5 -40s16.833 -20.667 29.5 -30l15 -9
c9.33301 -5.33301 16.166 -10 20.499 -14s6.5 -8.66699 6.5 -14c0 -7.33301 -3 -16.333 -9 -27s-13.167 -21.334 -21.5 -32.001s-16.333 -20.167 -24 -28.5s-12.834 -13.5 -15.501 -15.5z" />
    <glyph glyph-name="quotedblleft" unicode="&#x201c;" horiz-adv-x="500" 
d="M175 742c-37.333 -26 -67.335 -56.501 -90.002 -91.501s-34 -73.167 -34 -114.5c0 -28 7.5 -50.667 22.5 -68s37.5 -26 67.5 -26c18.667 2 33.834 9.33301 45.501 22s17.5 28.667 17.5 48c0 16 -3.5 29.333 -10.5 40s-16.833 20.667 -29.5 30c-3.33301 2 -8 5 -14 9
c-10 5.33301 -17.167 10 -21.5 14s-6.5 8.66699 -6.5 14c0 7.33301 3 16.333 9 27s13.167 21.334 21.5 32.001s16.333 20.167 24 28.5s12.834 13.5 15.501 15.5zM418.998 741.999c-37.333 -26 -67.335 -56.501 -90.002 -91.501s-34 -73.167 -34 -114.5
c0 -28 7.5 -50.667 22.5 -68s37.5 -26 67.5 -26c18.667 2 33.834 9.33301 45.501 22s17.5 28.667 17.5 48c0 16 -3.5 29.333 -10.5 40s-16.833 20.667 -29.5 30c-3.33301 2 -8 5 -14 9c-10 5.33301 -17.167 10 -21.5 14s-6.5 8.66699 -6.5 14c0 7.33301 3 16.333 9 27
s13.167 21.334 21.5 32.001s16.333 20.167 24 28.5s12.834 13.5 15.501 15.5z" />
    <glyph glyph-name="quotedblright" unicode="&#x201d;" horiz-adv-x="500" 
d="M81 442c38 26 68.1699 56.501 90.5029 91.501s33.5 73.167 33.5 114.5c0 28 -7.5 50.667 -22.5 68s-37.5 26 -67.5 26c-18.667 -2 -33.834 -9.33301 -45.501 -22s-17.5 -28.667 -17.5 -48c0 -16 3.5 -29.333 10.5 -40s16.833 -20.667 29.5 -30l15 -9
c9.33301 -5.33301 16.166 -10 20.499 -14s6.5 -8.66699 6.5 -14c0 -7.33301 -3 -16.333 -9 -27s-13.167 -21.334 -21.5 -32.001s-16.333 -20.167 -24 -28.5s-12.834 -13.5 -15.501 -15.5zM325.003 442.001c38 26 68.1699 56.501 90.5029 91.501s33.5 73.167 33.5 114.5
c0 28 -7.5 50.667 -22.5 68s-37.5 26 -67.5 26c-18.667 -2 -33.834 -9.33301 -45.501 -22s-17.5 -28.667 -17.5 -48c0 -16 3.5 -29.333 10.5 -40s16.833 -20.667 29.5 -30l15 -9c9.33301 -5.33301 16.166 -10 20.499 -14s6.5 -8.66699 6.5 -14c0 -7.33301 -3 -16.333 -9 -27
s-13.167 -21.334 -21.5 -32.001s-16.333 -20.167 -24 -28.5s-12.834 -13.5 -15.501 -15.5z" />
    <glyph glyph-name="quotedblbase" unicode="&#x201e;" horiz-adv-x="500" 
d="M81 -161c38 26 68.1699 56.501 90.5029 91.501s33.5 73.167 33.5 114.5c0 28 -7.5 50.667 -22.5 68s-37.5 26 -67.5 26c-18.667 -2 -33.834 -9.33301 -45.501 -22s-17.5 -28.667 -17.5 -48c0 -16 3.5 -29.333 10.5 -40s16.833 -20.667 29.5 -30l15 -9
c9.33301 -5.33301 16.166 -10 20.499 -14s6.5 -8.66699 6.5 -14c0 -7.33301 -3 -16.333 -9 -27s-13.167 -21.334 -21.5 -32.001s-16.333 -20.167 -24 -28.5s-12.834 -13.5 -15.501 -15.5zM325.003 -160.999c38 26 68.1699 56.501 90.5029 91.501s33.5 73.167 33.5 114.5
c0 28 -7.5 50.667 -22.5 68s-37.5 26 -67.5 26c-18.667 -2 -33.834 -9.33301 -45.501 -22s-17.5 -28.667 -17.5 -48c0 -16 3.5 -29.333 10.5 -40s16.833 -20.667 29.5 -30l15 -9c9.33301 -5.33301 16.166 -10 20.499 -14s6.5 -8.66699 6.5 -14c0 -7.33301 -3 -16.333 -9 -27
s-13.167 -21.334 -21.5 -32.001s-16.333 -20.167 -24 -28.5s-12.834 -13.5 -15.501 -15.5z" />
    <glyph glyph-name="dagger" unicode="&#x2020;" horiz-adv-x="500" 
d="M261 -83c0 88.667 3.1748 162.668 9.50781 222.001s21.166 120.333 44.499 183c-34.667 44.667 -52 103 -52 175c5.33301 0 12.166 -1.5 20.499 -4.5l28.5 -10.5c7.33301 -2.66699 11.666 -4.33398 12.999 -5.00098c4.66699 -2 11.667 -5.33301 21 -10
c12 -6 22 -10.5 30 -13.5s17 -4.5 27 -4.5c14.667 0 26.334 5.83301 35.001 17.5s13 24.834 13 39.501c0 15.333 -4.33301 28.666 -13 39.999s-20.334 17 -35.001 17c-10 0 -19 -1.5 -27 -4.5s-18 -7.5 -30 -13.5c-9.33301 -4.66699 -16.333 -8 -21 -10
c-2 -0.666992 -4.66699 -1.66699 -8 -3c-11.333 -4.66699 -21.5 -8.33398 -30.5 -11.001s-16.833 -4 -23.5 -4c0 18.667 1 35.5 3 50.5s5.66699 28.5 11 40.5c2.66699 6 6.66699 14 12 24c6 12 10.5 21.833 13.5 29.5s4.5 16.167 4.5 25.5
c-0.666992 17.333 -6.33398 30.833 -17.001 40.5s-24.334 14.5 -41.001 14.5s-30.167 -4.83301 -40.5 -14.5s-16.166 -23.167 -17.499 -40.5c0 -9.33301 1.5 -18 4.5 -26s7.5 -17.667 13.5 -29c5.33301 -10 9.33301 -18 12 -24c5.33301 -12 9 -25.5 11 -40.5
s3 -31.833 3 -50.5c-6.66699 0 -14.334 1.33301 -23.001 4s-18.667 6.33398 -30 11.001l-9 3c-4.66699 2 -11.667 5.33301 -21 10c-11.333 6 -21.166 10.5 -29.499 13.5s-17.5 4.5 -27.5 4.5c-14.667 0 -26.334 -5.66699 -35.001 -17s-13 -24.666 -13 -39.999
c0 -14.667 4.33301 -27.834 13 -39.501s20.334 -17.5 35.001 -17.5c10 0 19.167 1.5 27.5 4.5s18.166 7.5 29.499 13.5c9.33301 4.66699 16.333 8 21 10c1.33301 0.666992 5.66602 2.33398 12.999 5.00098c12.667 5.33301 22.667 9.16602 30 11.499s13.666 3.5 18.999 3.5
c0 -72 -17.333 -130.333 -52 -175c23.333 -62.667 38.166 -123.667 44.499 -183s9.5 -133.333 9.5 -222h24z" />
    <glyph glyph-name="daggerdbl" unicode="&#x2021;" horiz-adv-x="500" 
d="M252 742c-16.667 0 -30.167 -4.83301 -40.5 -14.5s-16.166 -23.167 -17.499 -40.5c0 -9.33301 1.5 -18 4.5 -26s7.5 -17.667 13.5 -29c5.33301 -10 9.33301 -18 12 -24c5.33301 -12 9 -25.5 11 -40.5s3 -31.833 3 -50.5c-6.66699 0 -14.334 1.33301 -23.001 4
s-18.667 6.33398 -30 11.001l-9 3c-4.66699 2 -11.667 5.33301 -21 10c-11.333 6 -21.166 10.5 -29.499 13.5s-17.5 4.5 -27.5 4.5c-14.667 0 -26.334 -5.66699 -35.001 -17s-13 -24.666 -13 -39.999c0 -14.667 4.33301 -27.834 13 -39.501s20.334 -17.5 35.001 -17.5
c10 0 19.167 1.5 27.5 4.5s18.166 7.5 29.499 13.5c9.33301 4.66699 16.333 8 21 10c1.33301 0.666992 5.66602 2.33398 12.999 5.00098c12.667 5.33301 22.667 9.16602 30 11.499s13.666 3.5 18.999 3.5c0 -72 -17.333 -130.333 -52 -175c34.667 -44.667 52 -103 52 -175
c-5.33301 0 -12.166 1.5 -20.499 4.5l-28.5 10.5c-7.33301 2.66699 -11.666 4.33398 -12.999 5.00098c-4.66699 2 -11.667 5.33301 -21 10c-11.333 6 -21.166 10.5 -29.499 13.5s-17.5 4.5 -27.5 4.5c-14.667 0 -26.334 -5.66699 -35.001 -17s-13 -24.666 -13 -39.999
c0 -14.667 4.33301 -27.834 13 -39.501s20.334 -17.5 35.001 -17.5c10 0 19.167 1.5 27.5 4.5s18.166 7.5 29.499 13.5c9.33301 4.66699 16.333 8 21 10l9 3c10.667 4.66699 20.5 8.33398 29.5 11.001s16.833 4 23.5 4c0 -18.667 -1 -35.334 -3 -50.001
s-5.66699 -28.334 -11 -41.001c-2.66699 -6 -6.66699 -14 -12 -24c-6 -12 -10.5 -21.833 -13.5 -29.5s-4.5 -16.167 -4.5 -25.5c1.33301 -17.333 7.16602 -30.833 17.499 -40.5s23.833 -14.5 40.5 -14.5s30.334 4.83301 41.001 14.5s16.334 23.167 17.001 40.5
c0 9.33301 -1.5 18 -4.5 26s-7.5 17.667 -13.5 29c-5.33301 10 -9.33301 18 -12 24c-5.33301 12.667 -9 26.334 -11 41.001s-3 31.334 -3 50.001c6.66699 0 14.334 -1.33301 23.001 -4s19 -6.33398 31 -11.001c3.33301 -1.33301 6 -2.33301 8 -3
c4.66699 -2 11.667 -5.33301 21 -10c12 -6 22 -10.5 30 -13.5s17 -4.5 27 -4.5c14.667 0 26.334 5.83301 35.001 17.5s13 24.834 13 39.501c0 15.333 -4.33301 28.666 -13 39.999s-20.334 17 -35.001 17c-10 0 -19 -1.5 -27 -4.5s-18 -7.5 -30 -13.5
c-9.33301 -4.66699 -16.333 -8 -21 -10c-1.33301 -0.666992 -5.66602 -2.33398 -12.999 -5.00098c-12.667 -5.33301 -22.667 -9.16602 -30 -11.499s-13.666 -3.5 -18.999 -3.5c0 72 17.333 130.333 52 175c-34.667 44.667 -52 103 -52 175
c5.33301 0 12.166 -1.5 20.499 -4.5l28.5 -10.5c7.33301 -2.66699 11.666 -4.33398 12.999 -5.00098c4.66699 -2 11.667 -5.33301 21 -10c12 -6 22 -10.5 30 -13.5s17 -4.5 27 -4.5c14.667 0 26.334 5.83301 35.001 17.5s13 24.834 13 39.501
c0 15.333 -4.33301 28.666 -13 39.999s-20.334 17 -35.001 17c-10 0 -19 -1.5 -27 -4.5s-18 -7.5 -30 -13.5c-9.33301 -4.66699 -16.333 -8 -21 -10c-2 -0.666992 -4.66699 -1.66699 -8 -3c-11.333 -4.66699 -21.5 -8.33398 -30.5 -11.001s-16.833 -4 -23.5 -4
c0 18.667 1 35.5 3 50.5s5.66699 28.5 11 40.5c2.66699 6 6.66699 14 12 24c6 12 10.5 21.833 13.5 29.5s4.5 16.167 4.5 25.5c-0.666992 17.333 -6.33398 30.833 -17.001 40.5s-24.334 14.5 -41.001 14.5z" />
    <glyph glyph-name="bullet" unicode="&#x2022;" horiz-adv-x="500" 
d="M437 374c0 25.333 -4.83301 49.498 -14.5 72.498s-23 43 -40 60s-37 30.333 -60 40s-47.167 14.5 -72.5 14.5s-49.5 -4.66699 -72.5 -14s-43 -22.666 -60 -39.999s-30.333 -37.333 -40 -60s-14.5 -47 -14.5 -73s4.83301 -50.333 14.5 -73s23 -42.667 40 -60
s37 -30.666 60 -39.999s47.167 -14 72.5 -14s49.5 4.83301 72.5 14.5s43 23 60 40s30.333 37 40 60s14.5 47.167 14.5 72.5z" />
    <glyph glyph-name="ellipsis" unicode="&#x2026;" horiz-adv-x="1000" 
d="M244 63c0 21.333 -7.5 39.5 -22.5 54.5s-33.167 22.5 -54.5 22.5s-39.5 -7.5 -54.5 -22.5s-22.5 -33.167 -22.5 -54.5s7.5 -39.5 22.5 -54.5s33.167 -22.5 54.5 -22.5s39.5 7.5 54.5 22.5s22.5 33.167 22.5 54.5zM577 63c0 21.333 -7.5 39.5 -22.5 54.5
s-33.167 22.5 -54.5 22.5s-39.5 -7.5 -54.5 -22.5s-22.5 -33.167 -22.5 -54.5s7.5 -39.5 22.5 -54.5s33.167 -22.5 54.5 -22.5s39.5 7.5 54.5 22.5s22.5 33.167 22.5 54.5zM910 63c0 21.333 -7.5 39.5 -22.5 54.5s-33.167 22.5 -54.5 22.5s-39.5 -7.5 -54.5 -22.5
s-22.5 -33.167 -22.5 -54.5s7.5 -39.5 22.5 -54.5s33.167 -22.5 54.5 -22.5s39.5 7.5 54.5 22.5s22.5 33.167 22.5 54.5z" />
    <glyph glyph-name="perthousand" unicode="&#x2030;" horiz-adv-x="1000" 
d="M695 125c0 -41.333 10.332 -74.833 30.999 -100.5s51.334 -38.5 92.001 -38.5c28 0 53.167 6.83301 75.5 20.5s41 31.667 56 54s26.333 47 34 74s11.5 53.5 11.5 79.5c0 36 -9.16699 64.833 -27.5 86.5s-45.166 32.5 -80.499 32.5
c-26.667 0 -51.834 -5.66699 -75.501 -17s-44.167 -27 -61.5 -47s-30.833 -42.5 -40.5 -67.5s-14.5 -50.5 -14.5 -76.5zM790.999 71c0 15.333 2.83203 35.8311 8.49902 61.498s13.667 51.5 24 77.5s22.833 47.5 37.5 64.5s31 25.5 49 25.5c20 0 34.667 -8.83301 44 -26.5
s14 -37.5 14 -59.5c0 -18 -2.83301 -38.667 -8.5 -62s-14.167 -45.666 -25.5 -66.999s-25.166 -38.666 -41.499 -51.999s-34.5 -20 -54.5 -20c-14.667 0 -26.167 6 -34.5 18s-12.5 25.333 -12.5 40zM524.998 741.998c-24 -32 -49.1641 -55.335 -75.4971 -70.002
s-58.5 -22 -96.5 -22c-12.667 0 -25.834 2.33301 -39.501 7s-24.167 11.334 -31.5 20.001c-18.667 22.667 -45 34 -79 34c-26.667 0 -51.834 -5.83301 -75.501 -17.5s-44.167 -27.667 -61.5 -48s-30.833 -43 -40.5 -68s-14.5 -50.5 -14.5 -76.5
c0 -41.333 11.167 -75.166 33.5 -101.499s54.166 -39.5 95.499 -39.5c26.667 0 50.667 7.33301 72 22s39.5 33.834 54.5 57.501s26.333 49 34 76s11.5 52.5 11.5 76.5c0 11.333 -2.33301 24.666 -7 39.999c14 -6 31 -9 51 -9c21.333 0 42.333 3 63 9s38.667 14.667 54 26
l2 -2l-398 -670h49l450 756h-51zM107.001 448.996c0 33.333 4.83496 63.666 14.502 90.999s22.5 56.333 38.5 87l3 6c6.66699 12.667 14 23.334 22 32.001s16.667 13 26 13c18 -14.667 40 -27.667 66 -39c2.66699 -7.33301 4.66699 -17 6 -29s2 -23 2 -33
c0 -17.333 -3.33301 -37.166 -10 -59.499s-15.834 -43.333 -27.501 -63s-24.834 -35.834 -39.501 -48.501s-30 -19 -46 -19c-16.667 0 -30 5.83301 -40 17.5s-15 26.5 -15 44.5zM335.003 124.996c0 -41.333 10.5 -74.833 31.5 -100.5s51.5 -38.5 91.5 -38.5
c28 0 53.167 6.83301 75.5 20.5s41 31.667 56 54s26.333 47 34 74s11.5 53.5 11.5 79.5c0 36 -9.16699 64.833 -27.5 86.5s-45.166 32.5 -80.499 32.5c-26.667 0 -51.834 -5.66699 -75.501 -17s-44.167 -27 -61.5 -47s-30.833 -42.5 -40.5 -67.5s-14.5 -50.5 -14.5 -76.5z
M431.003 70.9961c0 16 2.83203 36.8301 8.49902 62.4971s13.667 51.334 24 77.001s23 47 38 64s31.167 25.5 48.5 25.5c20 0 34.667 -8.83301 44 -26.5s14 -37.5 14 -59.5c0 -18 -2.83301 -38.667 -8.5 -62s-14.167 -45.666 -25.5 -66.999s-25.166 -38.666 -41.499 -51.999
s-34.5 -20 -54.5 -20c-14 0 -25.333 6 -34 18s-13 25.333 -13 40z" />
    <glyph glyph-name="guilsinglleft" unicode="&#x2039;" horiz-adv-x="333" 
d="M69 222l149 -130.001c15.333 -13.333 26 -20 32 -20c4.66699 0 7 3.66699 7 11c0 6.66699 -4 15.334 -12 26.001l-82 113l82 112c8 12 12 21 12 27c0 7.33301 -2.33301 11 -7 11c-6 0 -16.667 -6.66699 -32 -20z" />
    <glyph glyph-name="guilsinglright" unicode="&#x203a;" horiz-adv-x="333" 
d="M264 222l-149 130c-15.333 13.333 -26 20 -32 20c-4.66699 0 -7 -3.66699 -7 -11c0 -6 4 -14.667 12 -26l82 -113l-82 -112c-8 -12 -12 -21 -12 -27c0 -7.33301 2.33301 -11 7 -11c6 0 16.667 6.66699 32 20z" />
    <glyph glyph-name="trademark" unicode="&#x2122;" horiz-adv-x="990" 
d="M243 704h48.001c18.667 0 33 -5.66699 43 -17s17.333 -27 22 -47h22v88h-356v-88h22c4.66699 19.333 12.167 34.833 22.5 46.5s24.833 17.5 43.5 17.5h48v-308c0 -22 -2.33301 -35.167 -7 -39.5s-19.334 -7.16602 -44.001 -8.49902v-24h186v24
c-24 1.33301 -38.333 4.16602 -43 8.49902s-7 17.5 -7 39.5v308zM664.001 323l11.999 -0.000976562l149 298h2v-225c0 -22 -2.16699 -35.167 -6.5 -39.5s-18.833 -7.16602 -43.5 -8.49902v-24h185v24c-24 1.33301 -38.333 4.16602 -43 8.49902s-7 17.5 -7 39.5v259
c0 17.333 3.66699 29.833 11 37.5s22 11.834 44 12.501v23h-114l-154 -296l-146 296h-133v-23c16.667 0 32.5 -4.66699 47.5 -14s22.5 -21.333 22.5 -36v-259c0 -16.667 -3.16699 -28.667 -9.5 -36s-20.166 -11.333 -41.499 -12v-24h132v24
c-22 0.666992 -36.167 4.66699 -42.5 12s-9.5 19.333 -9.5 36v224h2z" />
    </font>
</defs>
</svg>
